SplineFontDB: 3.2
FontName: UnicodiaLamp
FullName: UnicodiaLamp
FamilyName: UnicodiaLamp
Weight: Medium
Copyright: Created by Edward Trager with FontForge 2.0 (http://fontforge.sf.net)
Version: 001.000
ItalicAngle: 0
UnderlinePosition: -150
UnderlineWidth: 50
Ascent: 400
Descent: 150
InvalidEm: 0
sfntRevision: 0x00000106
LayerCount: 2
Layer: 0 0 "+BBcEMAQ0BD0EOAQ5 +BD8EOwQwBD0A" 1
Layer: 1 0 "+BB8ENQRABDUENAQ9BDgEOQAA +BD8EOwQwBD0A" 0
XUID: [1021 59 1751208496 23582]
StyleMap: 0x0040
FSType: 0
OS2Version: 3
OS2_WeightWidthSlopeOnly: 0
OS2_UseTypoMetrics: 0
CreationTime: 1339689063
ModificationTime: 1710680367
PfmFamily: 17
TTFWeight: 500
TTFWidth: 5
LineGap: 90
VLineGap: 0
Panose: 2 0 6 3 0 0 0 0 0 0
OS2TypoAscent: 650
OS2TypoAOffset: 0
OS2TypoDescent: -479
OS2TypoDOffset: 0
OS2TypoLinegap: 90
OS2WinAscent: 632
OS2WinAOffset: 0
OS2WinDescent: 350
OS2WinDOffset: 0
HheadAscent: 632
HheadAOffset: 0
HheadDescent: -350
HheadDOffset: 0
OS2SubXSize: 650
OS2SubYSize: 700
OS2SubXOff: 0
OS2SubYOff: 140
OS2SupXSize: 650
OS2SupYSize: 700
OS2SupXOff: 0
OS2SupYOff: 480
OS2StrikeYSize: 49
OS2StrikeYPos: 258
OS2CapHeight: 519
OS2XHeight: 300
OS2Vendor: '    '
OS2CodePages: 00000001.00000000
OS2UnicodeRanges: 00000001.10002040.00000000.00000000
Lookup: 1 0 0 "'pref' Pre Base Forms in Tai Tham lookup 0" { "'pref' Pre Base Forms in Tai Tham lookup 0 subtable"  } ['pref' ('DFLT' <'dflt' > 'lana' <'dflt' > ) ]
Lookup: 4 0 0 "Merc" { "Merc-1"  } ['ccmp' ('DFLT' <'dflt' > 'lana' <'dflt' > ) ]
Lookup: 2 0 0 "'ccmp' +BBoEPgQ8BD8EPgQ3BDgERgQ4BE8A-/+BDQENQQ6BD4EPAQ/BD4ENwQ4BEYEOARP +BDMEOwQ4BEQEMAAA in Tai Tham lookup 1" { "'ccmp' +BBoEPgQ8BD8EPgQ3BDgERgQ4BE8A-/+BDQENQQ6BD4EPAQ/BD4ENwQ4BEYEOARP +BDMEOwQ4BEQEMAAA in Tai Tham lookup 1 subtable"  } ['ccmp' ('DFLT' <'dflt' > 'lana' <'dflt' > ) ]
Lookup: 5 0 0 "'blws' Below Base Substitutions in Tai Tham lookup 2" { "'blws' Below Base Substitutions in Tai Tham lookup 2 subtable"  } ['blws' ('lana' <'dflt' > ) ]

StartChar: .notdef
Encoding: 345 -1 0
Width: 500
VWidth: 1000
GlyphClass: 1
Flags: W
HStem: 0 50<100 400> 383 50<100 400>
VStem: 50 50<50 383> 400 50<50 383>
LayerCount: 2
Fore
SplineSet
50 0 m 1
 50 433 l 1
 450 433 l 1
 450 0 l 1
 50 0 l 1
100 50 m 1
 400 50 l 1
 400 383 l 1
 100 383 l 1
 100 50 l 1
EndSplineSet
Ligature2: "'blws' Below Base Substitutions in Tai Tham lookup 50 subtable" uniE32B .notdef
Ligature2: "'blws' Below Base Substitutions in Tai Tham lookup 50 subtable" uniE32A .notdef
Ligature2: "'blws' Below Base Substitutions in Tai Tham lookup 50 subtable" uniE325 .notdef
Ligature2: "+BB8EPgQ0BEEEQgQwBD0EPgQyBDoEMAAA +BDsEOAQzBDAEQgRDBEAESwAA lookup 26 subtable" uni25CC .notdef
Ligature2: "'blws' Below Base Substitutions in Tai Tham lookup 24 subtable" .notdef uniE440
Ligature2: "'blws' Below Base Substitutions in Tai Tham lookup 15 subtable" .notdef uniE441
Ligature2: "'blws' Below Base Substitutions in Tai Tham lookup 15 subtable" .notdef uniE442
Ligature2: "'blws' Below Base Substitutions in Tai Tham lookup 15 subtable" .notdef uniE443
Ligature2: "'blws' Below Base Substitutions in Tai Tham lookup 15 subtable" .notdef uniE444
Ligature2: "'blws' Below Base Substitutions in Tai Tham lookup 15 subtable" .notdef uniE445
EndChar

StartChar: uni0000
Encoding: 0 0 1
Width: 380
VWidth: 1000
GlyphClass: 2
Flags: W
HStem: -5 38<135.845 172.155 208.845 245.155> 31 39<79.2109 102.789> 81 40<122.821 159.179> 95 37<36.8453 72.5327 307.845 344.155> 130 40<171.821 208.179> 167 38<36.8453 72.172 307.845 344.155> 180 40<221.821 258.179> 229 40<72.821 109.179> 267 38<135.845 172.155 208.845 245.155>
VStem: 36 37<95.4737 131.155 167.845 204.155> 71 40<230.821 267.179> 121 40<82.821 119.179 189.004 210.996> 135 38<-4.15468 32.1547 267.845 304.155> 170 40<131.821 168.179> 208 38<-4.15468 32.1547 267.845 304.155> 220 39<90.0044 111.996 181.821 218.179> 270 39<237.211 260.789> 307 38<95.8453 131.155 167.845 204.155>
LayerCount: 2
Fore
SplineSet
309 249 m 0x000080
 309 223.206707311 270 223.203549099 270 249 c 0
 270 274.793292689 309 274.796450901 309 249 c 0x000080
331 167 m 0x040040
 321 164 310 171 307 181 c 0
 304 191 311 202 321 205 c 0
 331 208 342 201 345 191 c 0
 348 181 341 170 331 167 c 0x040040
321 95 m 0x100040
 311 98 304 109 307 119 c 0
 310 129 321 135 331 132 c 0
 341 129 348 118 345 108 c 0
 342 98 331 92 321 95 c 0x100040
303 37 m 0
 284.935185185 18.9351851852 257.935185185 45.9351851852 276 64 c 0
 294.064814815 82.0648148148 321.064814815 55.0648148148 303 37 c 0
208 9 m 0x8002
 205 19 212 30 222 33 c 0
 232 36 243 29 246 19 c 0
 249 9 242 -2 232 -5 c 0
 222 -8 211 -1 208 9 c 0x8002
135 19 m 0x8008
 138 29 149 36 159 33 c 0
 169 30 176 19 173 9 c 0
 170 -1 159 -8 149 -5 c 0
 139 -2 132 9 135 19 c 0x8008
91 31 m 0x40
 65.2035808693 31 65.2066755409 70 91 70 c 0
 116.793292689 70 116.796450901 31 91 31 c 0x40
50 132 m 0x1040
 60 135 70 129 73 119 c 0
 76 109 70 98 60 95 c 0
 50 92 39 98 36 108 c 0
 33 118 40 129 50 132 c 0x1040
60 205 m 0x0440
 70 202 76 191 73 181 c 0
 70 171 60 164 50 167 c 0
 40 170 33 181 36 191 c 0
 39 201 50 208 60 205 c 0x0440
91 269 m 0x0120
 101.696675312 269 111 259.697295416 111 249 c 0
 111 238.303324688 101.697295416 229 91 229 c 0
 80.3033246881 229 71 238.302704584 71 249 c 0
 71 259.696675312 80.302704584 269 91 269 c 0x0120
173 291 m 0x0088
 176 281 169 270 159 267 c 0
 149 264 138 271 135 281 c 0
 132 291 139 302 149 305 c 0
 159 308 170 301 173 291 c 0x0088
246 281 m 0x0082
 243 271 232 264 222 267 c 0
 212 270 205 281 208 291 c 0
 211 301 222 308 232 305 c 0
 242 302 249 291 246 281 c 0x0082
190 170 m 0x0804
 200.696675312 170 210 160.697295416 210 150 c 0
 210 139.303324688 200.697295416 130 190 130 c 0
 179.303324688 130 170 139.302704584 170 150 c 0
 170 160.696675312 179.302704584 170 190 170 c 0x0804
260 200 m 0
 260 189.303324688 250.697295416 180 240 180 c 0
 229.303324688 180 220 189.302704584 220 200 c 0
 220 210.696675312 229.302704584 220 240 220 c 0x0201
 250.696675312 220 260 210.697295416 260 200 c 0
161 101 m 0x2010
 161 90.3033246881 151.697295416 81 141 81 c 0
 130.303324688 81 121 90.302704584 121 101 c 0
 121 111.696675312 130.302704584 121 141 121 c 0
 151.696675312 121 161 111.697295416 161 101 c 0x2010
121 200 m 0
 121 225.796419131 160 225.793324459 160 200 c 0
 160 174.206707311 121 174.203549099 121 200 c 0
220 101 m 0x0001
 220 126.796419131 259 126.793324459 259 101 c 0
 259 75.206707311 220 75.2035490993 220 101 c 0x0001
EndSplineSet
Ligature2: "'blws' Below Base Substitutions in Tai Tham lookup 50 subtable" uniE32B uni0000
Ligature2: "'blws' Below Base Substitutions in Tai Tham lookup 50 subtable" uniE32A uni0000
Ligature2: "'blws' Below Base Substitutions in Tai Tham lookup 50 subtable" uniE325 uni0000
Ligature2: "+BB8EPgQ0BEEEQgQwBD0EPgQyBDoEMAAA +BDsEOAQzBDAEQgRDBEAESwAA lookup 26 subtable" uni25CC uni0000
Ligature2: "'blws' Below Base Substitutions in Tai Tham lookup 24 subtable" uni0000 uniE440
Ligature2: "'blws' Below Base Substitutions in Tai Tham lookup 15 subtable" uni0000 uniE441
Ligature2: "'blws' Below Base Substitutions in Tai Tham lookup 15 subtable" uni0000 uniE442
Ligature2: "'blws' Below Base Substitutions in Tai Tham lookup 15 subtable" uni0000 uniE443
Ligature2: "'blws' Below Base Substitutions in Tai Tham lookup 15 subtable" uni0000 uniE444
Ligature2: "'blws' Below Base Substitutions in Tai Tham lookup 15 subtable" uni0000 uniE445
EndChar

StartChar: parenleft
Encoding: 2 40 3
Width: 263
VWidth: 1000
GlyphClass: 2
Flags: W
VStem: 70.0001 45.1281<148.153 368.614>
LayerCount: 2
Fore
SplineSet
156.014648438 576 m 1
 191.014648438 577 l 1
 140.142566507 461.920436021 115.128217097 358.550033938 115.128217097 257.732062826 c 0
 115.128217097 154.425283576 141.39282666 53.798510182 193.014648438 -54 c 1
 158.014648438 -54 l 1
 99.771321052 59.4478724725 70.0001037254 156.992404192 70.0001037254 257.340739815 c 0
 70.0001037254 355.127694786 98.2709032557 455.5771468 156.014648438 576 c 1
EndSplineSet
Ligature2: "'blws' Below Base Substitutions in Tai Tham lookup 50 subtable" uniE32B parenleft
Ligature2: "'blws' Below Base Substitutions in Tai Tham lookup 50 subtable" uniE32A parenleft
Ligature2: "'blws' Below Base Substitutions in Tai Tham lookup 50 subtable" uniE325 parenleft
Ligature2: "+BB8EPgQ0BEEEQgQwBD0EPgQyBDoEMAAA +BDsEOAQzBDAEQgRDBEAESwAA lookup 26 subtable" uni25CC parenleft
Ligature2: "'blws' Below Base Substitutions in Tai Tham lookup 24 subtable" parenleft uniE440
Ligature2: "'blws' Below Base Substitutions in Tai Tham lookup 15 subtable" parenleft uniE441
Ligature2: "'blws' Below Base Substitutions in Tai Tham lookup 15 subtable" parenleft uniE442
Ligature2: "'blws' Below Base Substitutions in Tai Tham lookup 15 subtable" parenleft uniE443
Ligature2: "'blws' Below Base Substitutions in Tai Tham lookup 15 subtable" parenleft uniE444
Ligature2: "'blws' Below Base Substitutions in Tai Tham lookup 15 subtable" parenleft uniE445
EndChar

StartChar: parenright
Encoding: 3 41 4
Width: 262
VWidth: 1000
GlyphClass: 2
Flags: W
VStem: 147.379 44.6354<150.072 368.121>
LayerCount: 2
Fore
SplineSet
106 576 m 1
 163.743745182 455.5771468 192.014544712 355.127694786 192.014544712 257.340739815 c 0
 192.014544712 156.992404192 162.243327385 59.4478724725 104 -54 c 1
 70 -54 l 1
 121.373137439 53.279198769 147.379115609 153.455592943 147.379115609 256.239229828 c 0
 147.379115609 357.529774217 122.123204351 461.352362973 71 577 c 1
 106 576 l 1
EndSplineSet
Ligature2: "'blws' Below Base Substitutions in Tai Tham lookup 50 subtable" uniE32B parenright
Ligature2: "'blws' Below Base Substitutions in Tai Tham lookup 50 subtable" uniE32A parenright
Ligature2: "'blws' Below Base Substitutions in Tai Tham lookup 50 subtable" uniE325 parenright
Ligature2: "+BB8EPgQ0BEEEQgQwBD0EPgQyBDoEMAAA +BDsEOAQzBDAEQgRDBEAESwAA lookup 26 subtable" uni25CC parenright
Ligature2: "'blws' Below Base Substitutions in Tai Tham lookup 24 subtable" parenright uniE440
Ligature2: "'blws' Below Base Substitutions in Tai Tham lookup 15 subtable" parenright uniE441
Ligature2: "'blws' Below Base Substitutions in Tai Tham lookup 15 subtable" parenright uniE442
Ligature2: "'blws' Below Base Substitutions in Tai Tham lookup 15 subtable" parenright uniE443
Ligature2: "'blws' Below Base Substitutions in Tai Tham lookup 15 subtable" parenright uniE444
Ligature2: "'blws' Below Base Substitutions in Tai Tham lookup 15 subtable" parenright uniE445
EndChar

StartChar: plus
Encoding: 4 43 5
Width: 263
VWidth: 1000
GlyphClass: 2
Flags: W
HStem: 130 40<35 112 152 229>
VStem: 112 40<53 130 170 247>
LayerCount: 2
Fore
SplineSet
152 247 m 1
 152 170 l 1
 229 170 l 1
 229 130 l 1
 152 130 l 1
 152 53 l 1
 112 53 l 1
 112 130 l 1
 35 130 l 1
 35 170 l 1
 112 170 l 1
 112 247 l 1
 152 247 l 1
EndSplineSet
Ligature2: "'blws' Below Base Substitutions in Tai Tham lookup 50 subtable" uniE32B plus
Ligature2: "'blws' Below Base Substitutions in Tai Tham lookup 50 subtable" uniE32A plus
Ligature2: "'blws' Below Base Substitutions in Tai Tham lookup 50 subtable" uniE325 plus
Ligature2: "+BB8EPgQ0BEEEQgQwBD0EPgQyBDoEMAAA +BDsEOAQzBDAEQgRDBEAESwAA lookup 26 subtable" uni25CC plus
Ligature2: "'blws' Below Base Substitutions in Tai Tham lookup 24 subtable" plus uniE440
Ligature2: "'blws' Below Base Substitutions in Tai Tham lookup 15 subtable" plus uniE441
Ligature2: "'blws' Below Base Substitutions in Tai Tham lookup 15 subtable" plus uniE442
Ligature2: "'blws' Below Base Substitutions in Tai Tham lookup 15 subtable" plus uniE443
Ligature2: "'blws' Below Base Substitutions in Tai Tham lookup 15 subtable" plus uniE444
Ligature2: "'blws' Below Base Substitutions in Tai Tham lookup 15 subtable" plus uniE445
EndChar

StartChar: hyphen
Encoding: 5 45 6
Width: 264
VWidth: 1000
GlyphClass: 2
Flags: W
HStem: 130 40<35 229>
LayerCount: 2
Fore
SplineSet
35 170 m 1
 229 170 l 1
 229 130 l 1
 35 130 l 1
 35 170 l 1
EndSplineSet
Ligature2: "'blws' Below Base Substitutions in Tai Tham lookup 50 subtable" uniE32B hyphen
Ligature2: "'blws' Below Base Substitutions in Tai Tham lookup 50 subtable" uniE32A hyphen
Ligature2: "'blws' Below Base Substitutions in Tai Tham lookup 50 subtable" uniE325 hyphen
Ligature2: "+BB8EPgQ0BEEEQgQwBD0EPgQyBDoEMAAA +BDsEOAQzBDAEQgRDBEAESwAA lookup 26 subtable" uni25CC hyphen
Ligature2: "'blws' Below Base Substitutions in Tai Tham lookup 24 subtable" hyphen uniE440
MultipleSubs2: "+BBwEPQQ+BDYENQRBBEIEMgQ1BD0EPQQwBE8A +BD8EPgQ0BEEEQgQwBD0EPgQyBDoEMAAA lookup 23 subtable" uni1A72 hyphen
MultipleSubs2: "+BBwEPQQ+BDYENQRBBEIEMgQ1BD0EPQQwBE8A +BD8EPgQ0BEEEQgQwBD0EPgQyBDoEMAAA lookup 22 subtable" uni1A71 hyphen
MultipleSubs2: "+BBwEPQQ+BDYENQRBBEIEMgQ1BD0EPQQwBE8A +BD8EPgQ0BEEEQgQwBD0EPgQyBDoEMAAA lookup 21 subtable" uni1A70 hyphen
MultipleSubs2: "+BBwEPQQ+BDYENQRBBEIEMgQ1BD0EPQQwBE8A +BD8EPgQ0BEEEQgQwBD0EPgQyBDoEMAAA lookup 20 subtable" uni1A6F hyphen
MultipleSubs2: "+BBwEPQQ+BDYENQRBBEIEMgQ1BD0EPQQwBE8A +BD8EPgQ0BEEEQgQwBD0EPgQyBDoEMAAA lookup 19 subtable" uni1A6E hyphen
MultipleSubs2: "+BBwEPQQ+BDYENQRBBEIEMgQ1BD0EPQQwBE8A +BD8EPgQ0BEEEQgQwBD0EPgQyBDoEMAAA lookup 18 subtable" uni1A55 hyphen
Ligature2: "'blws' Below Base Substitutions in Tai Tham lookup 15 subtable" hyphen uniE441
Ligature2: "'blws' Below Base Substitutions in Tai Tham lookup 15 subtable" hyphen uniE442
Ligature2: "'blws' Below Base Substitutions in Tai Tham lookup 15 subtable" hyphen uniE443
Ligature2: "'blws' Below Base Substitutions in Tai Tham lookup 15 subtable" hyphen uniE444
Ligature2: "'blws' Below Base Substitutions in Tai Tham lookup 15 subtable" hyphen uniE445
EndChar

StartChar: period
Encoding: 6 46 7
Width: 155
VWidth: 1000
GlyphClass: 2
Flags: W
HStem: -10 86<48.6216 106.902>
VStem: 35 85<3.98785 62.0121>
LayerCount: 2
Fore
SplineSet
35 33 m 0
 35 57 55 76 78 76 c 0
 101 76 120 57 120 33 c 0
 120 9 101 -10 78 -10 c 0
 55 -10 35 9 35 33 c 0
EndSplineSet
Ligature2: "'blws' Below Base Substitutions in Tai Tham lookup 50 subtable" uniE32B period
Ligature2: "'blws' Below Base Substitutions in Tai Tham lookup 50 subtable" uniE32A period
Ligature2: "'blws' Below Base Substitutions in Tai Tham lookup 50 subtable" uniE325 period
Ligature2: "+BB8EPgQ0BEEEQgQwBD0EPgQyBDoEMAAA +BDsEOAQzBDAEQgRDBEAESwAA lookup 26 subtable" uni25CC period
Ligature2: "'blws' Below Base Substitutions in Tai Tham lookup 24 subtable" period uniE440
Ligature2: "'blws' Below Base Substitutions in Tai Tham lookup 15 subtable" period uniE441
Ligature2: "'blws' Below Base Substitutions in Tai Tham lookup 15 subtable" period uniE442
Ligature2: "'blws' Below Base Substitutions in Tai Tham lookup 15 subtable" period uniE443
Ligature2: "'blws' Below Base Substitutions in Tai Tham lookup 15 subtable" period uniE444
Ligature2: "'blws' Below Base Substitutions in Tai Tham lookup 15 subtable" period uniE445
EndChar

StartChar: zero
Encoding: 7 48 8
Width: 507
VWidth: 1000
GlyphClass: 2
Flags: W
HStem: -10 37<199.429 308.538> 487 41<197.292 310.675>
VStem: 35 36<180.172 339.368> 437 35<180.172 339.368>
LayerCount: 2
Fore
SplineSet
254 528 m 0
 375 528 472 410 472 260 c 0
 472 110 375 -10 254 -10 c 0
 133 -10 35 110 35 260 c 0
 35 410 133 528 254 528 c 0
254 487 m 0
 153 487 71 386 71 260 c 0
 71 134 153 27 254 27 c 0
 355 27 437 134 437 260 c 0
 437 386 355 487 254 487 c 0
EndSplineSet
Ligature2: "'blws' Below Base Substitutions in Tai Tham lookup 50 subtable" uniE32B zero
Ligature2: "'blws' Below Base Substitutions in Tai Tham lookup 50 subtable" uniE32A zero
Ligature2: "'blws' Below Base Substitutions in Tai Tham lookup 50 subtable" uniE325 zero
Ligature2: "+BB8EPgQ0BEEEQgQwBD0EPgQyBDoEMAAA +BDsEOAQzBDAEQgRDBEAESwAA lookup 26 subtable" uni25CC zero
Ligature2: "'blws' Below Base Substitutions in Tai Tham lookup 24 subtable" zero uniE440
Ligature2: "'blws' Below Base Substitutions in Tai Tham lookup 15 subtable" zero uniE441
Ligature2: "'blws' Below Base Substitutions in Tai Tham lookup 15 subtable" zero uniE442
Ligature2: "'blws' Below Base Substitutions in Tai Tham lookup 15 subtable" zero uniE443
Ligature2: "'blws' Below Base Substitutions in Tai Tham lookup 15 subtable" zero uniE444
Ligature2: "'blws' Below Base Substitutions in Tai Tham lookup 15 subtable" zero uniE445
EndChar

StartChar: one
Encoding: 8 49 9
Width: 218
VWidth: 1000
GlyphClass: 2
Flags: W
HStem: 0 40<68 105 145 183> 478 40<42 105>
VStem: 105 40<40 478>
LayerCount: 2
Fore
SplineSet
42 518 m 1
 145 518 l 1
 145 40 l 1
 183 40 l 1
 183 0 l 1
 68 0 l 1
 68 40 l 1
 105 40 l 1
 105 478 l 1
 35 478 l 1
 42 518 l 1
EndSplineSet
Ligature2: "'blws' Below Base Substitutions in Tai Tham lookup 50 subtable" uniE32B one
Ligature2: "'blws' Below Base Substitutions in Tai Tham lookup 50 subtable" uniE32A one
Ligature2: "'blws' Below Base Substitutions in Tai Tham lookup 50 subtable" uniE325 one
Ligature2: "+BB8EPgQ0BEEEQgQwBD0EPgQyBDoEMAAA +BDsEOAQzBDAEQgRDBEAESwAA lookup 26 subtable" uni25CC one
Ligature2: "'blws' Below Base Substitutions in Tai Tham lookup 24 subtable" one uniE440
Ligature2: "'blws' Below Base Substitutions in Tai Tham lookup 15 subtable" one uniE441
Ligature2: "'blws' Below Base Substitutions in Tai Tham lookup 15 subtable" one uniE442
Ligature2: "'blws' Below Base Substitutions in Tai Tham lookup 15 subtable" one uniE443
Ligature2: "'blws' Below Base Substitutions in Tai Tham lookup 15 subtable" one uniE444
Ligature2: "'blws' Below Base Substitutions in Tai Tham lookup 15 subtable" one uniE445
EndChar

StartChar: two
Encoding: 9 50 10
Width: 438
VWidth: 1000
GlyphClass: 2
Flags: W
HStem: 0 40<119 403> 487.852 40.148<133.989 261.031>
VStem: 346 40<309.861 411.654>
LayerCount: 2
Fore
SplineSet
346 358 m 0
 346 456.55610053 252.93123043 487.851950151 199.702282766 487.851950151 c 0
 147.266923163 487.851950151 90.8502876688 464.730517804 71 429 c 1
 37 451 l 1
 64 498 135 528 193 528 c 0
 305.658314511 528 386 455.543994014 386 358 c 0
 386 212.554729546 171.468420623 72.1580642529 119 40 c 1
 403 41 l 1
 403 1 l 1
 35 0 l 1
 35 40 l 1
 106.060606061 78.2634032634 134 93.3076923077 197 145 c 0
 274 208 346 292 346 358 c 0
EndSplineSet
Ligature2: "'blws' Below Base Substitutions in Tai Tham lookup 50 subtable" uniE32B two
Ligature2: "'blws' Below Base Substitutions in Tai Tham lookup 50 subtable" uniE32A two
Ligature2: "'blws' Below Base Substitutions in Tai Tham lookup 50 subtable" uniE325 two
Ligature2: "+BB8EPgQ0BEEEQgQwBD0EPgQyBDoEMAAA +BDsEOAQzBDAEQgRDBEAESwAA lookup 26 subtable" uni25CC two
Ligature2: "'blws' Below Base Substitutions in Tai Tham lookup 24 subtable" two uniE440
Ligature2: "'blws' Below Base Substitutions in Tai Tham lookup 15 subtable" two uniE441
Ligature2: "'blws' Below Base Substitutions in Tai Tham lookup 15 subtable" two uniE442
Ligature2: "'blws' Below Base Substitutions in Tai Tham lookup 15 subtable" two uniE443
Ligature2: "'blws' Below Base Substitutions in Tai Tham lookup 15 subtable" two uniE444
Ligature2: "'blws' Below Base Substitutions in Tai Tham lookup 15 subtable" two uniE445
EndChar

StartChar: three
Encoding: 10 51 11
Width: 458
VWidth: 1000
GlyphClass: 2
Flags: W
HStem: -10.7166 40.1542<154.815 295.05> 294.75 40.25<219 290.076> 477 40<120 296>
VStem: 383 40<108.809 214.734>
LayerCount: 2
Fore
SplineSet
383 158 m 0
 383 211.917236633 358.594313253 294.75 208.625 294.75 c 0
 188.5 294.75 175 293 175 293 c 1
 120 286 l 1
 177.857552551 350.475780783 237.352598357 413.314068309 296 477 c 1
 114 478 l 1
 120 518 l 1
 388 517 l 1
 219 335 l 1
 292.690990297 331.490905224 423 304.564302331 423 158 c 0
 423 68.1067856664 348.345448698 -10.7166018465 226.028506205 -10.7166018465 c 0
 104.821178895 -10.7166018465 46.2782085204 62.0885794807 35 80 c 1
 69 101 l 1
 69.8690818738 99.4989745757 112.930082064 29.4376417234 226.995680812 29.4376417234 c 0
 323.537872266 29.4376417234 383 88.4446060121 383 158 c 0
EndSplineSet
Ligature2: "'blws' Below Base Substitutions in Tai Tham lookup 50 subtable" uniE32B three
Ligature2: "'blws' Below Base Substitutions in Tai Tham lookup 50 subtable" uniE32A three
Ligature2: "'blws' Below Base Substitutions in Tai Tham lookup 50 subtable" uniE325 three
Ligature2: "+BB8EPgQ0BEEEQgQwBD0EPgQyBDoEMAAA +BDsEOAQzBDAEQgRDBEAESwAA lookup 26 subtable" uni25CC three
Ligature2: "'blws' Below Base Substitutions in Tai Tham lookup 24 subtable" three uniE440
Ligature2: "'blws' Below Base Substitutions in Tai Tham lookup 15 subtable" three uniE441
Ligature2: "'blws' Below Base Substitutions in Tai Tham lookup 15 subtable" three uniE442
Ligature2: "'blws' Below Base Substitutions in Tai Tham lookup 15 subtable" three uniE443
Ligature2: "'blws' Below Base Substitutions in Tai Tham lookup 15 subtable" three uniE444
Ligature2: "'blws' Below Base Substitutions in Tai Tham lookup 15 subtable" three uniE445
EndChar

StartChar: four
Encoding: 11 52 12
Width: 452
VWidth: 1000
GlyphClass: 2
Flags: W
HStem: 0 21G<295 335> 110 40<101 295 335 417> 280 20G<295 335> 509 20G<246.403 292>
VStem: 295 40<0 110 150 300>
LayerCount: 2
Fore
SplineSet
257 529 m 1
 292 510 l 1
 101 150 l 1
 295 150 l 1
 295 300 l 1
 335 300 l 1
 335 150 l 1
 417 150 l 1
 417 110 l 1
 335 110 l 1
 335 0 l 1
 295 0 l 1
 295 110 l 1
 35 110 l 1
 257 529 l 1
EndSplineSet
Ligature2: "'blws' Below Base Substitutions in Tai Tham lookup 50 subtable" uniE32B four
Ligature2: "'blws' Below Base Substitutions in Tai Tham lookup 50 subtable" uniE32A four
Ligature2: "'blws' Below Base Substitutions in Tai Tham lookup 50 subtable" uniE325 four
Ligature2: "+BB8EPgQ0BEEEQgQwBD0EPgQyBDoEMAAA +BDsEOAQzBDAEQgRDBEAESwAA lookup 26 subtable" uni25CC four
Ligature2: "'blws' Below Base Substitutions in Tai Tham lookup 24 subtable" four uniE440
Ligature2: "'blws' Below Base Substitutions in Tai Tham lookup 15 subtable" four uniE441
Ligature2: "'blws' Below Base Substitutions in Tai Tham lookup 15 subtable" four uniE442
Ligature2: "'blws' Below Base Substitutions in Tai Tham lookup 15 subtable" four uniE443
Ligature2: "'blws' Below Base Substitutions in Tai Tham lookup 15 subtable" four uniE444
Ligature2: "'blws' Below Base Substitutions in Tai Tham lookup 15 subtable" four uniE445
EndChar

StartChar: five
Encoding: 12 53 13
Width: 449
VWidth: 1000
GlyphClass: 2
Flags: W
HStem: -10 40<162.548 298.489> 301.031 39.9996<129.812 278.836> 478 40<144 398>
VStem: 374.047 39.9892<102.661 217.465>
LayerCount: 2
Fore
SplineSet
374.047094739 154.476029073 m 0
 374.047094739 228.403575064 337.158331087 301.030933968 192.189753486 301.030933968 c 0
 146.406900654 301.030933968 110 293 110 293 c 1
 83 288 l 1
 108 517 l 1
 408 518 l 1
 398 478 l 1
 144 477 l 1
 129 337 l 1
 144.128747865 339.161249695 164.512371004 341.030561875 187.627069955 341.030561875 c 0
 257.318037559 341.030561875 414.036275051 322.366224866 414.036275051 154.486466103 c 0
 414.036275051 59.2902863436 333.909775392 -10 245 -10 c 0
 172 -10 119 11 85 33 c 0
 51 55 35 79 35 79 c 1
 68 102 l 1
 75.8218478952 89.9125881349 129.549287434 30 245 30 c 0
 312.914267153 30 374.047094739 81.3451852968 374.047094739 154.476029073 c 0
EndSplineSet
Ligature2: "'blws' Below Base Substitutions in Tai Tham lookup 50 subtable" uniE32B five
Ligature2: "'blws' Below Base Substitutions in Tai Tham lookup 50 subtable" uniE32A five
Ligature2: "'blws' Below Base Substitutions in Tai Tham lookup 50 subtable" uniE325 five
Ligature2: "+BB8EPgQ0BEEEQgQwBD0EPgQyBDoEMAAA +BDsEOAQzBDAEQgRDBEAESwAA lookup 26 subtable" uni25CC five
Ligature2: "'blws' Below Base Substitutions in Tai Tham lookup 24 subtable" five uniE440
Ligature2: "'blws' Below Base Substitutions in Tai Tham lookup 15 subtable" five uniE441
Ligature2: "'blws' Below Base Substitutions in Tai Tham lookup 15 subtable" five uniE442
Ligature2: "'blws' Below Base Substitutions in Tai Tham lookup 15 subtable" five uniE443
Ligature2: "'blws' Below Base Substitutions in Tai Tham lookup 15 subtable" five uniE444
Ligature2: "'blws' Below Base Substitutions in Tai Tham lookup 15 subtable" five uniE445
EndChar

StartChar: six
Encoding: 13 54 14
Width: 441
VWidth: 1000
GlyphClass: 2
Flags: W
HStem: -10 40<162.805 279.977> 298 40<162.015 279.977> 488 40<286.207 328.577>
VStem: 34.5536 44.4464<112.348 215.855> 363 43<112.069 215.931>
LayerCount: 2
Fore
SplineSet
328 528 m 1
 334 488 l 1
 218 471 119 392 86 282 c 1
 120 316 168 338 221 338 c 0
 323 338 406 260 406 164 c 0
 406 68 323 -10 221 -10 c 0
 121 -10 44 66 36 159 c 0
 35.0287144535 169.855544343 34.5536092985 180.593572278 34.5536092985 191.196738698 c 0
 34.5536092985 366.176308261 163.941393241 504.428361098 328 528 c 1
221 298 m 0
 142 298 79 238 79 164 c 0
 79 90 142 30 221 30 c 0
 300 30 363 90 363 164 c 0
 363 238 300 298 221 298 c 0
EndSplineSet
Ligature2: "'blws' Below Base Substitutions in Tai Tham lookup 50 subtable" uniE32B six
Ligature2: "'blws' Below Base Substitutions in Tai Tham lookup 50 subtable" uniE32A six
Ligature2: "'blws' Below Base Substitutions in Tai Tham lookup 50 subtable" uniE325 six
Ligature2: "+BB8EPgQ0BEEEQgQwBD0EPgQyBDoEMAAA +BDsEOAQzBDAEQgRDBEAESwAA lookup 26 subtable" uni25CC six
Ligature2: "'blws' Below Base Substitutions in Tai Tham lookup 24 subtable" six uniE440
Ligature2: "'blws' Below Base Substitutions in Tai Tham lookup 15 subtable" six uniE441
Ligature2: "'blws' Below Base Substitutions in Tai Tham lookup 15 subtable" six uniE442
Ligature2: "'blws' Below Base Substitutions in Tai Tham lookup 15 subtable" six uniE443
Ligature2: "'blws' Below Base Substitutions in Tai Tham lookup 15 subtable" six uniE444
Ligature2: "'blws' Below Base Substitutions in Tai Tham lookup 15 subtable" six uniE445
EndChar

StartChar: seven
Encoding: 14 55 15
Width: 409
VWidth: 1000
GlyphClass: 2
Flags: W
HStem: -11 21G<106 150.755> 479 40<43 313>
LayerCount: 2
Fore
SplineSet
43 519 m 1
 374 519 l 1
 142 -11 l 1
 106 5 l 1
 313 479 l 1
 35 479 l 1
 43 519 l 1
EndSplineSet
Ligature2: "'blws' Below Base Substitutions in Tai Tham lookup 50 subtable" uniE32B seven
Ligature2: "'blws' Below Base Substitutions in Tai Tham lookup 50 subtable" uniE32A seven
Ligature2: "'blws' Below Base Substitutions in Tai Tham lookup 50 subtable" uniE325 seven
Ligature2: "+BB8EPgQ0BEEEQgQwBD0EPgQyBDoEMAAA +BDsEOAQzBDAEQgRDBEAESwAA lookup 26 subtable" uni25CC seven
Ligature2: "'blws' Below Base Substitutions in Tai Tham lookup 24 subtable" seven uniE440
Ligature2: "'blws' Below Base Substitutions in Tai Tham lookup 15 subtable" seven uniE441
Ligature2: "'blws' Below Base Substitutions in Tai Tham lookup 15 subtable" seven uniE442
Ligature2: "'blws' Below Base Substitutions in Tai Tham lookup 15 subtable" seven uniE443
Ligature2: "'blws' Below Base Substitutions in Tai Tham lookup 15 subtable" seven uniE444
Ligature2: "'blws' Below Base Substitutions in Tai Tham lookup 15 subtable" seven uniE445
EndChar

StartChar: eight
Encoding: 15 56 16
Width: 411
VWidth: 1000
GlyphClass: 2
Flags: W
HStem: -10 38<149.903 260.247> 488 40<156.99 251.072>
VStem: 35 42<96.7908 191.261> 66 40<346.903 436.664> 302 41<346.041 436.664> 334 42<96.7908 190.61>
LayerCount: 2
Fore
SplineSet
204 528 m 0xd0
 280 528 343 467 343 392 c 0xd8
 343 345 318 303 281 279 c 1
 337 254 376 203 376 143 c 0
 376 59 299 -10 205 -10 c 0
 111 -10 35 59 35 143 c 0xe4
 35 202 73 253 128 278 c 1
 90 302 66 345 66 392 c 0
 66 467 128 528 204 528 c 0xd0
204 488 m 0
 150 488 106 445 106 392 c 0
 106 339 150 296 204 296 c 0
 258 296 302 339 302 392 c 0
 302 445 258 488 204 488 c 0
218 257 m 0
 209 256 200 256 191 257 c 0
 126 251 77 202 77 143 c 0
 77 80 134 28 205 28 c 0
 276 28 334 80 334 143 c 0xe4
 334 203 283 251 218 257 c 0
EndSplineSet
Ligature2: "'blws' Below Base Substitutions in Tai Tham lookup 50 subtable" uniE32B eight
Ligature2: "'blws' Below Base Substitutions in Tai Tham lookup 50 subtable" uniE32A eight
Ligature2: "'blws' Below Base Substitutions in Tai Tham lookup 50 subtable" uniE325 eight
Ligature2: "+BB8EPgQ0BEEEQgQwBD0EPgQyBDoEMAAA +BDsEOAQzBDAEQgRDBEAESwAA lookup 26 subtable" uni25CC eight
Ligature2: "'blws' Below Base Substitutions in Tai Tham lookup 24 subtable" eight uniE440
Ligature2: "'blws' Below Base Substitutions in Tai Tham lookup 15 subtable" eight uniE441
Ligature2: "'blws' Below Base Substitutions in Tai Tham lookup 15 subtable" eight uniE442
Ligature2: "'blws' Below Base Substitutions in Tai Tham lookup 15 subtable" eight uniE443
Ligature2: "'blws' Below Base Substitutions in Tai Tham lookup 15 subtable" eight uniE444
Ligature2: "'blws' Below Base Substitutions in Tai Tham lookup 15 subtable" eight uniE445
EndChar

StartChar: nine
Encoding: 16 57 17
Width: 441
VWidth: 1000
GlyphClass: 2
Flags: W
HStem: -10 39<112.408 154.793> 180 40<160.936 278.985> 488 40<160.936 278.195>
VStem: 35 42<302.069 405.931> 362 44.4464<302.145 405.652>
LayerCount: 2
Fore
SplineSet
113 -10 m 1
 107 29 l 1
 223 46 322 126 355 236 c 1
 321 202 273 180 220 180 c 0
 118 180 35 258 35 354 c 0
 35 450 118 528 220 528 c 0
 320 528 397 452 405 359 c 0
 405.971285546 348.144455657 406.446390701 337.406427722 406.446390701 326.803261302 c 0
 406.446390701 151.823691739 277.058606759 13.5716389022 113 -10 c 1
220 220 m 0
 299 220 362 280 362 354 c 0
 362 428 299 488 220 488 c 0
 141 488 77 428 77 354 c 0
 77 280 141 220 220 220 c 0
EndSplineSet
Ligature2: "'blws' Below Base Substitutions in Tai Tham lookup 50 subtable" uniE32B nine
Ligature2: "'blws' Below Base Substitutions in Tai Tham lookup 50 subtable" uniE32A nine
Ligature2: "'blws' Below Base Substitutions in Tai Tham lookup 50 subtable" uniE325 nine
Ligature2: "+BB8EPgQ0BEEEQgQwBD0EPgQyBDoEMAAA +BDsEOAQzBDAEQgRDBEAESwAA lookup 26 subtable" uni25CC nine
Ligature2: "'blws' Below Base Substitutions in Tai Tham lookup 24 subtable" nine uniE440
Ligature2: "'blws' Below Base Substitutions in Tai Tham lookup 15 subtable" nine uniE441
Ligature2: "'blws' Below Base Substitutions in Tai Tham lookup 15 subtable" nine uniE442
Ligature2: "'blws' Below Base Substitutions in Tai Tham lookup 15 subtable" nine uniE443
Ligature2: "'blws' Below Base Substitutions in Tai Tham lookup 15 subtable" nine uniE444
Ligature2: "'blws' Below Base Substitutions in Tai Tham lookup 15 subtable" nine uniE445
EndChar

StartChar: A
Encoding: 17 65 18
Width: 576
VWidth: 1000
GlyphClass: 2
Flags: W
HStem: -9 21G<35 80.6855 495.566 541> 150 40<168 411>
LayerCount: 2
Fore
SplineSet
291 534 m 1
 541 9 l 1
 505 -9 l 1
 430 150 l 1
 148 150 l 1
 71 -9 l 1
 35 9 l 1
 291 534 l 1
291 442 m 1
 168 190 l 1
 411 190 l 1
 291 442 l 1
EndSplineSet
Ligature2: "'blws' Below Base Substitutions in Tai Tham lookup 50 subtable" uniE32B A
Ligature2: "'blws' Below Base Substitutions in Tai Tham lookup 50 subtable" uniE32A A
Ligature2: "'blws' Below Base Substitutions in Tai Tham lookup 50 subtable" uniE325 A
Ligature2: "+BB8EPgQ0BEEEQgQwBD0EPgQyBDoEMAAA +BDsEOAQzBDAEQgRDBEAESwAA lookup 26 subtable" uni25CC A
Ligature2: "'blws' Below Base Substitutions in Tai Tham lookup 24 subtable" A uniE440
Ligature2: "'blws' Below Base Substitutions in Tai Tham lookup 15 subtable" A uniE441
Ligature2: "'blws' Below Base Substitutions in Tai Tham lookup 15 subtable" A uniE442
Ligature2: "'blws' Below Base Substitutions in Tai Tham lookup 15 subtable" A uniE443
Ligature2: "'blws' Below Base Substitutions in Tai Tham lookup 15 subtable" A uniE444
Ligature2: "'blws' Below Base Substitutions in Tai Tham lookup 15 subtable" A uniE445
EndChar

StartChar: B
Encoding: 18 66 19
Width: 412
VWidth: 1000
GlyphClass: 2
Flags: W
HStem: 0.951457 39.0485<75 277.187> 250 40<75 267.563> 476 40<75 245.918>
VStem: 35 40<40 250 290 476> 307.014 37.997<332.473 424.013> 337 40.0456<93.5555 194.072>
LayerCount: 2
Fore
SplineSet
35 516 m 1xf4
 194 516 l 1
 277.389600835 514.014533313 345.010889817 458.811014121 345.010889817 378.761826134 c 0xf8
 345.010889817 329.178463968 330.163817874 313.094136031 295 275 c 1
 340.806806242 257.822447659 377.045615828 205.283348675 377.045615828 140.133277693 c 0
 377.045615828 58.5516479399 315.787751793 0.951456523343 235.068311335 0.951456523343 c 0
 233.71759172 0.951456523343 232.361422662 0.967585174705 231 1 c 2
 35 0 l 1
 35 516 l 1xf4
75 476 m 1
 75 290 l 1
 233 290 l 2
 272.259738543 290 307.013924017 332.240134039 307.013924017 379.667030572 c 0
 307.013924017 438.684679662 254.414449404 475.009294454 192 476 c 2
 75 476 l 1
75 250 m 1
 75 40 l 1
 227 40 l 1
 288 43 337 78 337 144 c 0xf4
 337 208 291 246 231 250 c 1
 75 250 l 1
EndSplineSet
LCarets2: 1 0
Ligature2: "'blws' Below Base Substitutions in Tai Tham lookup 50 subtable" uniE32B B
Ligature2: "'blws' Below Base Substitutions in Tai Tham lookup 50 subtable" uniE32A B
Ligature2: "'blws' Below Base Substitutions in Tai Tham lookup 50 subtable" uniE325 B
Ligature2: "+BB8EPgQ0BEEEQgQwBD0EPgQyBDoEMAAA +BDsEOAQzBDAEQgRDBEAESwAA lookup 26 subtable" uni25CC B
Ligature2: "'blws' Below Base Substitutions in Tai Tham lookup 24 subtable" B uniE440
Ligature2: "'blws' Below Base Substitutions in Tai Tham lookup 15 subtable" B uniE441
Ligature2: "'blws' Below Base Substitutions in Tai Tham lookup 15 subtable" B uniE442
Ligature2: "'blws' Below Base Substitutions in Tai Tham lookup 15 subtable" B uniE443
Ligature2: "'blws' Below Base Substitutions in Tai Tham lookup 15 subtable" B uniE444
Ligature2: "'blws' Below Base Substitutions in Tai Tham lookup 15 subtable" B uniE445
EndChar

StartChar: C
Encoding: 19 67 20
Width: 538
VWidth: 1000
GlyphClass: 2
Flags: W
HStem: -10 40<225.845 365.686> 489 40<225.138 364.445>
VStem: 35 41<186.361 333.547>
LayerCount: 2
Fore
SplineSet
298 529 m 0
 379 528 452 491 500 430 c 1
 500 429 l 1
 469 403 l 1
 428 455 366 489 296 489 c 0
 174 489 76 387 76 260 c 0
 76 133 174 30 296 30 c 0
 367 30 431 64 471 118 c 1
 471 119 l 1
 472 119 l 1
 503 93 l 1
 502 92 l 1
 454 30 381 -9 298 -10 c 0
 154 -10 35 112 35 260 c 0
 35 408 150 529 298 529 c 0
EndSplineSet
Ligature2: "'blws' Below Base Substitutions in Tai Tham lookup 50 subtable" uniE32B C
Ligature2: "'blws' Below Base Substitutions in Tai Tham lookup 50 subtable" uniE32A C
Ligature2: "'blws' Below Base Substitutions in Tai Tham lookup 50 subtable" uniE325 C
Ligature2: "+BB8EPgQ0BEEEQgQwBD0EPgQyBDoEMAAA +BDsEOAQzBDAEQgRDBEAESwAA lookup 26 subtable" uni25CC C
Ligature2: "'blws' Below Base Substitutions in Tai Tham lookup 24 subtable" C uniE440
Ligature2: "'blws' Below Base Substitutions in Tai Tham lookup 15 subtable" C uniE441
Ligature2: "'blws' Below Base Substitutions in Tai Tham lookup 15 subtable" C uniE442
Ligature2: "'blws' Below Base Substitutions in Tai Tham lookup 15 subtable" C uniE443
Ligature2: "'blws' Below Base Substitutions in Tai Tham lookup 15 subtable" C uniE444
Ligature2: "'blws' Below Base Substitutions in Tai Tham lookup 15 subtable" C uniE445
EndChar

StartChar: D
Encoding: 20 68 21
Width: 509
VWidth: 1000
GlyphClass: 2
Flags: W
HStem: -1.00766 40.0077<75 286.333> 478 40<75 260.933>
VStem: 35 40<40 478> 434 40<175.132 318.357>
LayerCount: 2
Fore
SplineSet
186 478 m 2
 75 478 l 1
 75 40 l 1
 210 39 l 2
 332 39 434 117 434 243 c 0
 434 390 315 478 186 478 c 2
186 518 m 2
 334 518 474 412 474 243 c 0
 474 95.7560281368 350.273812717 -1.00765931479 212.129049584 -1.00765931479 c 0
 211.41974158 -1.00765931479 210.710053453 -1.00510829822 210 -1 c 2
 35 0 l 1
 35 518 l 1
 186 518 l 2
EndSplineSet
Ligature2: "'blws' Below Base Substitutions in Tai Tham lookup 50 subtable" uniE32B D
Ligature2: "'blws' Below Base Substitutions in Tai Tham lookup 50 subtable" uniE32A D
Ligature2: "'blws' Below Base Substitutions in Tai Tham lookup 50 subtable" uniE325 D
Ligature2: "+BB8EPgQ0BEEEQgQwBD0EPgQyBDoEMAAA +BDsEOAQzBDAEQgRDBEAESwAA lookup 26 subtable" uni25CC D
Ligature2: "'blws' Below Base Substitutions in Tai Tham lookup 24 subtable" D uniE440
Ligature2: "'blws' Below Base Substitutions in Tai Tham lookup 15 subtable" D uniE441
Ligature2: "'blws' Below Base Substitutions in Tai Tham lookup 15 subtable" D uniE442
Ligature2: "'blws' Below Base Substitutions in Tai Tham lookup 15 subtable" D uniE443
Ligature2: "'blws' Below Base Substitutions in Tai Tham lookup 15 subtable" D uniE444
Ligature2: "'blws' Below Base Substitutions in Tai Tham lookup 15 subtable" D uniE445
EndChar

StartChar: E
Encoding: 21 69 22
Width: 457
VWidth: 1000
GlyphClass: 2
Flags: W
HStem: 0 40<76 422> 250 40<76 284> 478 41<76 382>
VStem: 35 41<40 250 290 478>
LayerCount: 2
Fore
SplineSet
382 478 m 1
 76 478 l 1
 76 290 l 1
 284 290 l 1
 284 250 l 1
 76 250 l 1
 76 40 l 1
 422 40 l 1
 422 0 l 1
 35 0 l 1
 35 519 l 1
 382 519 l 1
 382 478 l 1
EndSplineSet
Ligature2: "'blws' Below Base Substitutions in Tai Tham lookup 50 subtable" uniE32B E
Ligature2: "'blws' Below Base Substitutions in Tai Tham lookup 50 subtable" uniE32A E
Ligature2: "'blws' Below Base Substitutions in Tai Tham lookup 50 subtable" uniE325 E
Ligature2: "+BB8EPgQ0BEEEQgQwBD0EPgQyBDoEMAAA +BDsEOAQzBDAEQgRDBEAESwAA lookup 26 subtable" uni25CC E
Ligature2: "'blws' Below Base Substitutions in Tai Tham lookup 24 subtable" E uniE440
Ligature2: "'blws' Below Base Substitutions in Tai Tham lookup 15 subtable" E uniE441
Ligature2: "'blws' Below Base Substitutions in Tai Tham lookup 15 subtable" E uniE442
Ligature2: "'blws' Below Base Substitutions in Tai Tham lookup 15 subtable" E uniE443
Ligature2: "'blws' Below Base Substitutions in Tai Tham lookup 15 subtable" E uniE444
Ligature2: "'blws' Below Base Substitutions in Tai Tham lookup 15 subtable" E uniE445
EndChar

StartChar: F
Encoding: 22 70 23
Width: 417
VWidth: 1000
GlyphClass: 2
Flags: W
HStem: 0 21G<35 76> 250 40<76 284> 478 41<76 382>
VStem: 35 41<0 250 290 478>
LayerCount: 2
Fore
SplineSet
382 478 m 1
 76 478 l 1
 76 290 l 1
 284 290 l 1
 284 250 l 1
 76 250 l 1
 76 0 l 1
 35 0 l 1
 35 519 l 1
 382 519 l 1
 382 478 l 1
EndSplineSet
Ligature2: "'blws' Below Base Substitutions in Tai Tham lookup 50 subtable" uniE32B F
Ligature2: "'blws' Below Base Substitutions in Tai Tham lookup 50 subtable" uniE32A F
Ligature2: "'blws' Below Base Substitutions in Tai Tham lookup 50 subtable" uniE325 F
Ligature2: "+BB8EPgQ0BEEEQgQwBD0EPgQyBDoEMAAA +BDsEOAQzBDAEQgRDBEAESwAA lookup 26 subtable" uni25CC F
Ligature2: "'blws' Below Base Substitutions in Tai Tham lookup 24 subtable" F uniE440
Ligature2: "'blws' Below Base Substitutions in Tai Tham lookup 15 subtable" F uniE441
Ligature2: "'blws' Below Base Substitutions in Tai Tham lookup 15 subtable" F uniE442
Ligature2: "'blws' Below Base Substitutions in Tai Tham lookup 15 subtable" F uniE443
Ligature2: "'blws' Below Base Substitutions in Tai Tham lookup 15 subtable" F uniE444
Ligature2: "'blws' Below Base Substitutions in Tai Tham lookup 15 subtable" F uniE445
EndChar

StartChar: U
Encoding: 23 85 24
Width: 531
VWidth: 1000
GlyphClass: 2
Flags: W
HStem: -10 40.9904<199.745 334.192> 499 20G<35 77 455 496>
VStem: 36 41<155.253 519> 456 40<153.585 519>
LayerCount: 2
Fore
SplineSet
77 214 m 1
 81.0385352807 105.96918124 164.477889835 30.9903719343 266.963670688 30.9903719343 c 0
 368.126850084 30.9903719343 455.00642295 107.687255654 456 214 c 1
 455 519 l 1
 496 519 l 1
 496 214 l 2
 496 77 377 -10 266 -10 c 0
 147 -10 37 82 36 214 c 2
 35 519 l 1
 77 519 l 1
 77 214 l 1
EndSplineSet
Ligature2: "'blws' Below Base Substitutions in Tai Tham lookup 50 subtable" uniE32B U
Ligature2: "'blws' Below Base Substitutions in Tai Tham lookup 50 subtable" uniE32A U
Ligature2: "'blws' Below Base Substitutions in Tai Tham lookup 50 subtable" uniE325 U
Ligature2: "+BB8EPgQ0BEEEQgQwBD0EPgQyBDoEMAAA +BDsEOAQzBDAEQgRDBEAESwAA lookup 26 subtable" uni25CC U
Ligature2: "'blws' Below Base Substitutions in Tai Tham lookup 24 subtable" U uniE440
Ligature2: "'blws' Below Base Substitutions in Tai Tham lookup 15 subtable" U uniE441
Ligature2: "'blws' Below Base Substitutions in Tai Tham lookup 15 subtable" U uniE442
Ligature2: "'blws' Below Base Substitutions in Tai Tham lookup 15 subtable" U uniE443
Ligature2: "'blws' Below Base Substitutions in Tai Tham lookup 15 subtable" U uniE444
Ligature2: "'blws' Below Base Substitutions in Tai Tham lookup 15 subtable" U uniE445
EndChar

StartChar: bracketleft
Encoding: 24 91 25
Width: 257
VWidth: 1000
GlyphClass: 2
Flags: W
HStem: -52 40<110 186> 536 40<110 186>
VStem: 70 116<-52 -12 536 576> 70 40<-12 536>
LayerCount: 2
Fore
SplineSet
70 -52 m 1xe0
 70 576 l 1
 186 576 l 1
 186 536 l 1xe0
 110 536 l 1
 110 -12 l 1xd0
 186 -12 l 1
 186 -52 l 1
 70 -52 l 1xe0
EndSplineSet
Ligature2: "'blws' Below Base Substitutions in Tai Tham lookup 50 subtable" uniE32B bracketleft
Ligature2: "'blws' Below Base Substitutions in Tai Tham lookup 50 subtable" uniE32A bracketleft
Ligature2: "'blws' Below Base Substitutions in Tai Tham lookup 50 subtable" uniE325 bracketleft
Ligature2: "+BB8EPgQ0BEEEQgQwBD0EPgQyBDoEMAAA +BDsEOAQzBDAEQgRDBEAESwAA lookup 26 subtable" uni25CC bracketleft
Ligature2: "'blws' Below Base Substitutions in Tai Tham lookup 24 subtable" bracketleft uniE440
Ligature2: "'blws' Below Base Substitutions in Tai Tham lookup 15 subtable" bracketleft uniE441
Ligature2: "'blws' Below Base Substitutions in Tai Tham lookup 15 subtable" bracketleft uniE442
Ligature2: "'blws' Below Base Substitutions in Tai Tham lookup 15 subtable" bracketleft uniE443
Ligature2: "'blws' Below Base Substitutions in Tai Tham lookup 15 subtable" bracketleft uniE444
Ligature2: "'blws' Below Base Substitutions in Tai Tham lookup 15 subtable" bracketleft uniE445
EndChar

StartChar: bracketright
Encoding: 25 93 26
Width: 256
VWidth: 1000
GlyphClass: 2
Flags: W
VStem: 70 116
LayerCount: 2
Fore
SplineSet
186 -52 m 1
 186 576 l 1
 70 576 l 1
 70 536 l 1
 146 536 l 1
 146 -12 l 1
 70 -12 l 1
 70 -52 l 1
 186 -52 l 1
EndSplineSet
Ligature2: "'blws' Below Base Substitutions in Tai Tham lookup 50 subtable" uniE32B bracketright
Ligature2: "'blws' Below Base Substitutions in Tai Tham lookup 50 subtable" uniE32A bracketright
Ligature2: "'blws' Below Base Substitutions in Tai Tham lookup 50 subtable" uniE325 bracketright
Ligature2: "+BB8EPgQ0BEEEQgQwBD0EPgQyBDoEMAAA +BDsEOAQzBDAEQgRDBEAESwAA lookup 26 subtable" uni25CC bracketright
Ligature2: "'blws' Below Base Substitutions in Tai Tham lookup 24 subtable" bracketright uniE440
Ligature2: "'blws' Below Base Substitutions in Tai Tham lookup 15 subtable" bracketright uniE441
Ligature2: "'blws' Below Base Substitutions in Tai Tham lookup 15 subtable" bracketright uniE442
Ligature2: "'blws' Below Base Substitutions in Tai Tham lookup 15 subtable" bracketright uniE443
Ligature2: "'blws' Below Base Substitutions in Tai Tham lookup 15 subtable" bracketright uniE444
Ligature2: "'blws' Below Base Substitutions in Tai Tham lookup 15 subtable" bracketright uniE445
EndChar

StartChar: u
Encoding: 26 117 27
Width: 364
VWidth: 1000
GlyphClass: 2
Flags: W
HStem: -10.0314 40.0161<131.741 227.173> 0 21G<287.999 329> 280 20G<35 76 288 329>
VStem: 35 41<88.2367 300> 288 41<0 40.8047 90.7698 300>
LayerCount: 2
Fore
SplineSet
180.071273559 29.984659707 m 0xb8
 236.188160694 29.984659707 288 76.5726507997 288 139 c 2
 288 300 l 1
 329 300 l 1
 329 0 l 1
 287.999023438 0 l 1x78
 287.999023438 40.8046875 l 1
 279.158915983 30.340947975 243.58800904 -10.0314272566 184.824762387 -10.0314272566 c 0
 91.7083515864 -10.0314272566 35 54.3158989043 35 142 c 2
 35 300 l 1
 76 300 l 1
 76 142 l 2
 76 77.6654901204 118.124012767 29.984659707 180.071273559 29.984659707 c 0xb8
EndSplineSet
Ligature2: "'blws' Below Base Substitutions in Tai Tham lookup 50 subtable" uniE32B u
Ligature2: "'blws' Below Base Substitutions in Tai Tham lookup 50 subtable" uniE32A u
Ligature2: "'blws' Below Base Substitutions in Tai Tham lookup 50 subtable" uniE325 u
Ligature2: "+BB8EPgQ0BEEEQgQwBD0EPgQyBDoEMAAA +BDsEOAQzBDAEQgRDBEAESwAA lookup 26 subtable" uni25CC u
Ligature2: "'blws' Below Base Substitutions in Tai Tham lookup 24 subtable" u uniE440
Ligature2: "'blws' Below Base Substitutions in Tai Tham lookup 15 subtable" u uniE441
Ligature2: "'blws' Below Base Substitutions in Tai Tham lookup 15 subtable" u uniE442
Ligature2: "'blws' Below Base Substitutions in Tai Tham lookup 15 subtable" u uniE443
Ligature2: "'blws' Below Base Substitutions in Tai Tham lookup 15 subtable" u uniE444
Ligature2: "'blws' Below Base Substitutions in Tai Tham lookup 15 subtable" u uniE445
EndChar

StartChar: x
Encoding: 27 120 28
Width: 370
VWidth: 1000
GlyphClass: 2
Flags: W
HStem: -11 21G<43.2857 82.4733 288.374 327.714> 290 20G<43.2857 82.4733 288.374 327.714>
AnchorPoint: "+BBEENQQ3BEsEPARPBD0EPQQ+BDUA--23" 196 -45 basechar 0
AnchorPoint: "+BBEENQQ3BEsEPARPBD0EPQQ+BDUA--9" 254 -45 basechar 0
AnchorPoint: "+BBEENQQ3BEsEPARPBD0EPQQ+BDUA--8" 237 -45 basechar 0
AnchorPoint: "+BBEENQQ3BEsEPARPBD0EPQQ+BDUA--7" 196 -45 basechar 0
AnchorPoint: "+BBEENQQ3BEsEPARPBD0EPQQ+BDUA--6" 349 -45 basechar 0
AnchorPoint: "+BBEENQQ3BEsEPARPBD0EPQQ+BDUA--5" 203 352 basechar 0
AnchorPoint: "+BBEENQQ3BEsEPARPBD0EPQQ+BDUA--4" 358 352 basechar 0
AnchorPoint: "+BBEENQQ3BEsEPARPBD0EPQQ+BDUA--3" 246 352 basechar 0
AnchorPoint: "+BBEENQQ3BEsEPARPBD0EPQQ+BDUA--2" 246 352 basechar 0
AnchorPoint: "+BBEENQQ3BEsEPARPBD0EPQQ+BDUA--1" 190 352 basechar 0
AnchorPoint: "+BBEENQQ3BEsEPARPBD0EPQQ+BDUA--0" 216 352 basechar 0
LayerCount: 2
Fore
SplineSet
64 310 m 1
 185 179 l 1
 307 310 l 1
 336 282 l 1
 213 150 l 1
 336 17 l 1
 307 -11 l 1
 185 120 l 1
 64 -11 l 1
 35 17 l 1
 158 150 l 1
 35 282 l 1
 64 310 l 1
EndSplineSet
Ligature2: "'blws' Below Base Substitutions in Tai Tham lookup 50 subtable" uniE32B x
Ligature2: "'blws' Below Base Substitutions in Tai Tham lookup 50 subtable" uniE32A x
Ligature2: "'blws' Below Base Substitutions in Tai Tham lookup 50 subtable" uniE325 x
Ligature2: "+BB8EPgQ0BEEEQgQwBD0EPgQyBDoEMAAA +BDsEOAQzBDAEQgRDBEAESwAA lookup 26 subtable" uni25CC x
Ligature2: "'blws' Below Base Substitutions in Tai Tham lookup 24 subtable" x uniE440
Ligature2: "'blws' Below Base Substitutions in Tai Tham lookup 15 subtable" x uniE441
Ligature2: "'blws' Below Base Substitutions in Tai Tham lookup 15 subtable" x uniE442
Ligature2: "'blws' Below Base Substitutions in Tai Tham lookup 15 subtable" x uniE443
Ligature2: "'blws' Below Base Substitutions in Tai Tham lookup 15 subtable" x uniE444
Ligature2: "'blws' Below Base Substitutions in Tai Tham lookup 15 subtable" x uniE445
EndChar

StartChar: braceleft
Encoding: 28 123 29
Width: 301
VWidth: 1000
GlyphClass: 2
Flags: W
HStem: -52 38<196.167 231> 540 38<194.262 231>
VStem: 140.976 38.0237<5.0544 225.735 299.81 524.993>
LayerCount: 2
Fore
SplineSet
141 102 m 0
 141 219.955399061 141 244.25 70 262 c 1
 92 266 119 276 133 306 c 0
 139 323 139 390 139 420 c 0
 139 496.862318841 139 578 231 578 c 1
 231 540 l 1
 181.735600578 540 178 520.233512647 178 421 c 0
 178 413 178.142222222 402.084444444 178.142222222 389.846222222 c 0
 178.142222222 313.268488746 172.923354921 283.265204374 149 262 c 1
 173.120212772 240.291808505 179.142222222 214.200448314 179.142222222 132.329185185 c 0
 179.142222222 119.986666667 179 109 179 101 c 0
 179 12.1186166196 185.636251296 -14 231 -14 c 1
 231 -52 l 1
 144.320021678 -52 140.976331361 19.3193582825 140.976331361 87.1415566682 c 0
 140.976331361 92.3905325444 141 97.3846153846 141 102 c 0
EndSplineSet
Ligature2: "'blws' Below Base Substitutions in Tai Tham lookup 50 subtable" uniE32B braceleft
Ligature2: "'blws' Below Base Substitutions in Tai Tham lookup 50 subtable" uniE32A braceleft
Ligature2: "'blws' Below Base Substitutions in Tai Tham lookup 50 subtable" uniE325 braceleft
Ligature2: "+BB8EPgQ0BEEEQgQwBD0EPgQyBDoEMAAA +BDsEOAQzBDAEQgRDBEAESwAA lookup 26 subtable" uni25CC braceleft
Ligature2: "'blws' Below Base Substitutions in Tai Tham lookup 24 subtable" braceleft uniE440
Ligature2: "'blws' Below Base Substitutions in Tai Tham lookup 15 subtable" braceleft uniE441
Ligature2: "'blws' Below Base Substitutions in Tai Tham lookup 15 subtable" braceleft uniE442
Ligature2: "'blws' Below Base Substitutions in Tai Tham lookup 15 subtable" braceleft uniE443
Ligature2: "'blws' Below Base Substitutions in Tai Tham lookup 15 subtable" braceleft uniE444
Ligature2: "'blws' Below Base Substitutions in Tai Tham lookup 15 subtable" braceleft uniE445
EndChar

StartChar: braceright
Encoding: 29 125 30
Width: 302
VWidth: 1000
GlyphClass: 2
Flags: W
HStem: -52 38<70 105.103> 540 38<70 108.266>
VStem: 123.858 38.1422<7.6507 226.907 298.091 523.158>
LayerCount: 2
Fore
SplineSet
124 421 m 0
 124 528.287765089 113.688244187 540 70 540 c 1
 70 578 l 1
 112 578 141 557 152 529 c 0
 161.307692308 505.307692308 162.023668639 465.147928994 162.023668639 435.177059627 c 0
 162.023668639 429.727810651 162 424.615384615 162 420 c 0
 162 390 163 323 169 306 c 0
 183 276 210 266 232 262 c 1
 161 244.25 161 219.955399061 161 102 c 0
 161 97.3846153846 161.023668639 92.3905325444 161.023668639 87.1415566682 c 0
 161.023668639 25.4570476472 159.974071648 -52 70 -52 c 1
 70 -14 l 1
 122 -14 122 23.5769230769 122 101 c 0
 122 105.615384615 121.976331361 111.224852071 121.976331361 117.515248066 c 0
 121.976331361 213.521225855 128.624476361 240.062028725 153 262 c 1
 129.080052372 283.26217567 123.857777778 313.255866129 123.857777778 389.846222222 c 0
 123.857777778 402.084444444 124 413 124 421 c 0
EndSplineSet
Ligature2: "'blws' Below Base Substitutions in Tai Tham lookup 50 subtable" uniE32B braceright
Ligature2: "'blws' Below Base Substitutions in Tai Tham lookup 50 subtable" uniE32A braceright
Ligature2: "'blws' Below Base Substitutions in Tai Tham lookup 50 subtable" uniE325 braceright
Ligature2: "+BB8EPgQ0BEEEQgQwBD0EPgQyBDoEMAAA +BDsEOAQzBDAEQgRDBEAESwAA lookup 26 subtable" uni25CC braceright
Ligature2: "'blws' Below Base Substitutions in Tai Tham lookup 24 subtable" braceright uniE440
Ligature2: "'blws' Below Base Substitutions in Tai Tham lookup 15 subtable" braceright uniE441
Ligature2: "'blws' Below Base Substitutions in Tai Tham lookup 15 subtable" braceright uniE442
Ligature2: "'blws' Below Base Substitutions in Tai Tham lookup 15 subtable" braceright uniE443
Ligature2: "'blws' Below Base Substitutions in Tai Tham lookup 15 subtable" braceright uniE444
Ligature2: "'blws' Below Base Substitutions in Tai Tham lookup 15 subtable" braceright uniE445
EndChar

StartChar: uni1A20
Encoding: 32 6688 31
Width: 550
VWidth: 1000
GlyphClass: 2
Flags: W
HStem: 0 25<146.807 176.482> 56 26<146.507 176.406> 270 40<142.105 227.258 324.603 407.895>
VStem: 35 40<91.1371 203.079> 177 26<25.5791 55.5006> 255 40<20 242.68> 475 40<93.5312 203.079>
AnchorPoint: "+BBEENQQ3BEsEPARPBD0EPQQ+BDUA--23" 339 -45 basechar 0
AnchorPoint: "+BBEENQQ3BEsEPARPBD0EPQQ+BDUA--9" 363 -45 basechar 0
AnchorPoint: "+BBEENQQ3BEsEPARPBD0EPQQ+BDUA--8" 344 -45 basechar 0
AnchorPoint: "+BBEENQQ3BEsEPARPBD0EPQQ+BDUA--7" 339 -45 basechar 0
AnchorPoint: "+BBEENQQ3BEsEPARPBD0EPQQ+BDUA--6" 514 -45 basechar 0
AnchorPoint: "+BBEENQQ3BEsEPARPBD0EPQQ+BDUA--5" 360 352 basechar 0
AnchorPoint: "+BBEENQQ3BEsEPARPBD0EPQQ+BDUA--4" 490 352 basechar 0
AnchorPoint: "+BBEENQQ3BEsEPARPBD0EPQQ+BDUA--3" 361 352 basechar 0
AnchorPoint: "+BBEENQQ3BEsEPARPBD0EPQQ+BDUA--2" 361 352 basechar 0
AnchorPoint: "+BBEENQQ3BEsEPARPBD0EPQQ+BDUA--1" 275 352 basechar 0
AnchorPoint: "+BBEENQQ3BEsEPARPBD0EPQQ+BDUA--0" 358 352 basechar 0
LayerCount: 2
Fore
SplineSet
255 215 m 2
 255 251.532409222 211.537649372 270 191 270 c 0
 133 270 75 223 75 150 c 0
 75 93 97 69 119 55 c 0
 120 54 121 54 122 53 c 1
 127 70 144 82 162 82 c 0
 185 82 203 63 203 40 c 0
 203 17 185 0 162 0 c 0
 127 0 117 9 98 21 c 0
 67 41 35 82 35 150 c 0
 35 245 111 310 191 310 c 0
 193.537461237 310 241.285502321 309.457397215 275 269 c 1
 281.875618684 277.250742421 314.045748515 310 359 310 c 0
 439 310 515 245 515 150 c 0
 515 48.3639236371 445.452379221 22.8694839731 445.452379221 16.4372313331 c 0
 445.452379221 14.4249118306 448.042720279 13.1250907642 453.40411705 13.1250907642 c 0
 457.749963694 13.1250907642 463.916509342 13.9791273355 472 16 c 0
 473 14 472 14 472 14 c 1
 472 14 440 0 416 0 c 0
 402 0 391 4 389 19 c 1
 389 21 l 2
 389 52.3872530202 475 46.6534446542 475 150 c 0
 475 223 417 270 359 270 c 0
 333.234389221 270 295 243.484702357 295 215 c 2
 295 20 l 1
 295 20 297 0 275 0 c 0
 253 0 255 20 255 20 c 1
 255 215 l 2
162 56 m 0
 153 56 146 49 146 40 c 0
 146 31 153 25 162 25 c 0
 171 25 177 31 177 40 c 0
 177 49 171 56 162 56 c 0
EndSplineSet
Ligature2: "'blws' Below Base Substitutions in Tai Tham lookup 50 subtable" uniE32B uni1A20
Ligature2: "'blws' Below Base Substitutions in Tai Tham lookup 50 subtable" uniE32A uni1A20
Ligature2: "'blws' Below Base Substitutions in Tai Tham lookup 50 subtable" uniE325 uni1A20
Ligature2: "+BB8EPgQ0BEEEQgQwBD0EPgQyBDoEMAAA +BDsEOAQzBDAEQgRDBEAESwAA lookup 26 subtable" uni25CC uni1A20
Ligature2: "'blws' Below Base Substitutions in Tai Tham lookup 24 subtable" uni1A20 uniE440
MultipleSubs2: "+BBwEPQQ+BDYENQRBBEIEMgQ1BD0EPQQwBE8A +BD8EPgQ0BEEEQgQwBD0EPgQyBDoEMAAA lookup 23 subtable" uni1A72 uni1A20
MultipleSubs2: "+BBwEPQQ+BDYENQRBBEIEMgQ1BD0EPQQwBE8A +BD8EPgQ0BEEEQgQwBD0EPgQyBDoEMAAA lookup 22 subtable" uni1A71 uni1A20
MultipleSubs2: "+BBwEPQQ+BDYENQRBBEIEMgQ1BD0EPQQwBE8A +BD8EPgQ0BEEEQgQwBD0EPgQyBDoEMAAA lookup 21 subtable" uni1A70 uni1A20
MultipleSubs2: "+BBwEPQQ+BDYENQRBBEIEMgQ1BD0EPQQwBE8A +BD8EPgQ0BEEEQgQwBD0EPgQyBDoEMAAA lookup 20 subtable" uni1A6F uni1A20
MultipleSubs2: "+BBwEPQQ+BDYENQRBBEIEMgQ1BD0EPQQwBE8A +BD8EPgQ0BEEEQgQwBD0EPgQyBDoEMAAA lookup 19 subtable" uni1A6E uni1A20
MultipleSubs2: "+BBwEPQQ+BDYENQRBBEIEMgQ1BD0EPQQwBE8A +BD8EPgQ0BEEEQgQwBD0EPgQyBDoEMAAA lookup 18 subtable" uni1A55 uni1A20
Ligature2: "'blws' Below Base Substitutions in Tai Tham lookup 15 subtable" uni1A20 uniE441
Ligature2: "'blws' Below Base Substitutions in Tai Tham lookup 15 subtable" uni1A20 uniE442
Ligature2: "'blws' Below Base Substitutions in Tai Tham lookup 15 subtable" uni1A20 uniE443
Ligature2: "'blws' Below Base Substitutions in Tai Tham lookup 15 subtable" uni1A20 uniE444
Ligature2: "'blws' Below Base Substitutions in Tai Tham lookup 15 subtable" uni1A20 uniE445
MultipleSubs2: "+BBwEPQQ+BDYENQRBBEIEMgQ1BD0EPQQwBE8A +BD8EPgQ0BEEEQgQwBD0EPgQyBDoEMAAA lookup 4 subtable" uni1A20.sub
EndChar

StartChar: uni1A21
Encoding: 33 6689 32
Width: 442
VWidth: 1000
GlyphClass: 2
Flags: W
HStem: -10 40<105.158 274.907> 121 38<117.946 270.013> 180 26<61.5177 91.5006> 273 37<85.0989 161.437 257.206 326.933>
VStem: 35 40<51.8611 93.6847> 35 26<206.518 235.729> 92 26<206.594 235.348> 364 40<109.508 232.254> 408 23<-95.132 -6.30366>
AnchorPoint: "+BBEENQQ3BEsEPARPBD0EPQQ+BDUA--23" 219 -44 basechar 0
AnchorPoint: "+BBEENQQ3BEsEPARPBD0EPQQ+BDUA--9" 317 -45 basechar 0
AnchorPoint: "+BBEENQQ3BEsEPARPBD0EPQQ+BDUA--8" 298 -45 basechar 0
AnchorPoint: "+BBEENQQ3BEsEPARPBD0EPQQ+BDUA--7" 219 -44 basechar 0
AnchorPoint: "+BBEENQQ3BEsEPARPBD0EPQQ+BDUA--6" 419 -45 basechar 0
AnchorPoint: "+BBEENQQ3BEsEPARPBD0EPQQ+BDUA--5" 239 352 basechar 0
AnchorPoint: "+BBEENQQ3BEsEPARPBD0EPQQ+BDUA--4" 365 352 basechar 0
AnchorPoint: "+BBEENQQ3BEsEPARPBD0EPQQ+BDUA--3" 292 353 basechar 0
AnchorPoint: "+BBEENQQ3BEsEPARPBD0EPQQ+BDUA--2" 292 353 basechar 0
AnchorPoint: "+BBEENQQ3BEsEPARPBD0EPQQ+BDUA--1" 208 352 basechar 0
AnchorPoint: "+BBEENQQ3BEsEPARPBD0EPQQ+BDUA--0" 237 352 basechar 0
LayerCount: 2
Fore
SplineSet
197 -10 m 0xf780
 112.712024423 -10 35 7.49160202009 35 72 c 0xfb80
 35 103 62 159 197 159 c 0
 258 159 312 138 352 109 c 1
 360 128 364 150 364 175 c 0
 364 212 348 247 337 255 c 0
 325 265 308 270 291 270 c 0
 236 270 238 222 208 222 c 0
 180 222 179 273 123 273 c 0
 105 273 93 270 84 261 c 1
 103 257 118 241 118 221 c 0
 118 198 99 180 76 180 c 0
 53 180 35 198 35 221 c 0
 35 259 57 310 123 310 c 0
 160 310 185 295 200 280 c 0
 203 277 207 276 209 273 c 1
 217 281 l 2
 232 295 257 310 292 310 c 0
 382 310 404 227 404 175 c 0
 404 140 398 108 383 81 c 1
 418 45 431 11 431 -36 c 0
 431 -96 399 -133 399 -133 c 1
 396 -130 l 1
 396 -130 408 -109 408 -72 c 0
 408 -14 387 21 361 50 c 1
 317 7 257 -10 197 -10 c 0xf780
76 236 m 0
 67 236 61 230 61 221 c 0xf780
 61 212 67 206 76 206 c 0
 85 206 92 212 92 221 c 0
 92 230 85 236 76 236 c 0
75 72 m 0xfb80
 75 55 95 30 196 30 c 0
 245 30 296 40 332 78 c 1
 299 102 251 121 196 121 c 0
 153 121 75 109 75 72 c 0xfb80
EndSplineSet
Ligature2: "'blws' Below Base Substitutions in Tai Tham lookup 50 subtable" uniE32B uni1A21
Ligature2: "'blws' Below Base Substitutions in Tai Tham lookup 50 subtable" uniE32A uni1A21
Ligature2: "'blws' Below Base Substitutions in Tai Tham lookup 50 subtable" uniE325 uni1A21
Ligature2: "+BB8EPgQ0BEEEQgQwBD0EPgQyBDoEMAAA +BDsEOAQzBDAEQgRDBEAESwAA lookup 26 subtable" uni25CC uni1A21
Ligature2: "'blws' Below Base Substitutions in Tai Tham lookup 24 subtable" uni1A21 uniE440
MultipleSubs2: "+BBwEPQQ+BDYENQRBBEIEMgQ1BD0EPQQwBE8A +BD8EPgQ0BEEEQgQwBD0EPgQyBDoEMAAA lookup 23 subtable" uni1A72 uni1A21
MultipleSubs2: "+BBwEPQQ+BDYENQRBBEIEMgQ1BD0EPQQwBE8A +BD8EPgQ0BEEEQgQwBD0EPgQyBDoEMAAA lookup 22 subtable" uni1A71 uni1A21
MultipleSubs2: "+BBwEPQQ+BDYENQRBBEIEMgQ1BD0EPQQwBE8A +BD8EPgQ0BEEEQgQwBD0EPgQyBDoEMAAA lookup 21 subtable" uni1A70 uni1A21
MultipleSubs2: "+BBwEPQQ+BDYENQRBBEIEMgQ1BD0EPQQwBE8A +BD8EPgQ0BEEEQgQwBD0EPgQyBDoEMAAA lookup 20 subtable" uni1A6F uni1A21
MultipleSubs2: "+BBwEPQQ+BDYENQRBBEIEMgQ1BD0EPQQwBE8A +BD8EPgQ0BEEEQgQwBD0EPgQyBDoEMAAA lookup 19 subtable" uni1A6E uni1A21
MultipleSubs2: "+BBwEPQQ+BDYENQRBBEIEMgQ1BD0EPQQwBE8A +BD8EPgQ0BEEEQgQwBD0EPgQyBDoEMAAA lookup 18 subtable" uni1A55 uni1A21
Ligature2: "'blws' Below Base Substitutions in Tai Tham lookup 15 subtable" uni1A21 uniE441
Ligature2: "'blws' Below Base Substitutions in Tai Tham lookup 15 subtable" uni1A21 uniE442
Ligature2: "'blws' Below Base Substitutions in Tai Tham lookup 15 subtable" uni1A21 uniE443
Ligature2: "'blws' Below Base Substitutions in Tai Tham lookup 15 subtable" uni1A21 uniE444
Ligature2: "'blws' Below Base Substitutions in Tai Tham lookup 15 subtable" uni1A21 uniE445
MultipleSubs2: "+BBwEPQQ+BDYENQRBBEIEMgQ1BD0EPQQwBE8A +BD8EPgQ0BEEEQgQwBD0EPgQyBDoEMAAA lookup 4 subtable" uni1A21.sub
EndChar

StartChar: uni1A22
Encoding: 34 6690 33
Width: 437
VWidth: 1000
GlyphClass: 2
Flags: W
HStem: -10 40<103.967 271.887> 121 38<116.829 267.048> 180 26<61.6299 90.4823> 273 37<83.3779 160.18 256.416 326.008> 594 35<177.2 343.531>
VStem: 35 40<50.7467 93.7216> 35 26<206.76 235.725> 39 40<301 530.904> 91 26<206.518 235.425> 363 40<109.8 232.499> 408 24<-95.6871 -7.07126>
AnchorPoint: "+BBEENQQ3BEsEPARPBD0EPQQ+BDUA--23" 216 -45 basechar 0
AnchorPoint: "+BBEENQQ3BEsEPARPBD0EPQQ+BDUA--9" 316 -45 basechar 0
AnchorPoint: "+BBEENQQ3BEsEPARPBD0EPQQ+BDUA--8" 296 -46 basechar 0
AnchorPoint: "+BBEENQQ3BEsEPARPBD0EPQQ+BDUA--7" 216 -45 basechar 0
AnchorPoint: "+BBEENQQ3BEsEPARPBD0EPQQ+BDUA--6" 419 -46 basechar 0
AnchorPoint: "+BBEENQQ3BEsEPARPBD0EPQQ+BDUA--5" 250 352 basechar 0
AnchorPoint: "+BBEENQQ3BEsEPARPBD0EPQQ+BDUA--4" 362 338 basechar 0
AnchorPoint: "+BBEENQQ3BEsEPARPBD0EPQQ+BDUA--3" 288 352 basechar 0
AnchorPoint: "+BBEENQQ3BEsEPARPBD0EPQQ+BDUA--2" 288 352 basechar 0
AnchorPoint: "+BBEENQQ3BEsEPARPBD0EPQQ+BDUA--1" 204 352 basechar 0
AnchorPoint: "+BBEENQQ3BEsEPARPBD0EPQQ+BDUA--0" 264 352 basechar 0
LayerCount: 2
Fore
SplineSet
40 498 m 0xf9e0
 40 593 165 629 243 629 c 0
 354 629 420 595 478 536 c 1
 475 534 l 1
 406 582 341 594 279 594 c 0
 194 594 162 579 138 566 c 0
 110 551 80 534 80 497 c 0
 80 433 79 348 79 301 c 1xf9e0
 91 307 105 310 122 310 c 0
 160 310 192 293 208 270 c 1
 212 274 236 310 288 310 c 2
 291 310 l 2
 335 310 399 289 403 175 c 1
 403 168 l 2
 403 136 396 106 382 81 c 1
 411 51 432 10 432 -37 c 0
 432 -97 398 -133 398 -133 c 1
 396 -130 l 1
 396 -130 408 -109 408 -73 c 0
 408 -36 395 14 363 50 c 1
 319 7 256 -9 196 -10 c 1
 184 -10 l 2
 74 -10 35 32 35 72 c 0xfce0
 37 127 100 159 187 159 c 2
 197 159 l 1
 258 157 311 138 351 109 c 1
 358 126 363 147 363 169 c 2
 363 175 l 1
 361 229 344 270 291 270 c 0
 233 270 239 222 207 222 c 0
 179 222 180 271 123 273 c 1
 118 273 l 2
 103 273 91 269 83 261 c 1
 102 257 117 241 117 221 c 0
 117 198 99 180 76 180 c 0
 53 180 37 198 35 221 c 1
 35 229 l 2xfae0
 35 238 36 247 39 255 c 0
 39 262 40 419 40 498 c 0xf9e0
76 236 m 0
 67 236 61 230 61 221 c 0xfae0
 61 212 67 206 76 206 c 0
 85 206 91 212 91 221 c 0
 91 230 85 236 76 236 c 0
75 72 m 0xfce0
 75 38 140 30 180 30 c 2
 196 30 l 1
 245 32 296 40 332 78 c 1
 299 102 250 119 195 121 c 1
 184 121 l 2
 160 121 75 111 75 72 c 0xfce0
EndSplineSet
LCarets2: 1 0
Ligature2: "'blws' Below Base Substitutions in Tai Tham lookup 50 subtable" uniE32B uni1A22
Ligature2: "'blws' Below Base Substitutions in Tai Tham lookup 50 subtable" uniE32A uni1A22
Ligature2: "'blws' Below Base Substitutions in Tai Tham lookup 50 subtable" uniE325 uni1A22
Ligature2: "+BB8EPgQ0BEEEQgQwBD0EPgQyBDoEMAAA +BDsEOAQzBDAEQgRDBEAESwAA lookup 26 subtable" uni25CC uni1A22
Ligature2: "'blws' Below Base Substitutions in Tai Tham lookup 24 subtable" uni1A22 uniE440
MultipleSubs2: "+BBwEPQQ+BDYENQRBBEIEMgQ1BD0EPQQwBE8A +BD8EPgQ0BEEEQgQwBD0EPgQyBDoEMAAA lookup 23 subtable" uni1A72 uni1A22
MultipleSubs2: "+BBwEPQQ+BDYENQRBBEIEMgQ1BD0EPQQwBE8A +BD8EPgQ0BEEEQgQwBD0EPgQyBDoEMAAA lookup 22 subtable" uni1A71 uni1A22
MultipleSubs2: "+BBwEPQQ+BDYENQRBBEIEMgQ1BD0EPQQwBE8A +BD8EPgQ0BEEEQgQwBD0EPgQyBDoEMAAA lookup 21 subtable" uni1A70 uni1A22
MultipleSubs2: "+BBwEPQQ+BDYENQRBBEIEMgQ1BD0EPQQwBE8A +BD8EPgQ0BEEEQgQwBD0EPgQyBDoEMAAA lookup 20 subtable" uni1A6F uni1A22
MultipleSubs2: "+BBwEPQQ+BDYENQRBBEIEMgQ1BD0EPQQwBE8A +BD8EPgQ0BEEEQgQwBD0EPgQyBDoEMAAA lookup 19 subtable" uni1A6E uni1A22
MultipleSubs2: "+BBwEPQQ+BDYENQRBBEIEMgQ1BD0EPQQwBE8A +BD8EPgQ0BEEEQgQwBD0EPgQyBDoEMAAA lookup 18 subtable" uni1A55 uni1A22
Ligature2: "'blws' Below Base Substitutions in Tai Tham lookup 15 subtable" uni1A22 uniE441
Ligature2: "'blws' Below Base Substitutions in Tai Tham lookup 15 subtable" uni1A22 uniE442
Ligature2: "'blws' Below Base Substitutions in Tai Tham lookup 15 subtable" uni1A22 uniE443
Ligature2: "'blws' Below Base Substitutions in Tai Tham lookup 15 subtable" uni1A22 uniE444
Ligature2: "'blws' Below Base Substitutions in Tai Tham lookup 15 subtable" uni1A22 uniE445
MultipleSubs2: "+BBwEPQQ+BDYENQRBBEIEMgQ1BD0EPQQwBE8A +BD8EPgQ0BEEEQgQwBD0EPgQyBDoEMAAA lookup 4 subtable" uni1A22.sub
EndChar

StartChar: uni1A23
Encoding: 35 6691 34
Width: 470
VWidth: 1000
GlyphClass: 2
Flags: W
HStem: 0 56<310.123 343.592> 0 26<136.079 163.392> 56 26<134.423 163.482> 271 39<168.035 302.165>
VStem: 35 40<94.3925 193.751> 164 26<26.5177 55.4823> 395 40<105.399 194.174>
AnchorPoint: "+BBEENQQ3BEsEPARPBD0EPQQ+BDUA--23" 239 -45 basechar 0
AnchorPoint: "+BBEENQQ3BEsEPARPBD0EPQQ+BDUA--9" 275 -45 basechar 0
AnchorPoint: "+BBEENQQ3BEsEPARPBD0EPQQ+BDUA--8" 258 -45 basechar 0
AnchorPoint: "+BBEENQQ3BEsEPARPBD0EPQQ+BDUA--7" 239 -45 basechar 0
AnchorPoint: "+BBEENQQ3BEsEPARPBD0EPQQ+BDUA--6" 435 -45 basechar 0
AnchorPoint: "+BBEENQQ3BEsEPARPBD0EPQQ+BDUA--5" 274 352 basechar 0
AnchorPoint: "+BBEENQQ3BEsEPARPBD0EPQQ+BDUA--4" 402 352 basechar 0
AnchorPoint: "+BBEENQQ3BEsEPARPBD0EPQQ+BDUA--3" 296 352 basechar 0
AnchorPoint: "+BBEENQQ3BEsEPARPBD0EPQQ+BDUA--2" 296 352 basechar 0
AnchorPoint: "+BBEENQQ3BEsEPARPBD0EPQQ+BDUA--1" 234 352 basechar 0
AnchorPoint: "+BBEENQQ3BEsEPARPBD0EPQQ+BDUA--0" 260 352 basechar 0
LayerCount: 2
Fore
SplineSet
148 0 m 2x7e
 98 0 35 80 35 151 c 0
 35 237 128 310 235 310 c 0
 343 310 435 241 435 150 c 0
 435 101 408 58 366 29 c 2
 354 21 l 2
 347.752057774 17.7116093547 345.07257485 15.0720294916 345.07257485 13.1523785208 c 0
 345.07257485 10.7424851154 349.295390423 9.46718634066 355.982219767 9.46718634066 c 0
 360.166852265 9.46718634066 365.316462509 9.9666295471 371 11 c 1
 371 9 372 9 372 9 c 1
 372 9 345 0 322 0 c 0
 305 0 289 5 289 22 c 0
 289 38 310 43 334 56 c 0x9e
 369 73 395 112 395 150 c 0
 395 215 325 271 235 271 c 0
 145 271 75 215 75 150 c 0
 75 122 81 89 111 57 c 1
 117 72 132 82 149 82 c 0
 172 82 190 64 190 41 c 0
 190 18 170 0 151 0 c 2
 148 0 l 2x7e
149 56 m 0x7e
 140 56 134 50 134 41 c 0
 134 32 140 26 149 26 c 0
 158 26 164 32 164 41 c 0
 164 50 158 56 149 56 c 0x7e
EndSplineSet
Ligature2: "'blws' Below Base Substitutions in Tai Tham lookup 50 subtable" uniE32B uni1A23
Ligature2: "'blws' Below Base Substitutions in Tai Tham lookup 50 subtable" uniE32A uni1A23
Ligature2: "'blws' Below Base Substitutions in Tai Tham lookup 50 subtable" uniE325 uni1A23
Ligature2: "+BB8EPgQ0BEEEQgQwBD0EPgQyBDoEMAAA +BDsEOAQzBDAEQgRDBEAESwAA lookup 26 subtable" uni25CC uni1A23
Ligature2: "'blws' Below Base Substitutions in Tai Tham lookup 24 subtable" uni1A23 uniE440
MultipleSubs2: "+BBwEPQQ+BDYENQRBBEIEMgQ1BD0EPQQwBE8A +BD8EPgQ0BEEEQgQwBD0EPgQyBDoEMAAA lookup 23 subtable" uni1A72 uni1A23
MultipleSubs2: "+BBwEPQQ+BDYENQRBBEIEMgQ1BD0EPQQwBE8A +BD8EPgQ0BEEEQgQwBD0EPgQyBDoEMAAA lookup 22 subtable" uni1A71 uni1A23
MultipleSubs2: "+BBwEPQQ+BDYENQRBBEIEMgQ1BD0EPQQwBE8A +BD8EPgQ0BEEEQgQwBD0EPgQyBDoEMAAA lookup 21 subtable" uni1A70 uni1A23
MultipleSubs2: "+BBwEPQQ+BDYENQRBBEIEMgQ1BD0EPQQwBE8A +BD8EPgQ0BEEEQgQwBD0EPgQyBDoEMAAA lookup 20 subtable" uni1A6F uni1A23
MultipleSubs2: "+BBwEPQQ+BDYENQRBBEIEMgQ1BD0EPQQwBE8A +BD8EPgQ0BEEEQgQwBD0EPgQyBDoEMAAA lookup 19 subtable" uni1A6E uni1A23
MultipleSubs2: "+BBwEPQQ+BDYENQRBBEIEMgQ1BD0EPQQwBE8A +BD8EPgQ0BEEEQgQwBD0EPgQyBDoEMAAA lookup 18 subtable" uni1A55 uni1A23
Ligature2: "'blws' Below Base Substitutions in Tai Tham lookup 15 subtable" uni1A23 uniE441
Ligature2: "'blws' Below Base Substitutions in Tai Tham lookup 15 subtable" uni1A23 uniE442
Ligature2: "'blws' Below Base Substitutions in Tai Tham lookup 15 subtable" uni1A23 uniE443
Ligature2: "'blws' Below Base Substitutions in Tai Tham lookup 15 subtable" uni1A23 uniE444
Ligature2: "'blws' Below Base Substitutions in Tai Tham lookup 15 subtable" uni1A23 uniE445
MultipleSubs2: "+BBwEPQQ+BDYENQRBBEIEMgQ1BD0EPQQwBE8A +BD8EPgQ0BEEEQgQwBD0EPgQyBDoEMAAA lookup 4 subtable" uni1A23.sub
EndChar

StartChar: uni1A24
Encoding: 36 6692 35
Width: 471
VWidth: 1000
GlyphClass: 2
Flags: W
HStem: 0 56<310.123 343.592> 0 26<135.536 163.392> 56 26<134.423 163.482> 271 39<167.852 302.165> 599 31<166.777 314.814>
VStem: 35 40<93.7888 193.615 371.594 529.484> 164 26<26.5177 55.4823> 395 40<105.399 194.174>
AnchorPoint: "+BBEENQQ3BEsEPARPBD0EPQQ+BDUA--23" 239 -45 basechar 0
AnchorPoint: "+BBEENQQ3BEsEPARPBD0EPQQ+BDUA--9" 275 -45 basechar 0
AnchorPoint: "+BBEENQQ3BEsEPARPBD0EPQQ+BDUA--8" 258 -46 basechar 0
AnchorPoint: "+BBEENQQ3BEsEPARPBD0EPQQ+BDUA--7" 239 -45 basechar 0
AnchorPoint: "+BBEENQQ3BEsEPARPBD0EPQQ+BDUA--6" 435 -44 basechar 0
AnchorPoint: "+BBEENQQ3BEsEPARPBD0EPQQ+BDUA--5" 274 352 basechar 0
AnchorPoint: "+BBEENQQ3BEsEPARPBD0EPQQ+BDUA--4" 402 352 basechar 0
AnchorPoint: "+BBEENQQ3BEsEPARPBD0EPQQ+BDUA--3" 296 352 basechar 0
AnchorPoint: "+BBEENQQ3BEsEPARPBD0EPQQ+BDUA--2" 296 352 basechar 0
AnchorPoint: "+BBEENQQ3BEsEPARPBD0EPQQ+BDUA--1" 234 352 basechar 0
AnchorPoint: "+BBEENQQ3BEsEPARPBD0EPQQ+BDUA--0" 260 352 basechar 0
LayerCount: 2
Fore
SplineSet
38 499 m 0x7f
 38 586 149 627 223 630 c 1
 229 630 l 2
 364 630 446 552 446 552 c 1
 445 550 l 1
 445 550 352 599 244 599 c 0
 146 599 78 552 78 499 c 0
 78 370 75 282 73 243 c 1
 110 283 169 310 235 310 c 0
 343 310 435 241 435 150 c 0
 435 101 408 58 366 29 c 2
 354 21 l 2
 347.752057774 17.7116093547 345.07257485 15.0720294916 345.07257485 13.1523785208 c 0
 345.07257485 10.7424851154 349.295390423 9.46718634066 355.982219767 9.46718634066 c 0
 360.166852265 9.46718634066 365.316462509 9.9666295471 371 11 c 1
 371 9 372 9 372 9 c 1
 372 9 345 0 322 0 c 0
 305 0 289 5 289 22 c 0
 289 38 310 43 334 56 c 0x9f
 369 73 395 112 395 150 c 0
 395 215 325 271 235 271 c 0
 145 271 75 215 75 150 c 0
 75 122 81 89 111 57 c 1
 117 72 132 82 149 82 c 0
 172 82 190 64 190 41 c 0
 190 18 170 0 151 0 c 2
 145 0 l 2
 95 0 36 80 35 150 c 0
 35 159 35 167 37 175 c 0
 37 184 38 420 38 499 c 0x7f
149 56 m 0x7f
 140 56 134 50 134 41 c 0
 134 32 140 26 149 26 c 0
 158 26 164 32 164 41 c 0
 164 50 158 56 149 56 c 0x7f
EndSplineSet
Ligature2: "'blws' Below Base Substitutions in Tai Tham lookup 50 subtable" uniE32B uni1A24
Ligature2: "'blws' Below Base Substitutions in Tai Tham lookup 50 subtable" uniE32A uni1A24
Ligature2: "'blws' Below Base Substitutions in Tai Tham lookup 50 subtable" uniE325 uni1A24
Ligature2: "+BB8EPgQ0BEEEQgQwBD0EPgQyBDoEMAAA +BDsEOAQzBDAEQgRDBEAESwAA lookup 26 subtable" uni25CC uni1A24
Ligature2: "'blws' Below Base Substitutions in Tai Tham lookup 24 subtable" uni1A24 uniE440
MultipleSubs2: "+BBwEPQQ+BDYENQRBBEIEMgQ1BD0EPQQwBE8A +BD8EPgQ0BEEEQgQwBD0EPgQyBDoEMAAA lookup 23 subtable" uni1A72 uni1A24
MultipleSubs2: "+BBwEPQQ+BDYENQRBBEIEMgQ1BD0EPQQwBE8A +BD8EPgQ0BEEEQgQwBD0EPgQyBDoEMAAA lookup 22 subtable" uni1A71 uni1A24
MultipleSubs2: "+BBwEPQQ+BDYENQRBBEIEMgQ1BD0EPQQwBE8A +BD8EPgQ0BEEEQgQwBD0EPgQyBDoEMAAA lookup 21 subtable" uni1A70 uni1A24
MultipleSubs2: "+BBwEPQQ+BDYENQRBBEIEMgQ1BD0EPQQwBE8A +BD8EPgQ0BEEEQgQwBD0EPgQyBDoEMAAA lookup 20 subtable" uni1A6F uni1A24
MultipleSubs2: "+BBwEPQQ+BDYENQRBBEIEMgQ1BD0EPQQwBE8A +BD8EPgQ0BEEEQgQwBD0EPgQyBDoEMAAA lookup 19 subtable" uni1A6E uni1A24
MultipleSubs2: "+BBwEPQQ+BDYENQRBBEIEMgQ1BD0EPQQwBE8A +BD8EPgQ0BEEEQgQwBD0EPgQyBDoEMAAA lookup 18 subtable" uni1A55 uni1A24
Ligature2: "'blws' Below Base Substitutions in Tai Tham lookup 15 subtable" uni1A24 uniE441
Ligature2: "'blws' Below Base Substitutions in Tai Tham lookup 15 subtable" uni1A24 uniE442
Ligature2: "'blws' Below Base Substitutions in Tai Tham lookup 15 subtable" uni1A24 uniE443
Ligature2: "'blws' Below Base Substitutions in Tai Tham lookup 15 subtable" uni1A24 uniE444
Ligature2: "'blws' Below Base Substitutions in Tai Tham lookup 15 subtable" uni1A24 uniE445
MultipleSubs2: "+BBwEPQQ+BDYENQRBBEIEMgQ1BD0EPQQwBE8A +BD8EPgQ0BEEEQgQwBD0EPgQyBDoEMAAA lookup 4 subtable" uni1A24.sub
EndChar

StartChar: uni1A25
Encoding: 37 6693 36
Width: 575
VWidth: 1000
GlyphClass: 2
Flags: W
HStem: -10 40<86.8071 134.818 240.717 306.623 373.497 449.765> 42.2582 41.7418<178.196 198.145> 183 26<61.5177 90.4823> 226 42.9557<159.862 178.187> 271 40<81.9767 123.879 213.462 245.476> 278.056 21.9442<320.131 369.476 449.63 499.476>
VStem: 35 26<209.68 237.633> 37 40<40.2483 90.2532> 91 26<209.518 238.414> 251 40<216.268 266.342> 308 55.5161<260.179 287.952> 370 40<96.916 212.062> 438 55.5161<260.184 287.763> 500 40<89.312 209.632>
AnchorPoint: "+BBEENQQ3BEsEPARPBD0EPQQ+BDUA--23" 344 -45 basechar 0
AnchorPoint: "+BBEENQQ3BEsEPARPBD0EPQQ+BDUA--9" 421 -45 basechar 0
AnchorPoint: "+BBEENQQ3BEsEPARPBD0EPQQ+BDUA--8" 404 -45 basechar 0
AnchorPoint: "+BBEENQQ3BEsEPARPBD0EPQQ+BDUA--7" 344 -45 basechar 0
AnchorPoint: "+BBEENQQ3BEsEPARPBD0EPQQ+BDUA--6" 540 -45 basechar 0
AnchorPoint: "+BBEENQQ3BEsEPARPBD0EPQQ+BDUA--5" 385 353 basechar 0
AnchorPoint: "+BBEENQQ3BEsEPARPBD0EPQQ+BDUA--4" 513 353 basechar 0
AnchorPoint: "+BBEENQQ3BEsEPARPBD0EPQQ+BDUA--3" 407 353 basechar 0
AnchorPoint: "+BBEENQQ3BEsEPARPBD0EPQQ+BDUA--2" 407 353 basechar 0
AnchorPoint: "+BBEENQQ3BEsEPARPBD0EPQQ+BDUA--1" 330 352 basechar 0
AnchorPoint: "+BBEENQQ3BEsEPARPBD0EPQQ+BDUA--0" 371 353 basechar 0
LayerCount: 2
Fore
SplineSet
188.095080438 42.2581547442 m 0xf5fc
 178.835591239 42.2581547442 165.473669726 -10 116 -10 c 2
 114 -10 l 2
 74 -10 37 23 37 68 c 0xf5fc
 37 166 251 177 251 239 c 0
 251 257 242 271 226 271 c 0
 213 271 204 226 167 226 c 0
 134 226 133 271 100 271 c 0
 93 271 86 269 80 265 c 1
 101 263 117 245 117 224 c 0
 117 201 99 183 76 183 c 0
 53 183 35 202 35 225 c 2
 35 232 l 2
 35 261 49 308 109 308 c 2
 114 308 l 2
 151.43969306 308 163.572821864 268.955666996 169.82032837 268.955666996 c 0
 172.618608487 268.955666996 190.676551346 311 226 311 c 0xfafc
 257 311 291 284 291 239 c 0
 287.279078339 138.535115163 77 128.960855302 77 68 c 0
 77 38 104 30 115 30 c 0
 144 30 149 84 191 84 c 0
 230 84 231 30 263 30 c 0
 316 30 370 83 370 148 c 2
 370 150 l 2
 370 245 308 254 308 281 c 0
 308 287 313 300 330 300 c 0
 355 300 391 272 391 272 c 1
 390 270 l 1
 379.207991802 275.611844263 371.583897997 278.055774132 367.369046762 278.055774132 c 0
 364.818270083 278.055774132 363.516136374 277.160679169 363.516136374 275.530961457 c 0
 363.516136374 270.372787373 410 236.451425627 410 146 c 0
 410 106 395 70 372 43 c 1
 384 34 399 30 411 30 c 0
 463 30 500 82 500 147 c 2
 500 150 l 2
 500 245 438 254 438 281 c 0
 438 289 445 300 459 300 c 0
 484 300 521 272 521 272 c 1
 520 270 l 1
 509.207991802 275.611844263 501.583897997 278.055774132 497.369046762 278.055774132 c 0
 494.818270083 278.055774132 493.516136374 277.160679169 493.516136374 275.530961457 c 0
 493.516136374 270.659904985 540 235.741453554 540 147 c 0
 540 60 489 -10 411 -10 c 0
 386 -10 361 1 343 16 c 1
 320 -1 292 -10 263 -10 c 0
 214.488332837 -10 195.916529577 42.2581547442 188.095080438 42.2581547442 c 0xf5fc
76 239 m 0
 67 239 61 233 61 224 c 0xf2fc
 61 215 67 209 76 209 c 0
 85 209 91 215 91 224 c 0
 91 233 85 239 76 239 c 0
EndSplineSet
Ligature2: "'blws' Below Base Substitutions in Tai Tham lookup 50 subtable" uniE32B uni1A25
Ligature2: "'blws' Below Base Substitutions in Tai Tham lookup 50 subtable" uniE32A uni1A25
Ligature2: "'blws' Below Base Substitutions in Tai Tham lookup 50 subtable" uniE325 uni1A25
Ligature2: "+BB8EPgQ0BEEEQgQwBD0EPgQyBDoEMAAA +BDsEOAQzBDAEQgRDBEAESwAA lookup 26 subtable" uni25CC uni1A25
Ligature2: "'blws' Below Base Substitutions in Tai Tham lookup 24 subtable" uni1A25 uniE440
MultipleSubs2: "+BBwEPQQ+BDYENQRBBEIEMgQ1BD0EPQQwBE8A +BD8EPgQ0BEEEQgQwBD0EPgQyBDoEMAAA lookup 23 subtable" uni1A72 uni1A25
MultipleSubs2: "+BBwEPQQ+BDYENQRBBEIEMgQ1BD0EPQQwBE8A +BD8EPgQ0BEEEQgQwBD0EPgQyBDoEMAAA lookup 22 subtable" uni1A71 uni1A25
MultipleSubs2: "+BBwEPQQ+BDYENQRBBEIEMgQ1BD0EPQQwBE8A +BD8EPgQ0BEEEQgQwBD0EPgQyBDoEMAAA lookup 21 subtable" uni1A70 uni1A25
MultipleSubs2: "+BBwEPQQ+BDYENQRBBEIEMgQ1BD0EPQQwBE8A +BD8EPgQ0BEEEQgQwBD0EPgQyBDoEMAAA lookup 20 subtable" uni1A6F uni1A25
MultipleSubs2: "+BBwEPQQ+BDYENQRBBEIEMgQ1BD0EPQQwBE8A +BD8EPgQ0BEEEQgQwBD0EPgQyBDoEMAAA lookup 19 subtable" uni1A6E uni1A25
MultipleSubs2: "+BBwEPQQ+BDYENQRBBEIEMgQ1BD0EPQQwBE8A +BD8EPgQ0BEEEQgQwBD0EPgQyBDoEMAAA lookup 18 subtable" uni1A55 uni1A25
Ligature2: "'blws' Below Base Substitutions in Tai Tham lookup 15 subtable" uni1A25 uniE441
Ligature2: "'blws' Below Base Substitutions in Tai Tham lookup 15 subtable" uni1A25 uniE442
Ligature2: "'blws' Below Base Substitutions in Tai Tham lookup 15 subtable" uni1A25 uniE443
Ligature2: "'blws' Below Base Substitutions in Tai Tham lookup 15 subtable" uni1A25 uniE444
Ligature2: "'blws' Below Base Substitutions in Tai Tham lookup 15 subtable" uni1A25 uniE445
MultipleSubs2: "+BBwEPQQ+BDYENQRBBEIEMgQ1BD0EPQQwBE8A +BD8EPgQ0BEEEQgQwBD0EPgQyBDoEMAAA lookup 4 subtable" uni1A25.sub
EndChar

StartChar: uni1A26
Encoding: 38 6694 37
Width: 489
VWidth: 1000
GlyphClass: 2
Flags: W
HStem: -9.67986 41.035<77.5626 117.148> 19.5886 21.1472<226.801 255.215> 80 43<195.395 254.299> 270 40<166.361 299.524>
VStem: 35 41<33.0717 81.5319 159.95 202.326> 217 3<51.8633 55> 256 41<41.402 77.4153> 417 37.0082<0.842499 141.152>
AnchorPoint: "+BBEENQQ3BEsEPARPBD0EPQQ+BDUA--23" 238 -44 basechar 0
AnchorPoint: "+BBEENQQ3BEsEPARPBD0EPQQ+BDUA--9" 257 -44 basechar 0
AnchorPoint: "+BBEENQQ3BEsEPARPBD0EPQQ+BDUA--8" 232 -45 basechar 0
AnchorPoint: "+BBEENQQ3BEsEPARPBD0EPQQ+BDUA--7" 238 -44 basechar 0
AnchorPoint: "+BBEENQQ3BEsEPARPBD0EPQQ+BDUA--6" 442 -45 basechar 0
AnchorPoint: "+BBEENQQ3BEsEPARPBD0EPQQ+BDUA--5" 302 352 basechar 0
AnchorPoint: "+BBEENQQ3BEsEPARPBD0EPQQ+BDUA--4" 430 352 basechar 0
AnchorPoint: "+BBEENQQ3BEsEPARPBD0EPQQ+BDUA--3" 324 352 basechar 0
AnchorPoint: "+BBEENQQ3BEsEPARPBD0EPQQ+BDUA--2" 324 352 basechar 0
AnchorPoint: "+BBEENQQ3BEsEPARPBD0EPQQ+BDUA--1" 240 352 basechar 0
AnchorPoint: "+BBEENQQ3BEsEPARPBD0EPQQ+BDUA--0" 288 352 basechar 0
LayerCount: 2
Fore
SplineSet
73 136 m 0xbf
 73 148.738484454 35.0974692665 146.866616691 35.0974692665 173.032917549 c 0
 35.0974692665 189.974805716 52.0819739275 238.727388094 97 272 c 0
 127 298 178 305 229 310 c 1
 363.265261177 310 454.008159896 214.052973673 454.008159896 78.2333078305 c 0
 454.008159896 -49.0076350346 366.169075753 -125.15652361 319 -146 c 1
 318 -142 l 1
 321 -138 415 -78 417 77 c 1
 409 186 355 263 242 270 c 1
 103.76370707 267.178851165 79.4012572603 186.74344942 79.4012572603 184.908266753 c 0
 79.4012572603 175.765546836 118.246527778 174.603143586 118.246527778 142.200086806 c 0
 118.246527778 112.701388889 76 75.1666666667 76 56 c 0
 76 47.9658305286 76 31.3551862111 96.3675300902 31.3551862111 c 0
 131.415820252 31.3551862111 143.666666667 123 232 123 c 0
 275 123 297 89 297 66 c 0
 297 21.9734553567 260.006622657 19.588636802 251.990603467 19.588636802 c 0
 235.838048293 19.588636802 220.417424305 28.5084591472 217 53 c 1
 220 55 l 1
 223.850657381 43.9293600309 231.176524666 40.7358625137 237.963049056 40.7358625137 c 0x7f
 257.933103408 40.7358625137 256.548661396 55.9647246487 256 62 c 0
 256 66 253 80 231 80 c 0
 181 80 175 35 147 12 c 0
 128.182528302 -3.0539773586 109.130942725 -9.67985509398 92.2081564118 -9.67985509398 c 0
 59.6687587423 -9.67985509398 35 14.8174716983 35 51 c 0
 35 95 73 129 73 136 c 0xbf
EndSplineSet
Ligature2: "'blws' Below Base Substitutions in Tai Tham lookup 50 subtable" uniE32B uni1A26
Ligature2: "'blws' Below Base Substitutions in Tai Tham lookup 50 subtable" uniE32A uni1A26
Ligature2: "'blws' Below Base Substitutions in Tai Tham lookup 50 subtable" uniE325 uni1A26
Ligature2: "+BB8EPgQ0BEEEQgQwBD0EPgQyBDoEMAAA +BDsEOAQzBDAEQgRDBEAESwAA lookup 26 subtable" uni25CC uni1A26
Ligature2: "'blws' Below Base Substitutions in Tai Tham lookup 24 subtable" uni1A26 uniE440
MultipleSubs2: "+BBwEPQQ+BDYENQRBBEIEMgQ1BD0EPQQwBE8A +BD8EPgQ0BEEEQgQwBD0EPgQyBDoEMAAA lookup 23 subtable" uni1A72 uni1A26
MultipleSubs2: "+BBwEPQQ+BDYENQRBBEIEMgQ1BD0EPQQwBE8A +BD8EPgQ0BEEEQgQwBD0EPgQyBDoEMAAA lookup 22 subtable" uni1A71 uni1A26
MultipleSubs2: "+BBwEPQQ+BDYENQRBBEIEMgQ1BD0EPQQwBE8A +BD8EPgQ0BEEEQgQwBD0EPgQyBDoEMAAA lookup 21 subtable" uni1A70 uni1A26
MultipleSubs2: "+BBwEPQQ+BDYENQRBBEIEMgQ1BD0EPQQwBE8A +BD8EPgQ0BEEEQgQwBD0EPgQyBDoEMAAA lookup 20 subtable" uni1A6F uni1A26
MultipleSubs2: "+BBwEPQQ+BDYENQRBBEIEMgQ1BD0EPQQwBE8A +BD8EPgQ0BEEEQgQwBD0EPgQyBDoEMAAA lookup 19 subtable" uni1A6E uni1A26
MultipleSubs2: "+BBwEPQQ+BDYENQRBBEIEMgQ1BD0EPQQwBE8A +BD8EPgQ0BEEEQgQwBD0EPgQyBDoEMAAA lookup 18 subtable" uni1A55 uni1A26
Ligature2: "'blws' Below Base Substitutions in Tai Tham lookup 15 subtable" uni1A26 uniE441
Ligature2: "'blws' Below Base Substitutions in Tai Tham lookup 15 subtable" uni1A26 uniE442
Ligature2: "'blws' Below Base Substitutions in Tai Tham lookup 15 subtable" uni1A26 uniE443
Ligature2: "'blws' Below Base Substitutions in Tai Tham lookup 15 subtable" uni1A26 uniE444
Ligature2: "'blws' Below Base Substitutions in Tai Tham lookup 15 subtable" uni1A26 uniE445
MultipleSubs2: "+BBwEPQQ+BDYENQRBBEIEMgQ1BD0EPQQwBE8A +BD8EPgQ0BEEEQgQwBD0EPgQyBDoEMAAA lookup 4 subtable" uni1A26.sub
EndChar

StartChar: uni1A27
Encoding: 39 6695 38
Width: 394
VWidth: 1000
GlyphClass: 2
Flags: W
HStem: -10 40<131.128 244.532> 270 40<131.271 244.532>
VStem: 319 40<101.459 198.541>
AnchorPoint: "+BBEENQQ3BEsEPARPBD0EPQQ+BDUA--23" 190 -45 basechar 0
AnchorPoint: "+BBEENQQ3BEsEPARPBD0EPQQ+BDUA--9" 254 -45 basechar 0
AnchorPoint: "+BBEENQQ3BEsEPARPBD0EPQQ+BDUA--8" 237 -45 basechar 0
AnchorPoint: "+BBEENQQ3BEsEPARPBD0EPQQ+BDUA--7" 190 -45 basechar 0
AnchorPoint: "+BBEENQQ3BEsEPARPBD0EPQQ+BDUA--6" 359 -45 basechar 0
AnchorPoint: "+BBEENQQ3BEsEPARPBD0EPQQ+BDUA--5" 203 352 basechar 0
AnchorPoint: "+BBEENQQ3BEsEPARPBD0EPQQ+BDUA--4" 358 352 basechar 0
AnchorPoint: "+BBEENQQ3BEsEPARPBD0EPQQ+BDUA--3" 252 352 basechar 0
AnchorPoint: "+BBEENQQ3BEsEPARPBD0EPQQ+BDUA--2" 252 352 basechar 0
AnchorPoint: "+BBEENQQ3BEsEPARPBD0EPQQ+BDUA--1" 190 352 basechar 0
AnchorPoint: "+BBEENQQ3BEsEPARPBD0EPQQ+BDUA--0" 216 352 basechar 0
LayerCount: 2
Fore
SplineSet
35 219 m 1
 80 300 154 310 189 310 c 0
 282 310 359 239 359 150 c 0
 359 61 282 -10 189 -10 c 0
 97 -10 48 54 35 81 c 1
 94 150 l 1
 35 219 l 1
85 78 m 1
 94 69 122 30 189 30 c 0
 262 30 319 84 319 150 c 0
 319 216 262 270 189 270 c 0
 122 270 94 231 85 222 c 1
 147 150 l 1
 85 78 l 1
EndSplineSet
Ligature2: "'blws' Below Base Substitutions in Tai Tham lookup 50 subtable" uniE32B uni1A27
Ligature2: "'blws' Below Base Substitutions in Tai Tham lookup 50 subtable" uniE32A uni1A27
Ligature2: "'blws' Below Base Substitutions in Tai Tham lookup 50 subtable" uniE325 uni1A27
Ligature2: "+BB8EPgQ0BEEEQgQwBD0EPgQyBDoEMAAA +BDsEOAQzBDAEQgRDBEAESwAA lookup 26 subtable" uni25CC uni1A27
Ligature2: "'blws' Below Base Substitutions in Tai Tham lookup 24 subtable" uni1A27 uniE440
MultipleSubs2: "+BBwEPQQ+BDYENQRBBEIEMgQ1BD0EPQQwBE8A +BD8EPgQ0BEEEQgQwBD0EPgQyBDoEMAAA lookup 23 subtable" uni1A72 uni1A27
MultipleSubs2: "+BBwEPQQ+BDYENQRBBEIEMgQ1BD0EPQQwBE8A +BD8EPgQ0BEEEQgQwBD0EPgQyBDoEMAAA lookup 22 subtable" uni1A71 uni1A27
MultipleSubs2: "+BBwEPQQ+BDYENQRBBEIEMgQ1BD0EPQQwBE8A +BD8EPgQ0BEEEQgQwBD0EPgQyBDoEMAAA lookup 21 subtable" uni1A70 uni1A27
MultipleSubs2: "+BBwEPQQ+BDYENQRBBEIEMgQ1BD0EPQQwBE8A +BD8EPgQ0BEEEQgQwBD0EPgQyBDoEMAAA lookup 20 subtable" uni1A6F uni1A27
MultipleSubs2: "+BBwEPQQ+BDYENQRBBEIEMgQ1BD0EPQQwBE8A +BD8EPgQ0BEEEQgQwBD0EPgQyBDoEMAAA lookup 19 subtable" uni1A6E uni1A27
MultipleSubs2: "+BBwEPQQ+BDYENQRBBEIEMgQ1BD0EPQQwBE8A +BD8EPgQ0BEEEQgQwBD0EPgQyBDoEMAAA lookup 18 subtable" uni1A55 uni1A27
Ligature2: "'blws' Below Base Substitutions in Tai Tham lookup 15 subtable" uni1A27 uniE441
Ligature2: "'blws' Below Base Substitutions in Tai Tham lookup 15 subtable" uni1A27 uniE442
Ligature2: "'blws' Below Base Substitutions in Tai Tham lookup 15 subtable" uni1A27 uniE443
Ligature2: "'blws' Below Base Substitutions in Tai Tham lookup 15 subtable" uni1A27 uniE444
Ligature2: "'blws' Below Base Substitutions in Tai Tham lookup 15 subtable" uni1A27 uniE445
MultipleSubs2: "+BBwEPQQ+BDYENQRBBEIEMgQ1BD0EPQQwBE8A +BD8EPgQ0BEEEQgQwBD0EPgQyBDoEMAAA lookup 4 subtable" uni1A27.sub
EndChar

StartChar: uni1A28
Encoding: 40 6696 39
Width: 463
VWidth: 1000
GlyphClass: 2
Flags: W
HStem: -11.0116 40.0116<72.2894 122.414 220.54 323.063> 64.4728 38.0358<72.2605 134.284> 228 63.794<62.1027 102.95> 297.061 13.9392<299.679 351.872>
VStem: 34.8556 35.9954<31.5866 61.3472> 176 40.0477<92.2383 198.422> 388.013 39.9969<92.9728 201.66>
AnchorPoint: "+BBEENQQ3BEsEPARPBD0EPQQ+BDUA--23" 236 -46 basechar 0
AnchorPoint: "+BBEENQQ3BEsEPARPBD0EPQQ+BDUA--9" 325 -45 basechar 0
AnchorPoint: "+BBEENQQ3BEsEPARPBD0EPQQ+BDUA--8" 308 -45 basechar 0
AnchorPoint: "+BBEENQQ3BEsEPARPBD0EPQQ+BDUA--7" 236 -46 basechar 0
AnchorPoint: "+BBEENQQ3BEsEPARPBD0EPQQ+BDUA--6" 428 -45 basechar 0
AnchorPoint: "+BBEENQQ3BEsEPARPBD0EPQQ+BDUA--5" 274 352 basechar 0
AnchorPoint: "+BBEENQQ3BEsEPARPBD0EPQQ+BDUA--4" 402 352 basechar 0
AnchorPoint: "+BBEENQQ3BEsEPARPBD0EPQQ+BDUA--3" 296 352 basechar 0
AnchorPoint: "+BBEENQQ3BEsEPARPBD0EPQQ+BDUA--2" 296 352 basechar 0
AnchorPoint: "+BBEENQQ3BEsEPARPBD0EPQQ+BDUA--1" 234 352 basechar 0
AnchorPoint: "+BBEENQQ3BEsEPARPBD0EPQQ+BDUA--0" 260 352 basechar 0
LayerCount: 2
Fore
SplineSet
100.900244693 291.794016401 m 0
 157.226627208 291.794016401 216.047727582 229.483923359 216.047727582 147.013983493 c 0
 216.047727582 117.443357425 208.415253346 86.940856759 192 59 c 1
 214 42 237 29 274 29 c 0
 330.5148495 29 388.01274862 72.254183262 388.01274862 145.11699508 c 0
 388.01274862 193.98725138 388.01274862 193.98725138 327 255 c 1
 305.977284454 269.33366969 285.867698184 274.536046634 285.867698184 288.931021602 c 0
 285.867698184 290.441588085 286.35715804 311 313 311 c 0
 337 311 369 296 369 296 c 1
 369 296 370 296 369 294 c 0
 360.459648239 296.13508794 354.059047739 297.060751255 349.684693975 297.060751255 c 0
 344.810818049 297.060751255 342.452379221 295.911607964 342.452379221 294.005817063 c 0
 342.452379221 286.90325385 428.009635498 250.645469482 428.009635498 145.171190222 c 0
 428.009635498 51.9087579108 352.674599812 -11.0115539841 274.826368216 -11.0115539841 c 0
 274.217720834 -11.0115539841 273.608919828 -11.0077078459 273 -11 c 0
 226 -11 193 9 168 27 c 1
 147 5 123 -10 98 -10 c 0
 88.5459060227 -10 34.8555514156 -7.6543343155 34.8555514156 45.6279989064 c 0
 34.8555514156 84.0940020758 65.6803177591 102.508619436 100.440083078 102.508619436 c 0
 120.736123555 102.508619436 142.37373482 96.2304697166 160 84 c 1
 170 102 176 123 176 146 c 0
 175 186 156 237 108 253 c 1
 106 239 95 228 80 228 c 0
 64 228 51 241 51 257 c 0
 51 285.537490985 85.6110778165 291.794016401 100.900244693 291.794016401 c 0
135 52 m 1
 124.424544983 60.3722352215 110.159915093 64.4727942733 97.7674166666 64.4727942733 c 0
 82.9755420098 64.4727942733 70.8509253978 58.6306569417 70.8509253978 47.2373779267 c 0
 70.8509253978 44.0004913788 71.9693702505 30.1224489796 91.1516034985 30.1224489796 c 0
 105.285714286 30.1224489796 123.571428571 38.2857142857 135 52 c 1
EndSplineSet
Ligature2: "'blws' Below Base Substitutions in Tai Tham lookup 50 subtable" uniE32B uni1A28
Ligature2: "'blws' Below Base Substitutions in Tai Tham lookup 50 subtable" uniE32A uni1A28
Ligature2: "'blws' Below Base Substitutions in Tai Tham lookup 50 subtable" uniE325 uni1A28
Ligature2: "+BB8EPgQ0BEEEQgQwBD0EPgQyBDoEMAAA +BDsEOAQzBDAEQgRDBEAESwAA lookup 26 subtable" uni25CC uni1A28
Ligature2: "'blws' Below Base Substitutions in Tai Tham lookup 24 subtable" uni1A28 uniE440
MultipleSubs2: "+BBwEPQQ+BDYENQRBBEIEMgQ1BD0EPQQwBE8A +BD8EPgQ0BEEEQgQwBD0EPgQyBDoEMAAA lookup 23 subtable" uni1A72 uni1A28
MultipleSubs2: "+BBwEPQQ+BDYENQRBBEIEMgQ1BD0EPQQwBE8A +BD8EPgQ0BEEEQgQwBD0EPgQyBDoEMAAA lookup 22 subtable" uni1A71 uni1A28
MultipleSubs2: "+BBwEPQQ+BDYENQRBBEIEMgQ1BD0EPQQwBE8A +BD8EPgQ0BEEEQgQwBD0EPgQyBDoEMAAA lookup 21 subtable" uni1A70 uni1A28
MultipleSubs2: "+BBwEPQQ+BDYENQRBBEIEMgQ1BD0EPQQwBE8A +BD8EPgQ0BEEEQgQwBD0EPgQyBDoEMAAA lookup 20 subtable" uni1A6F uni1A28
MultipleSubs2: "+BBwEPQQ+BDYENQRBBEIEMgQ1BD0EPQQwBE8A +BD8EPgQ0BEEEQgQwBD0EPgQyBDoEMAAA lookup 19 subtable" uni1A6E uni1A28
MultipleSubs2: "+BBwEPQQ+BDYENQRBBEIEMgQ1BD0EPQQwBE8A +BD8EPgQ0BEEEQgQwBD0EPgQyBDoEMAAA lookup 18 subtable" uni1A55 uni1A28
Ligature2: "'blws' Below Base Substitutions in Tai Tham lookup 15 subtable" uni1A28 uniE441
Ligature2: "'blws' Below Base Substitutions in Tai Tham lookup 15 subtable" uni1A28 uniE442
Ligature2: "'blws' Below Base Substitutions in Tai Tham lookup 15 subtable" uni1A28 uniE443
Ligature2: "'blws' Below Base Substitutions in Tai Tham lookup 15 subtable" uni1A28 uniE444
Ligature2: "'blws' Below Base Substitutions in Tai Tham lookup 15 subtable" uni1A28 uniE445
MultipleSubs2: "+BBwEPQQ+BDYENQRBBEIEMgQ1BD0EPQQwBE8A +BD8EPgQ0BEEEQgQwBD0EPgQyBDoEMAAA lookup 4 subtable" uni1A28.sub
EndChar

StartChar: uni1A29
Encoding: 41 6697 40
Width: 498
VWidth: 1000
GlyphClass: 2
Flags: W
HStem: -8.66789 40.4309<78.6607 116.814> 19.5886 21.1472<226.801 255.215> 80 43<194.877 254.315> 154.511 60.489<243.524 284.75> 270 40<171.207 313.29>
VStem: 36 41<33.6404 82.5431 159.95 202.871> 73 45.2517<118.192 145.799> 217 3<51.8633 55> 256 41<41.402 77.4153> 358.078 33.9224<-4.25439 96.8909> 448.595 14.7236<-0.31008 102.397>
AnchorPoint: "+BBEENQQ3BEsEPARPBD0EPQQ+BDUA--23" 244 -45 basechar 0
AnchorPoint: "+BBEENQQ3BEsEPARPBD0EPQQ+BDUA--9" 280 -45 basechar 0
AnchorPoint: "+BBEENQQ3BEsEPARPBD0EPQQ+BDUA--8" 263 -45 basechar 0
AnchorPoint: "+BBEENQQ3BEsEPARPBD0EPQQ+BDUA--7" 244 -45 basechar 0
AnchorPoint: "+BBEENQQ3BEsEPARPBD0EPQQ+BDUA--6" 453 -45 basechar 0
AnchorPoint: "+BBEENQQ3BEsEPARPBD0EPQQ+BDUA--5" 285 352 basechar 0
AnchorPoint: "+BBEENQQ3BEsEPARPBD0EPQQ+BDUA--4" 413 352 basechar 0
AnchorPoint: "+BBEENQQ3BEsEPARPBD0EPQQ+BDUA--3" 307 352 basechar 0
AnchorPoint: "+BBEENQQ3BEsEPARPBD0EPQQ+BDUA--2" 307 352 basechar 0
AnchorPoint: "+BBEENQQ3BEsEPARPBD0EPQQ+BDUA--1" 245 352 basechar 0
AnchorPoint: "+BBEENQQ3BEsEPARPBD0EPQQ+BDUA--0" 271 352 basechar 0
LayerCount: 2
Fore
SplineSet
232 80 m 0x7de0
 161.651132266 80 170.780949039 -8.66788690366 97.3670389201 -8.66788690366 c 0
 66.4470169939 -8.66788690366 36 11.4797994674 36 57 c 0xbde0
 36 99 73 127 73 136 c 0
 73 148.738484454 35.0974692665 146.866616691 35.0974692665 173.032917549 c 0
 35.0974692665 205.043430892 85.3726066815 310 244 310 c 1
 346 305 428 254 456 146 c 0
 461.388059701 122.179104478 463.318110938 99.3232345734 463.318110938 78.8007101937 c 0
 463.318110938 26.9543328135 451 -10 451 -10 c 1
 448 -10 l 1
 448 -10 448.594530321 0.225921521998 448.594530321 15.8805199065 c 0
 448.594530321 45.6242568371 446.448275862 94.9655172414 434 131 c 0
 396 223 345 266 244 270 c 1
 111.885043999 266.429325513 79.4012572603 190.382266525 79.4012572603 184.908266753 c 0
 79.4012572603 175.814074299 118.251697601 174.513105229 118.251697601 142.245706635 c 0xbbe0
 118.251697601 113.713444998 77 77.1063829787 77 57 c 0
 77 47.1080465816 77 31.7630441123 99.1694193936 31.7630441123 c 0
 107.025412329 31.7630441123 110.591916759 37.3327250831 118 44 c 0
 141 64 160 123 232 123 c 0
 275 123 297 89 297 66 c 0
 297 21.9734553567 260.006622657 19.588636802 251.990603467 19.588636802 c 0
 235.838048293 19.588636802 220.417424305 28.5084591472 217 53 c 1
 220 55 l 1
 223.850657381 43.9293600309 231.176524666 40.7358625137 237.963049056 40.7358625137 c 0
 257.933103408 40.7358625137 256.548661396 55.9647246487 256 62 c 0
 256 66 253 80 232 80 c 0x7de0
273 215 m 2
 323 215 392 157 392 55 c 1
 387 -18 357 -63 298 -117 c 1
 295 -115 l 1
 348.193608605 -48.5079892438 358.077625428 -12.6936059998 358.077625428 43.0100451827 c 0
 358.077625428 75.88590177 334.864330144 156.466879078 285 161 c 1
 279.690461025 156.486891871 273.535185927 154.510992114 267.413558199 154.510992114 c 0
 251.494649531 154.510992114 235.8032736 167.872567281 235.8032736 184.725179406 c 0
 235.8032736 203.028279004 254.49404199 213.963860142 269 215 c 1
 273 215 l 2
EndSplineSet
Ligature2: "'blws' Below Base Substitutions in Tai Tham lookup 50 subtable" uniE32B uni1A29
Ligature2: "'blws' Below Base Substitutions in Tai Tham lookup 50 subtable" uniE32A uni1A29
Ligature2: "'blws' Below Base Substitutions in Tai Tham lookup 50 subtable" uniE325 uni1A29
Ligature2: "+BB8EPgQ0BEEEQgQwBD0EPgQyBDoEMAAA +BDsEOAQzBDAEQgRDBEAESwAA lookup 26 subtable" uni25CC uni1A29
Ligature2: "'blws' Below Base Substitutions in Tai Tham lookup 24 subtable" uni1A29 uniE440
MultipleSubs2: "+BBwEPQQ+BDYENQRBBEIEMgQ1BD0EPQQwBE8A +BD8EPgQ0BEEEQgQwBD0EPgQyBDoEMAAA lookup 23 subtable" uni1A72 uni1A29
MultipleSubs2: "+BBwEPQQ+BDYENQRBBEIEMgQ1BD0EPQQwBE8A +BD8EPgQ0BEEEQgQwBD0EPgQyBDoEMAAA lookup 22 subtable" uni1A71 uni1A29
MultipleSubs2: "+BBwEPQQ+BDYENQRBBEIEMgQ1BD0EPQQwBE8A +BD8EPgQ0BEEEQgQwBD0EPgQyBDoEMAAA lookup 21 subtable" uni1A70 uni1A29
MultipleSubs2: "+BBwEPQQ+BDYENQRBBEIEMgQ1BD0EPQQwBE8A +BD8EPgQ0BEEEQgQwBD0EPgQyBDoEMAAA lookup 20 subtable" uni1A6F uni1A29
MultipleSubs2: "+BBwEPQQ+BDYENQRBBEIEMgQ1BD0EPQQwBE8A +BD8EPgQ0BEEEQgQwBD0EPgQyBDoEMAAA lookup 19 subtable" uni1A6E uni1A29
MultipleSubs2: "+BBwEPQQ+BDYENQRBBEIEMgQ1BD0EPQQwBE8A +BD8EPgQ0BEEEQgQwBD0EPgQyBDoEMAAA lookup 18 subtable" uni1A55 uni1A29
Ligature2: "'blws' Below Base Substitutions in Tai Tham lookup 15 subtable" uni1A29 uniE441
Ligature2: "'blws' Below Base Substitutions in Tai Tham lookup 15 subtable" uni1A29 uniE442
Ligature2: "'blws' Below Base Substitutions in Tai Tham lookup 15 subtable" uni1A29 uniE443
Ligature2: "'blws' Below Base Substitutions in Tai Tham lookup 15 subtable" uni1A29 uniE444
Ligature2: "'blws' Below Base Substitutions in Tai Tham lookup 15 subtable" uni1A29 uniE445
MultipleSubs2: "+BBwEPQQ+BDYENQRBBEIEMgQ1BD0EPQQwBE8A +BD8EPgQ0BEEEQgQwBD0EPgQyBDoEMAAA lookup 4 subtable" uni1A29.sub
EndChar

StartChar: uni1A2A
Encoding: 42 6698 41
Width: 500
VWidth: 1000
GlyphClass: 2
Flags: W
HStem: -8.00411 39.9635<78.2278 114.816> 19.5886 21.1472<225.801 254.215> 80 43<194.987 253.315> 154.511 60.489<242.524 283.75> 270 40<168.725 312.29> 597.049 33.9511<179.231 343.01>
VStem: 35 41<33.5883 82.5431 158.518 203.354> 47 40<261 531.658> 47 31.4013<176.345 206.35> 72 45.2517<118.192 145.761> 216 3<51.8633 55> 255 41<41.402 77.4153> 357.078 33.9224<-4.25439 96.8909> 447.595 14.7236<-0.31008 102.397>
AnchorPoint: "+BBEENQQ3BEsEPARPBD0EPQQ+BDUA--23" 244 -45 basechar 0
AnchorPoint: "+BBEENQQ3BEsEPARPBD0EPQQ+BDUA--9" 280 -45 basechar 0
AnchorPoint: "+BBEENQQ3BEsEPARPBD0EPQQ+BDUA--8" 263 -45 basechar 0
AnchorPoint: "+BBEENQQ3BEsEPARPBD0EPQQ+BDUA--7" 244 -45 basechar 0
AnchorPoint: "+BBEENQQ3BEsEPARPBD0EPQQ+BDUA--6" 453 -45 basechar 0
AnchorPoint: "+BBEENQQ3BEsEPARPBD0EPQQ+BDUA--5" 285 352 basechar 0
AnchorPoint: "+BBEENQQ3BEsEPARPBD0EPQQ+BDUA--4" 413 352 basechar 0
AnchorPoint: "+BBEENQQ3BEsEPARPBD0EPQQ+BDUA--3" 307 352 basechar 0
AnchorPoint: "+BBEENQQ3BEsEPARPBD0EPQQ+BDUA--2" 307 352 basechar 0
AnchorPoint: "+BBEENQQ3BEsEPARPBD0EPQQ+BDUA--1" 245 352 basechar 0
AnchorPoint: "+BBEENQQ3BEsEPARPBD0EPQQ+BDUA--0" 271 352 basechar 0
LayerCount: 2
Fore
SplineSet
231 80 m 0x7e3c
 161.564457144 80 168.650934895 -8.00411051055 95.4918168925 -8.00411051055 c 0
 65.116541105 -8.00411051055 35 11.0675953331 35 57 c 0xbe3c
 35 99 72 127 72 136 c 0xbc7c
 72 150.597560976 34.8127602617 143.354997026 34.8127602617 173.681191146 c 0
 34.8127602617 182.827186199 38.1951219512 195.390243902 47 213 c 0xbcbc
 47 220 48 420 48 499 c 0
 48 593 175 631 251 631 c 0
 405 629 501 543 501 543 c 1
 498 539 l 1
 498 539 424.471378662 597.048911583 259.333327459 597.048911583 c 0
 152.495368661 597.048911583 88 545.158102295 88 499 c 0
 88 377 87 304 87 261 c 1xbd3c
 127 294 183 310 243 310 c 0
 345 305 427 254 455 146 c 0
 460.388059701 122.179104478 462.318110938 99.3232345734 462.318110938 78.8007101937 c 0
 462.318110938 26.9543328135 450 -10 450 -10 c 1
 447 -10 l 1
 447 -10 447.594530321 0.225921521998 447.594530321 15.8805199065 c 0
 447.594530321 45.6242568371 445.448275862 94.9655172414 433 131 c 0
 395 223 344 266 243 270 c 1
 110.885043999 266.429325513 78.4012572603 190.382266525 78.4012572603 184.908266753 c 0xbcbc
 78.4012572603 175.814074299 117.251697601 174.513105229 117.251697601 142.245706635 c 0xbc7c
 117.251697601 113.713444998 76 77.1063829787 76 57 c 0
 76 51.005047712 76 31.9593489893 95.6237795471 31.9593489893 c 0
 128.20652497 31.9593489893 144.293103448 123 231 123 c 0
 274 123 296 89 296 66 c 0
 296 21.9734553567 259.006622657 19.588636802 250.990603467 19.588636802 c 0
 234.838048293 19.588636802 219.417424305 28.5084591472 216 53 c 1
 219 55 l 1
 222.850657381 43.9293600309 230.176524666 40.7358625137 236.963049056 40.7358625137 c 0
 256.933103408 40.7358625137 255.548661396 55.9647246487 255 62 c 0
 255 66 252 80 231 80 c 0x7e3c
272 215 m 2
 322 215 391 157 391 55 c 1
 386 -18 356 -63 297 -117 c 1
 294 -115 l 1
 347.193608605 -48.5079892438 357.077625428 -12.6936059998 357.077625428 43.0100451827 c 0
 357.077625428 75.88590177 333.864330144 156.466879078 284 161 c 1
 278.690461025 156.486891871 272.535185927 154.510992114 266.413558199 154.510992114 c 0
 250.494649531 154.510992114 234.8032736 167.872567281 234.8032736 184.725179406 c 0
 234.8032736 203.028279004 253.49404199 213.963860142 268 215 c 1
 272 215 l 2
EndSplineSet
Ligature2: "'blws' Below Base Substitutions in Tai Tham lookup 50 subtable" uniE32B uni1A2A
Ligature2: "'blws' Below Base Substitutions in Tai Tham lookup 50 subtable" uniE32A uni1A2A
Ligature2: "'blws' Below Base Substitutions in Tai Tham lookup 50 subtable" uniE325 uni1A2A
Ligature2: "+BB8EPgQ0BEEEQgQwBD0EPgQyBDoEMAAA +BDsEOAQzBDAEQgRDBEAESwAA lookup 26 subtable" uni25CC uni1A2A
Ligature2: "'blws' Below Base Substitutions in Tai Tham lookup 24 subtable" uni1A2A uniE440
MultipleSubs2: "+BBwEPQQ+BDYENQRBBEIEMgQ1BD0EPQQwBE8A +BD8EPgQ0BEEEQgQwBD0EPgQyBDoEMAAA lookup 23 subtable" uni1A72 uni1A2A
MultipleSubs2: "+BBwEPQQ+BDYENQRBBEIEMgQ1BD0EPQQwBE8A +BD8EPgQ0BEEEQgQwBD0EPgQyBDoEMAAA lookup 22 subtable" uni1A71 uni1A2A
MultipleSubs2: "+BBwEPQQ+BDYENQRBBEIEMgQ1BD0EPQQwBE8A +BD8EPgQ0BEEEQgQwBD0EPgQyBDoEMAAA lookup 21 subtable" uni1A70 uni1A2A
MultipleSubs2: "+BBwEPQQ+BDYENQRBBEIEMgQ1BD0EPQQwBE8A +BD8EPgQ0BEEEQgQwBD0EPgQyBDoEMAAA lookup 20 subtable" uni1A6F uni1A2A
MultipleSubs2: "+BBwEPQQ+BDYENQRBBEIEMgQ1BD0EPQQwBE8A +BD8EPgQ0BEEEQgQwBD0EPgQyBDoEMAAA lookup 19 subtable" uni1A6E uni1A2A
MultipleSubs2: "+BBwEPQQ+BDYENQRBBEIEMgQ1BD0EPQQwBE8A +BD8EPgQ0BEEEQgQwBD0EPgQyBDoEMAAA lookup 18 subtable" uni1A55 uni1A2A
Ligature2: "'blws' Below Base Substitutions in Tai Tham lookup 15 subtable" uni1A2A uniE441
Ligature2: "'blws' Below Base Substitutions in Tai Tham lookup 15 subtable" uni1A2A uniE442
Ligature2: "'blws' Below Base Substitutions in Tai Tham lookup 15 subtable" uni1A2A uniE443
Ligature2: "'blws' Below Base Substitutions in Tai Tham lookup 15 subtable" uni1A2A uniE444
Ligature2: "'blws' Below Base Substitutions in Tai Tham lookup 15 subtable" uni1A2A uniE445
MultipleSubs2: "+BBwEPQQ+BDYENQRBBEIEMgQ1BD0EPQQwBE8A +BD8EPgQ0BEEEQgQwBD0EPgQyBDoEMAAA lookup 4 subtable" uni1A2A.sub
EndChar

StartChar: uni1A2B
Encoding: 43 6699 42
Width: 487
VWidth: 1000
GlyphClass: 2
Flags: W
HStem: -69.0443 37.9822<288.091 374.244> -10 40<132.144 229.809> 270 40<131.96 244.532> 294.246 15.7544<395 445.538>
VStem: 319 40<100.467 198.541> 372 45.8659<270.88 300.066> 399 40<-6.09165 266.329>
AnchorPoint: "+BBEENQQ3BEsEPARPBD0EPQQ+BDUA--23" 203 -61 basechar 0
AnchorPoint: "+BBEENQQ3BEsEPARPBD0EPQQ+BDUA--9" 340 -101 basechar 0
AnchorPoint: "+BBEENQQ3BEsEPARPBD0EPQQ+BDUA--8" 323 -101 basechar 0
AnchorPoint: "+BBEENQQ3BEsEPARPBD0EPQQ+BDUA--7" 203 -61 basechar 0
AnchorPoint: "+BBEENQQ3BEsEPARPBD0EPQQ+BDUA--6" 438 -45 basechar 0
AnchorPoint: "+BBEENQQ3BEsEPARPBD0EPQQ+BDUA--5" 271 352 basechar 0
AnchorPoint: "+BBEENQQ3BEsEPARPBD0EPQQ+BDUA--4" 414 352 basechar 0
AnchorPoint: "+BBEENQQ3BEsEPARPBD0EPQQ+BDUA--3" 293 352 basechar 0
AnchorPoint: "+BBEENQQ3BEsEPARPBD0EPQQ+BDUA--2" 293 352 basechar 0
AnchorPoint: "+BBEENQQ3BEsEPARPBD0EPQQ+BDUA--1" 191 352 basechar 0
AnchorPoint: "+BBEENQQ3BEsEPARPBD0EPQQ+BDUA--0" 257 352 basechar 0
LayerCount: 2
Fore
SplineSet
328.215430364 -31.062072616 m 0xea
 390.467165208 -31.062072616 399 2.42811111816 399 57 c 2
 399 234 l 1xea
 398 272 372 269 372 290 c 0
 372 304 387 310 403 310 c 0
 419 310 432 304 452 296 c 0
 452 295 451 294 451 294 c 1
 446.943058496 294.16227766 443.386463732 294.245553203 440.266114316 294.245553203 c 0
 433.28938958 294.245553203 417.865889701 294.245553203 417.865889701 285.832143263 c 0xdc
 417.865889701 278.002252704 437.090713185 277.09502311 439 237 c 1
 439 57 l 2
 439 22.2013404428 439 -69.0442973835 335.45392264 -69.0442973835 c 0
 278.069945273 -69.0442973835 254.188979525 -50.2231019379 226 -7 c 1
 214 -10 202 -10 189 -10 c 0
 129.314226897 -10 63.3157930329 20.8289398051 35 81 c 1
 94 150 l 1
 35 219 l 1
 52.7728223483 251.314222451 97.629441111 310 189 310 c 0
 282 310 359 239 359 150 c 0
 359 88 321 35 267 8 c 1
 279.46386112 -19.8039978827 299.281465862 -31.062072616 328.215430364 -31.062072616 c 0xea
189 270 m 0
 153 270 119 257 96 235 c 0
 92 231 89 226 85 222 c 1
 105 198 125 174 146 150 c 1
 125 126 105 102 85 78 c 1
 89 74 92 69 96 65 c 0
 119 43 153 30 189 30 c 0
 262 30 319 84 319 150 c 0
 319 216 262 270 189 270 c 0
EndSplineSet
Ligature2: "'blws' Below Base Substitutions in Tai Tham lookup 50 subtable" uniE32B uni1A2B
Ligature2: "'blws' Below Base Substitutions in Tai Tham lookup 50 subtable" uniE32A uni1A2B
Ligature2: "'blws' Below Base Substitutions in Tai Tham lookup 50 subtable" uniE325 uni1A2B
Ligature2: "+BB8EPgQ0BEEEQgQwBD0EPgQyBDoEMAAA +BDsEOAQzBDAEQgRDBEAESwAA lookup 26 subtable" uni25CC uni1A2B
Ligature2: "'blws' Below Base Substitutions in Tai Tham lookup 24 subtable" uni1A2B uniE440
MultipleSubs2: "+BBwEPQQ+BDYENQRBBEIEMgQ1BD0EPQQwBE8A +BD8EPgQ0BEEEQgQwBD0EPgQyBDoEMAAA lookup 23 subtable" uni1A72 uni1A2B
MultipleSubs2: "+BBwEPQQ+BDYENQRBBEIEMgQ1BD0EPQQwBE8A +BD8EPgQ0BEEEQgQwBD0EPgQyBDoEMAAA lookup 22 subtable" uni1A71 uni1A2B
MultipleSubs2: "+BBwEPQQ+BDYENQRBBEIEMgQ1BD0EPQQwBE8A +BD8EPgQ0BEEEQgQwBD0EPgQyBDoEMAAA lookup 21 subtable" uni1A70 uni1A2B
MultipleSubs2: "+BBwEPQQ+BDYENQRBBEIEMgQ1BD0EPQQwBE8A +BD8EPgQ0BEEEQgQwBD0EPgQyBDoEMAAA lookup 20 subtable" uni1A6F uni1A2B
MultipleSubs2: "+BBwEPQQ+BDYENQRBBEIEMgQ1BD0EPQQwBE8A +BD8EPgQ0BEEEQgQwBD0EPgQyBDoEMAAA lookup 19 subtable" uni1A6E uni1A2B
MultipleSubs2: "+BBwEPQQ+BDYENQRBBEIEMgQ1BD0EPQQwBE8A +BD8EPgQ0BEEEQgQwBD0EPgQyBDoEMAAA lookup 18 subtable" uni1A55 uni1A2B
Ligature2: "'blws' Below Base Substitutions in Tai Tham lookup 15 subtable" uni1A2B uniE441
Ligature2: "'blws' Below Base Substitutions in Tai Tham lookup 15 subtable" uni1A2B uniE442
Ligature2: "'blws' Below Base Substitutions in Tai Tham lookup 15 subtable" uni1A2B uniE443
Ligature2: "'blws' Below Base Substitutions in Tai Tham lookup 15 subtable" uni1A2B uniE444
Ligature2: "'blws' Below Base Substitutions in Tai Tham lookup 15 subtable" uni1A2B uniE445
MultipleSubs2: "+BBwEPQQ+BDYENQRBBEIEMgQ1BD0EPQQwBE8A +BD8EPgQ0BEEEQgQwBD0EPgQyBDoEMAAA lookup 4 subtable" uni1A2B.sub
EndChar

StartChar: uni1A2C
Encoding: 44 6700 43
Width: 536
VWidth: 1000
GlyphClass: 2
Flags: W
HStem: -330 33<175.237 371.087> -11 40<100.444 222.53 308.586 416.807> 182 26<61.5044 91.4059> 226 41.8819<159.908 178.428> 263.467 36.5334<431.475 480.352> 270.834 37.2549<82.0939 124.092 214.818 243.56>
VStem: 34.8547 26.1453<209.203 238.061> 35.995 40.005<-232.899 10 49.5088 59.9199> 92 26<208.499 238.414> 261.074 40.2774<71.337 248.096> 455.074 39.9843<73.5459 228.459>
AnchorPoint: "+BBEENQQ3BEsEPARPBD0EPQQ+BDUA--23" 275 -45 basechar 0
AnchorPoint: "+BBEENQQ3BEsEPARPBD0EPQQ+BDUA--9" 376 -46 basechar 0
AnchorPoint: "+BBEENQQ3BEsEPARPBD0EPQQ+BDUA--8" 356 -46 basechar 0
AnchorPoint: "+BBEENQQ3BEsEPARPBD0EPQQ+BDUA--7" 275 -45 basechar 0
AnchorPoint: "+BBEENQQ3BEsEPARPBD0EPQQ+BDUA--6" 504 -45 basechar 0
AnchorPoint: "+BBEENQQ3BEsEPARPBD0EPQQ+BDUA--5" 333 352 basechar 0
AnchorPoint: "+BBEENQQ3BEsEPARPBD0EPQQ+BDUA--4" 471 352 basechar 0
AnchorPoint: "+BBEENQQ3BEsEPARPBD0EPQQ+BDUA--3" 355 352 basechar 0
AnchorPoint: "+BBEENQQ3BEsEPARPBD0EPQQ+BDUA--2" 355 352 basechar 0
AnchorPoint: "+BBEENQQ3BEsEPARPBD0EPQQ+BDUA--1" 275 352 basechar 0
AnchorPoint: "+BBEENQQ3BEsEPARPBD0EPQQ+BDUA--0" 319 352 basechar 0
LayerCount: 2
Fore
SplineSet
261.073582155 142.626604175 m 0xe9e0
 261.073582155 212.123156652 253.206809552 270 227 270 c 0
 213 270 206 226 168 226 c 0
 130.254800319 226 134.825033458 270.833858761 101.089771407 270.833858761 c 0
 93.9513203748 270.833858761 87.1031729828 268.66190379 81 265 c 1
 102 263 118 245 118 224 c 0
 118 201 100 182 77 182 c 0
 76.3730534146 182 34.8547413844 182.093858238 34.8547413844 228.415486483 c 0
 34.8547413844 248.30714524 42.1443036123 308.088710213 109.448191813 308.088710213 c 0
 110.935946431 308.088710213 112.453025995 308.059499 114 308 c 0
 152.436128869 308 162.846029904 267.881851462 170.189230192 267.881851462 c 0xf6e0
 174.597178548 267.881851462 189.530499884 310 227 310 c 0
 276.436619718 307.253521127 286.111375948 268.554496208 289 257 c 0
 294.181245185 236.27501926 301.351031234 192.018971628 301.351031234 147.127674387 c 0
 301.351031234 114.041253772 297.456264445 80.6097532529 286 56 c 1
 317 33 330 29 366 29 c 0
 416.720964806 30.9508063387 455.073582155 47.1727828187 455.073582155 142.626604175 c 0
 455.073582155 145.033671892 455.049193661 147.491123273 455 150 c 0
 455 238.269230769 421.299926036 265.12943787 421.299926036 283.074967285 c 0
 421.299926036 290.812530011 429.654256098 300 440 300 c 0
 465 300 498 253 498 253 c 1
 498 253 497 253 496 252 c 1
 487.402319276 260.597680724 481.946243389 263.466552626 478.757902727 263.466552626 c 0
 476.08473777 263.466552626 475.005668652 261.449890048 475.005668652 259.10210689 c 0
 475.005668652 251.986267477 495.143646367 223.761928677 495.143646367 160.036095919 c 0
 495.143646367 156.720994117 495.093836321 153.378107569 495 150 c 0
 495.038619288 147.798700589 495.057849734 145.62312868 495.057849734 143.473097077 c 0
 495.057849734 34.2781651248 445.455228483 -9.03861928792 367 -11 c 0
 322 -10 290 3 264 24 c 1
 239 -2 205 -10 173 -11 c 0
 136 -11 102 -7 75 10 c 1
 75 -19 76 -71 76 -198 c 0
 76 -277 202 -297 276 -297 c 0
 445 -297 509 -249 509 -249 c 1
 510 -251 l 1
 510 -251 426 -330 275 -330 c 0
 184.30403763 -330 35.9949922695 -312.120077693 35.9949922695 -199.139434947 c 0
 35.9949922695 -198.529473939 36.28 -177.639753172 36.28 -138.144 c 0
 36.28 -50.08 35 60 35 60 c 2
 35 79.1261957742 54.1645106173 79.52 54.44 79.52 c 0
 65.96 79.52 73 68 73 68 c 1
 93 31 134 29 172 29 c 0
 222.720964806 30.9508063387 261.073582155 47.1727828187 261.073582155 142.626604175 c 0xe9e0
77 239 m 0
 68 239 61 233 61 224 c 0
 61 215 68 208 77 208 c 0
 86 208 92 215 92 224 c 0
 92 233 86 239 77 239 c 0
EndSplineSet
Ligature2: "'blws' Below Base Substitutions in Tai Tham lookup 50 subtable" uniE32B uni1A2C
Ligature2: "'blws' Below Base Substitutions in Tai Tham lookup 50 subtable" uniE32A uni1A2C
Ligature2: "'blws' Below Base Substitutions in Tai Tham lookup 50 subtable" uniE325 uni1A2C
Ligature2: "+BB8EPgQ0BEEEQgQwBD0EPgQyBDoEMAAA +BDsEOAQzBDAEQgRDBEAESwAA lookup 26 subtable" uni25CC uni1A2C
Ligature2: "'blws' Below Base Substitutions in Tai Tham lookup 24 subtable" uni1A2C uniE440
MultipleSubs2: "+BBwEPQQ+BDYENQRBBEIEMgQ1BD0EPQQwBE8A +BD8EPgQ0BEEEQgQwBD0EPgQyBDoEMAAA lookup 23 subtable" uni1A72 uni1A2C
MultipleSubs2: "+BBwEPQQ+BDYENQRBBEIEMgQ1BD0EPQQwBE8A +BD8EPgQ0BEEEQgQwBD0EPgQyBDoEMAAA lookup 22 subtable" uni1A71 uni1A2C
MultipleSubs2: "+BBwEPQQ+BDYENQRBBEIEMgQ1BD0EPQQwBE8A +BD8EPgQ0BEEEQgQwBD0EPgQyBDoEMAAA lookup 21 subtable" uni1A70 uni1A2C
MultipleSubs2: "+BBwEPQQ+BDYENQRBBEIEMgQ1BD0EPQQwBE8A +BD8EPgQ0BEEEQgQwBD0EPgQyBDoEMAAA lookup 20 subtable" uni1A6F uni1A2C
MultipleSubs2: "+BBwEPQQ+BDYENQRBBEIEMgQ1BD0EPQQwBE8A +BD8EPgQ0BEEEQgQwBD0EPgQyBDoEMAAA lookup 19 subtable" uni1A6E uni1A2C
MultipleSubs2: "+BBwEPQQ+BDYENQRBBEIEMgQ1BD0EPQQwBE8A +BD8EPgQ0BEEEQgQwBD0EPgQyBDoEMAAA lookup 18 subtable" uni1A55 uni1A2C
Ligature2: "'blws' Below Base Substitutions in Tai Tham lookup 15 subtable" uni1A2C uniE441
Ligature2: "'blws' Below Base Substitutions in Tai Tham lookup 15 subtable" uni1A2C uniE442
Ligature2: "'blws' Below Base Substitutions in Tai Tham lookup 15 subtable" uni1A2C uniE443
Ligature2: "'blws' Below Base Substitutions in Tai Tham lookup 15 subtable" uni1A2C uniE444
Ligature2: "'blws' Below Base Substitutions in Tai Tham lookup 15 subtable" uni1A2C uniE445
MultipleSubs2: "+BBwEPQQ+BDYENQRBBEIEMgQ1BD0EPQQwBE8A +BD8EPgQ0BEEEQgQwBD0EPgQyBDoEMAAA lookup 4 subtable" uni1A2C.sub
EndChar

StartChar: uni1A2D
Encoding: 45 6701 44
Width: 449
VWidth: 1000
GlyphClass: 2
Flags: W
HStem: -10.0887 40.0887<91.0302 171.512 251.105 325.752> 20 50.0172<195.558 227.211> 161 26<192.499 222.479> 268.817 41.1832<97.3125 180.605> 277.056 21.9442<316.744 366.769>
VStem: 35 40<44.862 98.3287 194.474 248.496> 166 26<187.594 216.348> 223 26.077<187.583 216.436> 304.949 56.3346<259.45 286.01> 374 40<88.4363 200.617>
AnchorPoint: "+BBEENQQ3BEsEPARPBD0EPQQ+BDUA--23" 212 -45 basechar 0
AnchorPoint: "+BBEENQQ3BEsEPARPBD0EPQQ+BDUA--9" 298 -45 basechar 0
AnchorPoint: "+BBEENQQ3BEsEPARPBD0EPQQ+BDUA--8" 277 -45 basechar 0
AnchorPoint: "+BBEENQQ3BEsEPARPBD0EPQQ+BDUA--7" 212 -45 basechar 0
AnchorPoint: "+BBEENQQ3BEsEPARPBD0EPQQ+BDUA--6" 415 -45 basechar 0
AnchorPoint: "+BBEENQQ3BEsEPARPBD0EPQQ+BDUA--5" 254 352 basechar 0
AnchorPoint: "+BBEENQQ3BEsEPARPBD0EPQQ+BDUA--4" 402 352 basechar 0
AnchorPoint: "+BBEENQQ3BEsEPARPBD0EPQQ+BDUA--3" 276 352 basechar 0
AnchorPoint: "+BBEENQQ3BEsEPARPBD0EPQQ+BDUA--2" 276 352 basechar 0
AnchorPoint: "+BBEENQQ3BEsEPARPBD0EPQQ+BDUA--1" 214 352 basechar 0
AnchorPoint: "+BBEENQQ3BEsEPARPBD0EPQQ+BDUA--0" 240 352 basechar 0
LayerCount: 2
Fore
SplineSet
211 20 m 0x6fc0
 208.279068235 20 186.413576686 -10.0887247643 125.15460848 -10.0887247643 c 0
 83.0197902999 -10.0887247643 35 21.3939037502 35 67 c 0
 35 106 61 135 79 142 c 0
 82 143 87 145 87 147 c 0
 87 150 83 150 79 152 c 0
 60 159 36 188 36 221 c 0
 37 272 81 310 136 310 c 2
 142 310 l 2
 212.151412196 309.025674831 249.076990642 250.143467983 249.076990642 205.498401044 c 0
 249.076990642 180.241563527 228.676903848 161 208 161 c 0
 185 161 166 179 166 202 c 0
 166 222 181 238 200 242 c 1
 182.699544691 260.507463819 159.247862423 268.816840836 137.3951761 268.816840836 c 0xb7c0
 104.933366352 268.816840836 76 250.480855331 76 220 c 0
 76 177.477218225 139.259181378 182.439262639 139.259181378 142.906425229 c 0
 139.259181378 107.099564771 75 121.041958042 75 67 c 0
 75 45 104 30 129 30 c 0
 186.617290993 31.0108296665 186.281352018 70.0171768393 213.853955795 70.0171768393 c 0
 237.815707369 70.0171768393 242.434292631 28.9828231607 287.396044205 28.9828231607 c 0
 343.525380899 28.9828231607 374 98.865586829 374 137 c 0
 374 240.775147929 304.949336508 251.025979483 304.949336508 278.88729034 c 0
 304.949336508 284.882068633 309.552113934 299 326 299 c 0
 351 299 388 271 388 271 c 1
 387 269 l 1
 376.207991802 274.611844263 368.770245903 277.055774132 364.767205028 277.055774132 c 0
 362.450200547 277.055774132 361.283898796 276.23700316 361.283898796 274.739852396 c 0
 361.283898796 260.524683041 414 244.83386624 414 138 c 0
 414 68 366 -10 287 -10 c 0
 232 -10 220 20 211 20 c 0x6fc0
208 217 m 0
 199 217 192 211 192 202 c 0
 192 193 199 187 208 187 c 0
 217 187 223 193 223 202 c 0
 223 210 217 217 208 217 c 0
EndSplineSet
Ligature2: "'blws' Below Base Substitutions in Tai Tham lookup 50 subtable" uniE32B uni1A2D
Ligature2: "'blws' Below Base Substitutions in Tai Tham lookup 50 subtable" uniE32A uni1A2D
Ligature2: "'blws' Below Base Substitutions in Tai Tham lookup 50 subtable" uniE325 uni1A2D
Ligature2: "+BB8EPgQ0BEEEQgQwBD0EPgQyBDoEMAAA +BDsEOAQzBDAEQgRDBEAESwAA lookup 26 subtable" uni25CC uni1A2D
Ligature2: "'blws' Below Base Substitutions in Tai Tham lookup 24 subtable" uni1A2D uniE440
MultipleSubs2: "+BBwEPQQ+BDYENQRBBEIEMgQ1BD0EPQQwBE8A +BD8EPgQ0BEEEQgQwBD0EPgQyBDoEMAAA lookup 23 subtable" uni1A72 uni1A2D
MultipleSubs2: "+BBwEPQQ+BDYENQRBBEIEMgQ1BD0EPQQwBE8A +BD8EPgQ0BEEEQgQwBD0EPgQyBDoEMAAA lookup 22 subtable" uni1A71 uni1A2D
MultipleSubs2: "+BBwEPQQ+BDYENQRBBEIEMgQ1BD0EPQQwBE8A +BD8EPgQ0BEEEQgQwBD0EPgQyBDoEMAAA lookup 21 subtable" uni1A70 uni1A2D
MultipleSubs2: "+BBwEPQQ+BDYENQRBBEIEMgQ1BD0EPQQwBE8A +BD8EPgQ0BEEEQgQwBD0EPgQyBDoEMAAA lookup 20 subtable" uni1A6F uni1A2D
MultipleSubs2: "+BBwEPQQ+BDYENQRBBEIEMgQ1BD0EPQQwBE8A +BD8EPgQ0BEEEQgQwBD0EPgQyBDoEMAAA lookup 19 subtable" uni1A6E uni1A2D
MultipleSubs2: "+BBwEPQQ+BDYENQRBBEIEMgQ1BD0EPQQwBE8A +BD8EPgQ0BEEEQgQwBD0EPgQyBDoEMAAA lookup 18 subtable" uni1A55 uni1A2D
Ligature2: "'blws' Below Base Substitutions in Tai Tham lookup 15 subtable" uni1A2D uniE441
Ligature2: "'blws' Below Base Substitutions in Tai Tham lookup 15 subtable" uni1A2D uniE442
Ligature2: "'blws' Below Base Substitutions in Tai Tham lookup 15 subtable" uni1A2D uniE443
Ligature2: "'blws' Below Base Substitutions in Tai Tham lookup 15 subtable" uni1A2D uniE444
Ligature2: "'blws' Below Base Substitutions in Tai Tham lookup 15 subtable" uni1A2D uniE445
MultipleSubs2: "+BBwEPQQ+BDYENQRBBEIEMgQ1BD0EPQQwBE8A +BD8EPgQ0BEEEQgQwBD0EPgQyBDoEMAAA lookup 4 subtable" uni1A2D.sub
EndChar

StartChar: uni1A2E
Encoding: 46 6702 45
Width: 450
VWidth: 1000
GlyphClass: 2
Flags: W
HStem: -328.764 40.7645<128.914 301.701> -117.915 26.5908<148.829 281.703> -10.0228 40.0228<92.1514 172.548 251.299 328.723> 20 50.0168<196.55 228.207> 161 26<193.499 223.611> 267.955 42.3391<97.2709 182.387> 277.056 21.9959<317.872 367.769>
VStem: 35.9849 40.0151<-251.251 -170.927 45.3417 97.8705 195.237 247.325> 167 26<187.594 216.379> 224 26.7292<187.501 216.375> 305.925 56.3589<259.383 286.159> 375 40<-235.081 28 86.885 201.215>
AnchorPoint: "+BBEENQQ3BEsEPARPBD0EPQQ+BDUA--23" 212 -45 basechar 0
AnchorPoint: "+BBEENQQ3BEsEPARPBD0EPQQ+BDUA--12" 212 -345 basechar 0
AnchorPoint: "+BBEENQQ3BEsEPARPBD0EPQQ+BDUA--11" 277 -345 basechar 0
AnchorPoint: "+BBEENQQ3BEsEPARPBD0EPQQ+BDUA--10" 298 -345 basechar 0
AnchorPoint: "+BBEENQQ3BEsEPARPBD0EPQQ+BDUA--9" 298 -45 basechar 0
AnchorPoint: "+BBEENQQ3BEsEPARPBD0EPQQ+BDUA--8" 277 -45 basechar 0
AnchorPoint: "+BBEENQQ3BEsEPARPBD0EPQQ+BDUA--7" 212 -45 basechar 0
AnchorPoint: "+BBEENQQ3BEsEPARPBD0EPQQ+BDUA--6" 415 -45 basechar 0
AnchorPoint: "+BBEENQQ3BEsEPARPBD0EPQQ+BDUA--5" 254 352 basechar 0
AnchorPoint: "+BBEENQQ3BEsEPARPBD0EPQQ+BDUA--4" 402 352 basechar 0
AnchorPoint: "+BBEENQQ3BEsEPARPBD0EPQQ+BDUA--3" 276 352 basechar 0
AnchorPoint: "+BBEENQQ3BEsEPARPBD0EPQQ+BDUA--2" 276 352 basechar 0
AnchorPoint: "+BBEENQQ3BEsEPARPBD0EPQQ+BDUA--1" 214 352 basechar 0
AnchorPoint: "+BBEENQQ3BEsEPARPBD0EPQQ+BDUA--0" 240 352 basechar 0
LayerCount: 2
Fore
SplineSet
217.389945094 -328.764476896 m 0xdbf0
 175.106537363 -328.764476896 35 -320.853584806 35 -216 c 0
 35 -168.532814531 63.8401113138 -91.3242642686 201.946670062 -91.3242642686 c 0
 224.708704125 -91.3242642686 305.86968776 -95.2509189061 370 -148 c 1
 369 -150 l 1
 369 -150 313.323265306 -117.915102041 231.304559767 -117.915102041 c 0
 190.980488618 -117.915102041 75 -125.75885422 75 -216 c 0
 75 -259 113 -287 225 -288 c 0
 277 -288 375 -270 375 -200 c 2
 375 28 l 1
 354 4 324 -10 288 -10 c 0
 233 -10 221 20 212 20 c 0xdbf0
 209.964494237 20 185.991302494 -10.0227937968 127.8979928 -10.0227937968 c 0
 82.9834562103 -10.0227937968 35.9849465741 21.0556304202 35.9849465741 65.6168718546 c 0
 35.9849465741 110.716898033 65.7970072633 136.476613936 80 142 c 0
 92 146 90 148 80 152 c 0
 61 159 37 188 37 221 c 0
 37.5930501782 274.967566217 85.3150412155 310.294581199 136.989748168 310.294581199 c 0
 206.235048237 310.294581199 250.72918826 248.387409462 250.72918826 208.379012065 c 0
 250.72918826 179.524348851 230.096148491 161 209 161 c 0
 186 161 167 179 167 202 c 0
 167 222 182 238 201 242 c 1
 183.9973646 259.812284705 160.603292232 267.955472458 138.712704399 267.955472458 c 0
 106.529046248 267.955472458 77.5951753476 250.353942729 77 220 c 0
 77 178.489250851 140.262769168 180.584650377 140.262769168 142.855922276 c 0
 140.262769168 107.182001056 76.9645482484 121.979250157 76 67 c 0
 76 45 105 30 130 30 c 0xedf0
 187.605449481 31.0106219207 187.30449301 70.016792228 214.834939499 70.016792228 c 0
 238.81960726 70.016792228 243.424837185 27.983207772 288.431727167 27.983207772 c 0
 343.389741891 27.983207772 373.038975941 93.7795188115 375 133 c 1
 375 146 l 1
 373.1332181 239.339095011 305.925036269 252.526072773 305.925036269 279.077509377 c 0
 305.925036269 279.370356404 306.704756684 299.051714915 327.340566304 299.051714915 c 0
 351.648775538 299.051714915 386.812132414 271.729289195 389 271 c 1
 388 269 l 1
 377.207991802 274.611844263 369.770245903 277.055774132 365.767205028 277.055774132 c 0
 363.450200547 277.055774132 362.283898796 276.23700316 362.283898796 274.739852396 c 0
 362.283898796 261.877188803 415 236.116839947 415 150 c 2
 415 -200 l 2
 415 -290.377481298 314.159393509 -328.764476896 217.389945094 -328.764476896 c 0xdbf0
224 202 m 0
 224 212 216.25 217 208.5 217 c 0
 200.75 217 193 212 193 202 c 0
 193 193 200 187 209 187 c 0
 218 187 224 193 224 202 c 0
EndSplineSet
Ligature2: "'blws' Below Base Substitutions in Tai Tham lookup 50 subtable" uniE32B uni1A2E
Ligature2: "'blws' Below Base Substitutions in Tai Tham lookup 50 subtable" uniE32A uni1A2E
Ligature2: "'blws' Below Base Substitutions in Tai Tham lookup 50 subtable" uniE325 uni1A2E
Ligature2: "'blws' Below Base Substitutions in Tai Tham lookup 47 subtable" uni1A2D uni1A5B
MultipleSubs2: "'blws' Below Base Substitutions in Tai Tham lookup 46 subtable" uni1A33 uni1A5B
Ligature2: "+BB8EPgQ0BEEEQgQwBD0EPgQyBDoEMAAA +BDsEOAQzBDAEQgRDBEAESwAA lookup 26 subtable" uni25CC uni1A2E
Ligature2: "'blws' Below Base Substitutions in Tai Tham lookup 24 subtable" uni1A2E uniE440
MultipleSubs2: "+BBwEPQQ+BDYENQRBBEIEMgQ1BD0EPQQwBE8A +BD8EPgQ0BEEEQgQwBD0EPgQyBDoEMAAA lookup 23 subtable" uni1A72 uni1A2E
MultipleSubs2: "+BBwEPQQ+BDYENQRBBEIEMgQ1BD0EPQQwBE8A +BD8EPgQ0BEEEQgQwBD0EPgQyBDoEMAAA lookup 22 subtable" uni1A71 uni1A2E
MultipleSubs2: "+BBwEPQQ+BDYENQRBBEIEMgQ1BD0EPQQwBE8A +BD8EPgQ0BEEEQgQwBD0EPgQyBDoEMAAA lookup 21 subtable" uni1A70 uni1A2E
MultipleSubs2: "+BBwEPQQ+BDYENQRBBEIEMgQ1BD0EPQQwBE8A +BD8EPgQ0BEEEQgQwBD0EPgQyBDoEMAAA lookup 20 subtable" uni1A6F uni1A2E
MultipleSubs2: "+BBwEPQQ+BDYENQRBBEIEMgQ1BD0EPQQwBE8A +BD8EPgQ0BEEEQgQwBD0EPgQyBDoEMAAA lookup 19 subtable" uni1A6E uni1A2E
MultipleSubs2: "+BBwEPQQ+BDYENQRBBEIEMgQ1BD0EPQQwBE8A +BD8EPgQ0BEEEQgQwBD0EPgQyBDoEMAAA lookup 18 subtable" uni1A55 uni1A2E
Ligature2: "'blws' Below Base Substitutions in Tai Tham lookup 15 subtable" uni1A2E uniE441
Ligature2: "'blws' Below Base Substitutions in Tai Tham lookup 15 subtable" uni1A2E uniE442
Ligature2: "'blws' Below Base Substitutions in Tai Tham lookup 15 subtable" uni1A2E uniE443
Ligature2: "'blws' Below Base Substitutions in Tai Tham lookup 15 subtable" uni1A2E uniE444
Ligature2: "'blws' Below Base Substitutions in Tai Tham lookup 15 subtable" uni1A2E uniE445
MultipleSubs2: "+BBwEPQQ+BDYENQRBBEIEMgQ1BD0EPQQwBE8A +BD8EPgQ0BEEEQgQwBD0EPgQyBDoEMAAA lookup 4 subtable" uni1A2E.sub
EndChar

StartChar: uni1A2F
Encoding: 47 6703 46
Width: 453
VWidth: 1000
GlyphClass: 2
Flags: W
HStem: 0 40<93 318.19> 182 26<74.7169 104.482> 275.506 36.4942<98.3736 172.767 272.5 339.386>
VStem: 48.4778 25.5222<208.431 237.302> 105 26<208.518 237.425> 369 40<178.62 248.425> 496.009 16.4754<-219.564 -141.413>
AnchorPoint: "+BBEENQQ3BEsEPARPBD0EPQQ+BDUA--23" 221 -45 basechar 0
AnchorPoint: "+BBEENQQ3BEsEPARPBD0EPQQ+BDUA--9" 329 -45 basechar 0
AnchorPoint: "+BBEENQQ3BEsEPARPBD0EPQQ+BDUA--8" 308 -45 basechar 0
AnchorPoint: "+BBEENQQ3BEsEPARPBD0EPQQ+BDUA--7" 221 -45 basechar 0
AnchorPoint: "+BBEENQQ3BEsEPARPBD0EPQQ+BDUA--6" 425 -45 basechar 0
AnchorPoint: "+BBEENQQ3BEsEPARPBD0EPQQ+BDUA--5" 255 352 basechar 0
AnchorPoint: "+BBEENQQ3BEsEPARPBD0EPQQ+BDUA--4" 402 352 basechar 0
AnchorPoint: "+BBEENQQ3BEsEPARPBD0EPQQ+BDUA--3" 315 352 basechar 0
AnchorPoint: "+BBEENQQ3BEsEPARPBD0EPQQ+BDUA--2" 315 352 basechar 0
AnchorPoint: "+BBEENQQ3BEsEPARPBD0EPQQ+BDUA--1" 222 352 basechar 0
AnchorPoint: "+BBEENQQ3BEsEPARPBD0EPQQ+BDUA--0" 241 352 basechar 0
LayerCount: 2
Fore
SplineSet
221.226900779 223.381426999 m 0
 197.16555527 223.381426999 186.613095434 275.505813464 135.490774776 275.505813464 c 0
 116.45021494 275.505813464 101.569490902 267.06176969 97 263 c 1
 116 259 131 243 131 223 c 0
 131 200 113 182 90 182 c 0
 63.0179534974 182 48.477840184 205.106447351 48.477840184 231.836240899 c 0
 48.477840184 268.508116565 75.8458255667 312 136 312 c 0
 170 312 200 299 222 273 c 1
 244.715759018 300.04257026 275.362066833 312.134105903 305.266672459 312.134105903 c 0
 358.299650072 312.134105903 409 274.106645274 409 214 c 0
 409 110 289 103 228 94 c 0
 148 82 111 59 93 40 c 1
 157 40 161 39 221 39 c 0
 431.167122891 37.7415142342 512.484044598 -72.2847714466 512.484044598 -162.468959902 c 0
 512.484044598 -207.793156478 496 -245 496 -245 c 1
 491 -245 l 1
 491 -245 496.008653326 -224.249864792 496.008653326 -195.795389085 c 0
 496.008653326 -72.0677936445 398.748644779 -2.13941438961 221 -1 c 0
 152 0 147 0 55 0 c 2
 44 0 l 1
 35 -1 l 1
 33 24 45 107 222 134 c 0
 293 145 369 150 369 214 c 0
 369 252.154860031 337.215945377 271.90842528 305.561419167 271.90842528 c 0
 251.78871597 271.90842528 247.586888914 223.381426999 221.226900779 223.381426999 c 0
90 238 m 0
 81 238 74 232 74 223 c 0
 74 214 81 208 90 208 c 0
 99 208 105 214 105 223 c 0
 105 232 99 238 90 238 c 0
EndSplineSet
Ligature2: "'blws' Below Base Substitutions in Tai Tham lookup 50 subtable" uniE32B uni1A2F
Ligature2: "'blws' Below Base Substitutions in Tai Tham lookup 50 subtable" uniE32A uni1A2F
Ligature2: "'blws' Below Base Substitutions in Tai Tham lookup 50 subtable" uniE325 uni1A2F
Ligature2: "+BB8EPgQ0BEEEQgQwBD0EPgQyBDoEMAAA +BDsEOAQzBDAEQgRDBEAESwAA lookup 26 subtable" uni25CC uni1A2F
Ligature2: "'blws' Below Base Substitutions in Tai Tham lookup 24 subtable" uni1A2F uniE440
MultipleSubs2: "+BBwEPQQ+BDYENQRBBEIEMgQ1BD0EPQQwBE8A +BD8EPgQ0BEEEQgQwBD0EPgQyBDoEMAAA lookup 23 subtable" uni1A72 uni1A2F
MultipleSubs2: "+BBwEPQQ+BDYENQRBBEIEMgQ1BD0EPQQwBE8A +BD8EPgQ0BEEEQgQwBD0EPgQyBDoEMAAA lookup 22 subtable" uni1A71 uni1A2F
MultipleSubs2: "+BBwEPQQ+BDYENQRBBEIEMgQ1BD0EPQQwBE8A +BD8EPgQ0BEEEQgQwBD0EPgQyBDoEMAAA lookup 21 subtable" uni1A70 uni1A2F
MultipleSubs2: "+BBwEPQQ+BDYENQRBBEIEMgQ1BD0EPQQwBE8A +BD8EPgQ0BEEEQgQwBD0EPgQyBDoEMAAA lookup 20 subtable" uni1A6F uni1A2F
MultipleSubs2: "+BBwEPQQ+BDYENQRBBEIEMgQ1BD0EPQQwBE8A +BD8EPgQ0BEEEQgQwBD0EPgQyBDoEMAAA lookup 19 subtable" uni1A6E uni1A2F
MultipleSubs2: "+BBwEPQQ+BDYENQRBBEIEMgQ1BD0EPQQwBE8A +BD8EPgQ0BEEEQgQwBD0EPgQyBDoEMAAA lookup 18 subtable" uni1A55 uni1A2F
Ligature2: "'blws' Below Base Substitutions in Tai Tham lookup 15 subtable" uni1A2F uniE441
Ligature2: "'blws' Below Base Substitutions in Tai Tham lookup 15 subtable" uni1A2F uniE442
Ligature2: "'blws' Below Base Substitutions in Tai Tham lookup 15 subtable" uni1A2F uniE443
Ligature2: "'blws' Below Base Substitutions in Tai Tham lookup 15 subtable" uni1A2F uniE444
Ligature2: "'blws' Below Base Substitutions in Tai Tham lookup 15 subtable" uni1A2F uniE445
MultipleSubs2: "+BBwEPQQ+BDYENQRBBEIEMgQ1BD0EPQQwBE8A +BD8EPgQ0BEEEQgQwBD0EPgQyBDoEMAAA lookup 4 subtable" uni1A2F.sub
EndChar

StartChar: uni1A30
Encoding: 48 6704 47
Width: 446
VWidth: 1000
GlyphClass: 2
Flags: W
HStem: -10 40<87.7705 136.551 240.955 306.241> 42.2582 41.8562<178.998 199.773> 183 26<61.672 91.5006> 226 42.8819<160.172 178.839> 270.834 37.2782<81.5406 125.448 214.475 245.891> 278.056 21.8371<319.882 369.769>
VStem: 34.7868 26.2132<209.272 238.469> 38 40<40.0746 90.5386> 92 26<209.594 238.338> 251 40<216.207 266.45> 308.153 56.1314<261.512 287.686> 371.013 40.1884<97.9986 208.801>
AnchorPoint: "+BBEENQQ3BEsEPARPBD0EPQQ+BDUA--23" 212 -45 basechar 0
AnchorPoint: "+BBEENQQ3BEsEPARPBD0EPQQ+BDUA--9" 288 -45 basechar 0
AnchorPoint: "+BBEENQQ3BEsEPARPBD0EPQQ+BDUA--8" 262 -45 basechar 0
AnchorPoint: "+BBEENQQ3BEsEPARPBD0EPQQ+BDUA--7" 212 -45 basechar 0
AnchorPoint: "+BBEENQQ3BEsEPARPBD0EPQQ+BDUA--6" 408 -45 basechar 0
AnchorPoint: "+BBEENQQ3BEsEPARPBD0EPQQ+BDUA--5" 274 352 basechar 0
AnchorPoint: "+BBEENQQ3BEsEPARPBD0EPQQ+BDUA--4" 402 352 basechar 0
AnchorPoint: "+BBEENQQ3BEsEPARPBD0EPQQ+BDUA--3" 296 352 basechar 0
AnchorPoint: "+BBEENQQ3BEsEPARPBD0EPQQ+BDUA--2" 296 352 basechar 0
AnchorPoint: "+BBEENQQ3BEsEPARPBD0EPQQ+BDUA--1" 234 352 basechar 0
AnchorPoint: "+BBEENQQ3BEsEPARPBD0EPQQ+BDUA--0" 260 352 basechar 0
LayerCount: 2
Fore
SplineSet
76 183 m 0xf9f0
 60.2874616306 183.71420629 34.7867825671 191.051236122 34.7867825671 231.156340787 c 0
 34.7867825671 259.876243254 48.0578589531 308.112047479 108.848126836 308.112047479 c 0xfaf0
 110.528852542 308.112047479 112.245902326 308.075175615 114 308 c 4
 151.65879182 308 163.199223982 268.881851462 170.189230192 268.881851462 c 0
 174.596586166 268.881851462 189.865360656 311 226 311 c 0
 248 311 291 294 291 239 c 0
 288 155 162 143 102 101 c 0
 85 89 78 80 78 68 c 0
 78 35 107 30 115 30 c 0
 145.343018951 30 148.218956159 84.1143984221 192.003118731 84.1143984221 c 0
 229.122287968 84.1143984221 231.820512821 30 263 30 c 0
 315.532921259 30 371.013198676 83.0524108453 371.013198676 148.257889033 c 0
 371.013198676 242.746644533 308.152537471 255.610593368 308.152537471 280.949039278 c 0
 308.152537471 285.60974183 311.877973107 299.892878397 329.502700392 299.892878397 c 0
 354.524697481 299.892878397 391 272 391 272 c 1
 390 270 l 1
 379.207991802 275.611844263 371.770245903 278.055774132 367.767205028 278.055774132 c 0xf5f0
 365.450200547 278.055774132 364.283898796 277.23700316 364.283898796 275.739852396 c 0
 364.283898796 273.831673835 366.178500307 270.821499693 370 267 c 0
 392.22449473 244.77550527 411.201598494 200.144012871 411.201598494 151.61106727 c 0
 411.201598494 60.2491749777 341.31289169 -10 263 -10 c 0
 214.896861002 -10 197.313558454 42.2581547442 189.095080438 42.2581547442 c 0
 180.40013491 42.2581547442 165.542392087 -10.0378673546 116.191701787 -10.0378673546 c 0
 115.466316316 -10.0378673546 114.735732725 -10.025370094 114 -10 c 0
 76 -10 38 19 38 68 c 0
 38 167 251 176 251 239 c 0
 251 257 242 271 226 271 c 0
 215 271 203 226 168 226 c 0
 133.0086376 226 135.829248226 270.833858761 100.752562252 270.833858761 c 0
 93.3238075794 270.833858761 86.1031729828 268.66190379 80 265 c 1
 101 263 118 245 118 224 c 0
 118 201 99 183 76 183 c 0xf9f0
76 239 m 0
 67 239 61 233 61 224 c 0
 61 215 67 209 76 209 c 0
 85 209 92 215 92 224 c 0
 92 233 85 239 76 239 c 0
EndSplineSet
LCarets2: 1 0
Ligature2: "'blws' Below Base Substitutions in Tai Tham lookup 50 subtable" uniE32B uni1A30
Ligature2: "'blws' Below Base Substitutions in Tai Tham lookup 50 subtable" uniE32A uni1A30
Ligature2: "'blws' Below Base Substitutions in Tai Tham lookup 50 subtable" uniE325 uni1A30
Ligature2: "+BB8EPgQ0BEEEQgQwBD0EPgQyBDoEMAAA +BDsEOAQzBDAEQgRDBEAESwAA lookup 26 subtable" uni25CC uni1A30
Ligature2: "'blws' Below Base Substitutions in Tai Tham lookup 24 subtable" uni1A30 uniE440
MultipleSubs2: "+BBwEPQQ+BDYENQRBBEIEMgQ1BD0EPQQwBE8A +BD8EPgQ0BEEEQgQwBD0EPgQyBDoEMAAA lookup 23 subtable" uni1A72 uni1A30
MultipleSubs2: "+BBwEPQQ+BDYENQRBBEIEMgQ1BD0EPQQwBE8A +BD8EPgQ0BEEEQgQwBD0EPgQyBDoEMAAA lookup 22 subtable" uni1A71 uni1A30
MultipleSubs2: "+BBwEPQQ+BDYENQRBBEIEMgQ1BD0EPQQwBE8A +BD8EPgQ0BEEEQgQwBD0EPgQyBDoEMAAA lookup 21 subtable" uni1A70 uni1A30
MultipleSubs2: "+BBwEPQQ+BDYENQRBBEIEMgQ1BD0EPQQwBE8A +BD8EPgQ0BEEEQgQwBD0EPgQyBDoEMAAA lookup 20 subtable" uni1A6F uni1A30
MultipleSubs2: "+BBwEPQQ+BDYENQRBBEIEMgQ1BD0EPQQwBE8A +BD8EPgQ0BEEEQgQwBD0EPgQyBDoEMAAA lookup 19 subtable" uni1A6E uni1A30
MultipleSubs2: "+BBwEPQQ+BDYENQRBBEIEMgQ1BD0EPQQwBE8A +BD8EPgQ0BEEEQgQwBD0EPgQyBDoEMAAA lookup 18 subtable" uni1A55 uni1A30
Ligature2: "'blws' Below Base Substitutions in Tai Tham lookup 15 subtable" uni1A30 uniE441
Ligature2: "'blws' Below Base Substitutions in Tai Tham lookup 15 subtable" uni1A30 uniE442
Ligature2: "'blws' Below Base Substitutions in Tai Tham lookup 15 subtable" uni1A30 uniE443
Ligature2: "'blws' Below Base Substitutions in Tai Tham lookup 15 subtable" uni1A30 uniE444
Ligature2: "'blws' Below Base Substitutions in Tai Tham lookup 15 subtable" uni1A30 uniE445
MultipleSubs2: "+BBwEPQQ+BDYENQRBBEIEMgQ1BD0EPQQwBE8A +BD8EPgQ0BEEEQgQwBD0EPgQyBDoEMAAA lookup 4 subtable" uni1A30.sub
EndChar

StartChar: uni1A31
Encoding: 49 6705 48
Width: 571
VWidth: 1000
GlyphClass: 2
Flags: W
HStem: -9 40<254.547 310.778> 0 25<109.531 138.404> 0.122449 13.5803<429.647 473.943> 56 26<109.385 137.718> 269.203 40.8066<130.897 207.559 360.92 435.691>
VStem: 35 40<87.3289 205.576> 139 26<25.8195 55.2399> 204 40<42.0343 115.093> 235.087 40.2838<138.167 239.895> 294 40<141.07 242.866> 326 40<45.8936 111.386> 493.862 42.138<96.0557 203.894>
AnchorPoint: "+BBEENQQ3BEsEPARPBD0EPQQ+BDUA--23" 357 -45 basechar 0
AnchorPoint: "+BBEENQQ3BEsEPARPBD0EPQQ+BDUA--9" 444 -45 basechar 0
AnchorPoint: "+BBEENQQ3BEsEPARPBD0EPQQ+BDUA--8" 425 -45 basechar 0
AnchorPoint: "+BBEENQQ3BEsEPARPBD0EPQQ+BDUA--7" 357 -45 basechar 0
AnchorPoint: "+BBEENQQ3BEsEPARPBD0EPQQ+BDUA--6" 537 -45 basechar 0
AnchorPoint: "+BBEENQQ3BEsEPARPBD0EPQQ+BDUA--5" 392 352 basechar 0
AnchorPoint: "+BBEENQQ3BEsEPARPBD0EPQQ+BDUA--4" 508 352 basechar 0
AnchorPoint: "+BBEENQQ3BEsEPARPBD0EPQQ+BDUA--3" 403 352 basechar 0
AnchorPoint: "+BBEENQQ3BEsEPARPBD0EPQQ+BDUA--2" 403 352 basechar 0
AnchorPoint: "+BBEENQQ3BEsEPARPBD0EPQQ+BDUA--1" 284 352 basechar 0
AnchorPoint: "+BBEENQQ3BEsEPARPBD0EPQQ+BDUA--0" 386 352 basechar 0
LayerCount: 2
Fore
SplineSet
493.861981956 149.120445976 m 0x3e50
 493.861981956 215.803448779 447.233349687 269.203273837 396.700077297 269.203273837 c 0
 374.990205395 269.203273837 334 255.032805631 334 199 c 0x3e50
 334 133 366 128 366 72 c 0
 366 28 329 -9 284 -9 c 0
 240 -9 204 28 204 72 c 0x9f30
 204 119.558823529 235.087370242 137.914359862 235.087370242 192.898687157 c 0
 235.087370242 206.140842716 231.731422099 270 167 270 c 1
 114 266 75 209 75 151 c 0
 75 123 80 91 93 68 c 1
 101 76 112 82 124 82 c 0
 147 82 165 64 165 41 c 0
 165 18 147 0 124 0 c 0
 112 0 103 3 93 13 c 0
 58 48 35 102 35 150 c 0
 35 223 80 306 165 309 c 0
 235.508267174 309 275.371182779 259.333395733 275.371182779 195.334182669 c 0x5e90
 275.371182779 133.374717224 244 107.377631713 244 72 c 0
 244 47 260 31 284 31 c 0
 305 31 326 52 326 72 c 0x9f30
 326 105 294 129 294 199 c 0
 296 289 365 310 401 310 c 0
 401.554195144 310.006597561 402.10695387 310.009887009 402.658271009 310.009887009 c 0
 485.670731328 310.009887009 536 235.432609734 536 150 c 0
 536 43.6083349884 465.452379221 27.3105339983 465.452379221 16.2829786768 c 0
 465.452379221 14.648118388 467.510375651 13.702713321 471.754343434 13.702713321 c 0
 476.131148781 13.702713321 482.832910319 14.7082275797 492 17 c 1
 493 15 l 1
 493 15 460.765306122 0.122448979592 436.412172012 0.122448979592 c 0
 422.882653061 0.122448979592 411.785714286 4.71428571429 410 19 c 1
 414 42 437 47 454 60 c 0
 481.704997968 82.965985158 493.861981956 116.031534953 493.861981956 149.120445976 c 0x3e50
123 56 m 0
 115 56 109 50 109 41 c 0
 109 32 115 25 123 25 c 0x5e10
 133 25 139 32 139 41 c 0
 137 47 137 55 123 56 c 0
EndSplineSet
Ligature2: "'blws' Below Base Substitutions in Tai Tham lookup 50 subtable" uniE32B uni1A31
Ligature2: "'blws' Below Base Substitutions in Tai Tham lookup 50 subtable" uniE32A uni1A31
Ligature2: "'blws' Below Base Substitutions in Tai Tham lookup 50 subtable" uniE325 uni1A31
Ligature2: "+BB8EPgQ0BEEEQgQwBD0EPgQyBDoEMAAA +BDsEOAQzBDAEQgRDBEAESwAA lookup 26 subtable" uni25CC uni1A31
Ligature2: "'blws' Below Base Substitutions in Tai Tham lookup 24 subtable" uni1A31 uniE440
MultipleSubs2: "+BBwEPQQ+BDYENQRBBEIEMgQ1BD0EPQQwBE8A +BD8EPgQ0BEEEQgQwBD0EPgQyBDoEMAAA lookup 23 subtable" uni1A72 uni1A31
MultipleSubs2: "+BBwEPQQ+BDYENQRBBEIEMgQ1BD0EPQQwBE8A +BD8EPgQ0BEEEQgQwBD0EPgQyBDoEMAAA lookup 22 subtable" uni1A71 uni1A31
MultipleSubs2: "+BBwEPQQ+BDYENQRBBEIEMgQ1BD0EPQQwBE8A +BD8EPgQ0BEEEQgQwBD0EPgQyBDoEMAAA lookup 21 subtable" uni1A70 uni1A31
MultipleSubs2: "+BBwEPQQ+BDYENQRBBEIEMgQ1BD0EPQQwBE8A +BD8EPgQ0BEEEQgQwBD0EPgQyBDoEMAAA lookup 20 subtable" uni1A6F uni1A31
MultipleSubs2: "+BBwEPQQ+BDYENQRBBEIEMgQ1BD0EPQQwBE8A +BD8EPgQ0BEEEQgQwBD0EPgQyBDoEMAAA lookup 19 subtable" uni1A6E uni1A31
MultipleSubs2: "+BBwEPQQ+BDYENQRBBEIEMgQ1BD0EPQQwBE8A +BD8EPgQ0BEEEQgQwBD0EPgQyBDoEMAAA lookup 18 subtable" uni1A55 uni1A31
Ligature2: "'blws' Below Base Substitutions in Tai Tham lookup 15 subtable" uni1A31 uniE441
Ligature2: "'blws' Below Base Substitutions in Tai Tham lookup 15 subtable" uni1A31 uniE442
Ligature2: "'blws' Below Base Substitutions in Tai Tham lookup 15 subtable" uni1A31 uniE443
Ligature2: "'blws' Below Base Substitutions in Tai Tham lookup 15 subtable" uni1A31 uniE444
Ligature2: "'blws' Below Base Substitutions in Tai Tham lookup 15 subtable" uni1A31 uniE445
MultipleSubs2: "+BBwEPQQ+BDYENQRBBEIEMgQ1BD0EPQQwBE8A +BD8EPgQ0BEEEQgQwBD0EPgQyBDoEMAAA lookup 4 subtable" uni1A31.sub
EndChar

StartChar: uni1A32
Encoding: 50 6706 49
Width: 569
VWidth: 1000
GlyphClass: 2
Flags: W
HStem: -10 40<139.882 240.075> 0.122449 13.3551<431.917 473.232> 272 38<139.882 240.222 327.778 428.075>
VStem: 34 40<98.6453 204.201> 305 42<98.6453 203.892> 493 42<98.8001 204.201>
AnchorPoint: "+BBEENQQ3BEsEPARPBD0EPQQ+BDUA--23" 347 -45 basechar 0
AnchorPoint: "+BBEENQQ3BEsEPARPBD0EPQQ+BDUA--9" 444 -45 basechar 0
AnchorPoint: "+BBEENQQ3BEsEPARPBD0EPQQ+BDUA--8" 425 -45 basechar 0
AnchorPoint: "+BBEENQQ3BEsEPARPBD0EPQQ+BDUA--7" 347 -45 basechar 0
AnchorPoint: "+BBEENQQ3BEsEPARPBD0EPQQ+BDUA--6" 520 -45 basechar 0
AnchorPoint: "+BBEENQQ3BEsEPARPBD0EPQQ+BDUA--5" 368 352 basechar 0
AnchorPoint: "+BBEENQQ3BEsEPARPBD0EPQQ+BDUA--4" 515 352 basechar 0
AnchorPoint: "+BBEENQQ3BEsEPARPBD0EPQQ+BDUA--3" 377 352 basechar 0
AnchorPoint: "+BBEENQQ3BEsEPARPBD0EPQQ+BDUA--2" 377 352 basechar 0
AnchorPoint: "+BBEENQQ3BEsEPARPBD0EPQQ+BDUA--1" 284 352 basechar 0
AnchorPoint: "+BBEENQQ3BEsEPARPBD0EPQQ+BDUA--0" 359 352 basechar 0
LayerCount: 2
Fore
SplineSet
190 310 m 0xbc
 225 310 258 298 284 278 c 1
 310 298 343 310 378 310 c 0
 464 310 535 238 535 150 c 1
 530 96 519 63 478 28 c 0
 473.146331007 23.1463310075 465.452379221 19.6452406327 465.452379221 15.8399302803 c 0
 465.452379221 14.3097908486 467.285079484 13.477504751 471.058026221 13.477504751 c 0
 475.406488801 13.477504751 482.332263575 14.5830658937 492 17 c 0
 493 15 492 15 492 15 c 1
 492 15 459.765306122 0.122448979592 435.412172012 0.122448979592 c 0x7c
 428.421338212 0.122448979592 408.867698184 1.84202033586 408.867698184 21.0804676593 c 0
 408.867698184 35.6376948166 428.977284454 42.6663303099 450 57 c 0
 478 76 491 118 493 151 c 0
 493 218 442 272 378 272 c 0
 354 272 331 264 312 251 c 1
 334 223 347 188 347 150 c 0
 347 62 276 -10 190 -10 c 0
 104 -10 34 62 34 150 c 0
 34 238 104 310 190 310 c 0xbc
190 272 m 0
 126 272 74 218 74 151 c 0
 74 84 126 30 190 30 c 0xbc
 254 30 305 84 305 151 c 0
 305 218 254 272 190 272 c 0
EndSplineSet
Ligature2: "'blws' Below Base Substitutions in Tai Tham lookup 50 subtable" uniE32B uni1A32
Ligature2: "'blws' Below Base Substitutions in Tai Tham lookup 50 subtable" uniE32A uni1A32
Ligature2: "'blws' Below Base Substitutions in Tai Tham lookup 50 subtable" uniE325 uni1A32
Ligature2: "+BB8EPgQ0BEEEQgQwBD0EPgQyBDoEMAAA +BDsEOAQzBDAEQgRDBEAESwAA lookup 26 subtable" uni25CC uni1A32
Ligature2: "'blws' Below Base Substitutions in Tai Tham lookup 24 subtable" uni1A32 uniE440
MultipleSubs2: "+BBwEPQQ+BDYENQRBBEIEMgQ1BD0EPQQwBE8A +BD8EPgQ0BEEEQgQwBD0EPgQyBDoEMAAA lookup 23 subtable" uni1A72 uni1A32
MultipleSubs2: "+BBwEPQQ+BDYENQRBBEIEMgQ1BD0EPQQwBE8A +BD8EPgQ0BEEEQgQwBD0EPgQyBDoEMAAA lookup 22 subtable" uni1A71 uni1A32
MultipleSubs2: "+BBwEPQQ+BDYENQRBBEIEMgQ1BD0EPQQwBE8A +BD8EPgQ0BEEEQgQwBD0EPgQyBDoEMAAA lookup 21 subtable" uni1A70 uni1A32
MultipleSubs2: "+BBwEPQQ+BDYENQRBBEIEMgQ1BD0EPQQwBE8A +BD8EPgQ0BEEEQgQwBD0EPgQyBDoEMAAA lookup 20 subtable" uni1A6F uni1A32
MultipleSubs2: "+BBwEPQQ+BDYENQRBBEIEMgQ1BD0EPQQwBE8A +BD8EPgQ0BEEEQgQwBD0EPgQyBDoEMAAA lookup 19 subtable" uni1A6E uni1A32
MultipleSubs2: "+BBwEPQQ+BDYENQRBBEIEMgQ1BD0EPQQwBE8A +BD8EPgQ0BEEEQgQwBD0EPgQyBDoEMAAA lookup 18 subtable" uni1A55 uni1A32
Ligature2: "'blws' Below Base Substitutions in Tai Tham lookup 15 subtable" uni1A32 uniE441
Ligature2: "'blws' Below Base Substitutions in Tai Tham lookup 15 subtable" uni1A32 uniE442
Ligature2: "'blws' Below Base Substitutions in Tai Tham lookup 15 subtable" uni1A32 uniE443
Ligature2: "'blws' Below Base Substitutions in Tai Tham lookup 15 subtable" uni1A32 uniE444
Ligature2: "'blws' Below Base Substitutions in Tai Tham lookup 15 subtable" uni1A32 uniE445
MultipleSubs2: "+BBwEPQQ+BDYENQRBBEIEMgQ1BD0EPQQwBE8A +BD8EPgQ0BEEEQgQwBD0EPgQyBDoEMAAA lookup 4 subtable" uni1A32.sub
EndChar

StartChar: uni1A33
Encoding: 51 6707 50
Width: 486
VWidth: 1000
GlyphClass: 2
Flags: W
HStem: -7 40<216.06 243.124> 41 40<146.714 178.582> 67 26<230.473 251.756> 124 26<230.794 260.174> 270 40<162.949 308.361>
VStem: 39.1543 38.9513<32.4736 85.2561 160.646 203.439> 73 46.1111<115.298 146.8> 204 26<93.5858 123.501> 261 27.2544<86.5897 123.5> 436.723 15.595<-0.839107 105.679>
AnchorPoint: "+BBEENQQ3BEsEPARPBD0EPQQ+BDUA--23" 192 -45 basechar 0
AnchorPoint: "+BBEENQQ3BEsEPARPBD0EPQQ+BDUA--9" 257 -45 basechar 0
AnchorPoint: "+BBEENQQ3BEsEPARPBD0EPQQ+BDUA--8" 234 -45 basechar 0
AnchorPoint: "+BBEENQQ3BEsEPARPBD0EPQQ+BDUA--7" 192 -45 basechar 0
AnchorPoint: "+BBEENQQ3BEsEPARPBD0EPQQ+BDUA--6" 434 -45 basechar 0
AnchorPoint: "+BBEENQQ3BEsEPARPBD0EPQQ+BDUA--5" 217 352 basechar 0
AnchorPoint: "+BBEENQQ3BEsEPARPBD0EPQQ+BDUA--4" 430 352 basechar 0
AnchorPoint: "+BBEENQQ3BEsEPARPBD0EPQQ+BDUA--3" 254 352 basechar 0
AnchorPoint: "+BBEENQQ3BEsEPARPBD0EPQQ+BDUA--2" 254 352 basechar 0
AnchorPoint: "+BBEENQQ3BEsEPARPBD0EPQQ+BDUA--1" 170 352 basechar 0
AnchorPoint: "+BBEENQQ3BEsEPARPBD0EPQQ+BDUA--0" 214 352 basechar 0
LayerCount: 2
Fore
SplineSet
227 -7 m 0xbdc0
 183.472768179 -7 184.214731821 41 164 41 c 0
 141 41 140 -7 96 -7 c 0
 62.8954093528 -7 39.1542698006 17.5790591246 39.1542698006 52.8468681866 c 0xddc0
 39.1542698006 97.4114517841 73 125.633634878 73 136 c 0
 73 150.545454545 35.8099173554 145.256198347 35.8099173554 176.480841473 c 0
 35.8099173554 179.603305785 36.1818181818 183.090909091 37 187 c 0
 66 271 139 310 233 310 c 0
 290 310 339 298 380 257 c 0
 424.317964434 211.739100153 452.318110938 162.553623784 452.318110938 78.8007101937 c 0
 452.318110938 26.9543328135 440 -10 440 -10 c 1
 436 -10 l 1
 435.431113585 -4.88002226563 436.72310975 9.94890806147 436.72310975 30.3903499834 c 0
 436.72310975 81.8136648404 428.546781706 168.755456597 362 226 c 0
 323 260 281 270 233 270 c 0
 104.775457168 266.534471815 80.3877103125 186.570344353 80.3877103125 184.82261158 c 0
 80.3877103125 172.354273286 119.111111111 178.171398077 119.111111111 133.777777778 c 0xdbc0
 119.111111111 127.555555556 117.333333333 124 112 116 c 2
 101 101 l 2
 98.5098125766 96.0196251531 78.1055286533 74.5031612295 78.1055286533 53.6080920006 c 0
 78.1055286533 35.6626639191 91.7499875152 25.8888777913 102 35 c 0
 113 46 120 81 165 81 c 0xddc0
 210 81 214 33 228 33 c 0
 233 33 246 37 252 68 c 1
 249 67 244 67 241 67 c 0
 220 69 204 87 204 108 c 0
 204 131 223 150 245 150 c 0
 277.374178926 150 288.254376716 122.364881396 288.254376716 91.1698112918 c 0
 288.254376716 82.0096851382 286.717968486 -7 227 -7 c 0xbdc0
245 124 m 0
 236 124 230 117 230 108 c 0
 230 99 236 93 245 93 c 0xb9c0
 254 93 261 99 261 108 c 0
 261 117 254 124 245 124 c 0
EndSplineSet
Ligature2: "'blws' Below Base Substitutions in Tai Tham lookup 50 subtable" uniE32B uni1A33
Ligature2: "'blws' Below Base Substitutions in Tai Tham lookup 50 subtable" uniE32A uni1A33
Ligature2: "'blws' Below Base Substitutions in Tai Tham lookup 50 subtable" uniE325 uni1A33
Ligature2: "+BB8EPgQ0BEEEQgQwBD0EPgQyBDoEMAAA +BDsEOAQzBDAEQgRDBEAESwAA lookup 26 subtable" uni25CC uni1A33
Ligature2: "'blws' Below Base Substitutions in Tai Tham lookup 24 subtable" uni1A33 uniE440
MultipleSubs2: "+BBwEPQQ+BDYENQRBBEIEMgQ1BD0EPQQwBE8A +BD8EPgQ0BEEEQgQwBD0EPgQyBDoEMAAA lookup 23 subtable" uni1A72 uni1A33
MultipleSubs2: "+BBwEPQQ+BDYENQRBBEIEMgQ1BD0EPQQwBE8A +BD8EPgQ0BEEEQgQwBD0EPgQyBDoEMAAA lookup 22 subtable" uni1A71 uni1A33
MultipleSubs2: "+BBwEPQQ+BDYENQRBBEIEMgQ1BD0EPQQwBE8A +BD8EPgQ0BEEEQgQwBD0EPgQyBDoEMAAA lookup 21 subtable" uni1A70 uni1A33
MultipleSubs2: "+BBwEPQQ+BDYENQRBBEIEMgQ1BD0EPQQwBE8A +BD8EPgQ0BEEEQgQwBD0EPgQyBDoEMAAA lookup 20 subtable" uni1A6F uni1A33
MultipleSubs2: "+BBwEPQQ+BDYENQRBBEIEMgQ1BD0EPQQwBE8A +BD8EPgQ0BEEEQgQwBD0EPgQyBDoEMAAA lookup 19 subtable" uni1A6E uni1A33
MultipleSubs2: "+BBwEPQQ+BDYENQRBBEIEMgQ1BD0EPQQwBE8A +BD8EPgQ0BEEEQgQwBD0EPgQyBDoEMAAA lookup 18 subtable" uni1A55 uni1A33
Ligature2: "'blws' Below Base Substitutions in Tai Tham lookup 15 subtable" uni1A33 uniE441
Ligature2: "'blws' Below Base Substitutions in Tai Tham lookup 15 subtable" uni1A33 uniE442
Ligature2: "'blws' Below Base Substitutions in Tai Tham lookup 15 subtable" uni1A33 uniE443
Ligature2: "'blws' Below Base Substitutions in Tai Tham lookup 15 subtable" uni1A33 uniE444
Ligature2: "'blws' Below Base Substitutions in Tai Tham lookup 15 subtable" uni1A33 uniE445
MultipleSubs2: "+BBwEPQQ+BDYENQRBBEIEMgQ1BD0EPQQwBE8A +BD8EPgQ0BEEEQgQwBD0EPgQyBDoEMAAA lookup 4 subtable" uni1A33.sub
EndChar

StartChar: uni1A34
Encoding: 52 6708 51
Width: 458
VWidth: 1000
GlyphClass: 2
Flags: W
HStem: -10 39.699<159.545 283.9> 109 26<182.518 212.501> 182 40.0279<225.578 283.669> 273.075 36.9396<164.34 304.973>
VStem: 35 39.9922<100.352 197.498> 156 26<135.76 163.373> 213 26<135.594 164.416> 290.369 40.2329<139.505 174.679> 414.785 8.8278<103.119 146.299>
AnchorPoint: "+BBEENQQ3BEsEPARPBD0EPQQ+BDUA--23" 212 -45 basechar 0
AnchorPoint: "+BBEENQQ3BEsEPARPBD0EPQQ+BDUA--9" 288 -45 basechar 0
AnchorPoint: "+BBEENQQ3BEsEPARPBD0EPQQ+BDUA--8" 262 -45 basechar 0
AnchorPoint: "+BBEENQQ3BEsEPARPBD0EPQQ+BDUA--7" 212 -45 basechar 0
AnchorPoint: "+BBEENQQ3BEsEPARPBD0EPQQ+BDUA--6" 408 -45 basechar 0
AnchorPoint: "+BBEENQQ3BEsEPARPBD0EPQQ+BDUA--5" 241 352 basechar 0
AnchorPoint: "+BBEENQQ3BEsEPARPBD0EPQQ+BDUA--4" 400 352 basechar 0
AnchorPoint: "+BBEENQQ3BEsEPARPBD0EPQQ+BDUA--3" 297 352 basechar 0
AnchorPoint: "+BBEENQQ3BEsEPARPBD0EPQQ+BDUA--2" 297 352 basechar 0
AnchorPoint: "+BBEENQQ3BEsEPARPBD0EPQQ+BDUA--1" 227 352 basechar 0
AnchorPoint: "+BBEENQQ3BEsEPARPBD0EPQQ+BDUA--0" 234 352 basechar 0
LayerCount: 2
Fore
SplineSet
252 105 m 0
 252 135.790214117 290.368636398 135.798683496 290.368636398 155.443127279 c 0
 290.368636398 175.445560251 268.722399304 180.892350044 251 182 c 0
 243 182 234 184 224 182 c 1
 233 174 239 163 239 150 c 0
 239 127 220 109 197 109 c 0
 174 109 156 127 156 150 c 2
 156 160 l 1
 164.832408663 196.311013393 202.557944287 222.027880234 248.382866474 222.027880234 c 0
 249.252375604 222.027880234 250.124800797 222.01862126 251 222 c 0
 271.830763017 222 330.601513232 208.557815176 330.601513232 153.487704991 c 0
 330.601513232 131.798865076 321.822861809 118.146669389 301 106 c 1
 319 96 330 80 330 58 c 0
 330 29 310 8 289 -1 c 0
 268 -10 244 -10 225 -10 c 0
 133 -9 35 34 35 150 c 0
 35 258.942991335 129.163903691 310.01441686 227.146990146 310.01441686 c 0
 228.097661411 310.01441686 229.048692201 310.00960917 230 310 c 0
 357.906880361 308.328014636 423.613105679 231.875466468 423.613105679 143.158358764 c 0
 423.613105679 125.753595303 421.084226855 107.876797652 416 90 c 1
 414 90 l 1
 414.525727091 96.0166544891 414.785301837 101.948003739 414.785301837 107.783882368 c 0
 414.785301837 199.643709431 349.642745211 273.074859965 234.295101315 273.074859965 c 0
 159.074490651 273.074859965 74.9921684638 234.261566035 74.9921684638 148.531521953 c 0
 74.9921684638 70.5073423717 143.472565544 29.6989615765 238.370072109 29.6989615765 c 0
 260.794264793 29.6989615765 288.327921561 33.2629802941 290 55 c 0
 288.501707628 78.972677951 252 74.9412578353 252 105 c 0
182 150 m 0
 182 141 188 135 197 135 c 0
 206 135 213 141 213 150 c 0
 213 159 206 165 197 165 c 0
 185 163 183 157 182 150 c 0
EndSplineSet
Ligature2: "'blws' Below Base Substitutions in Tai Tham lookup 50 subtable" uniE32B uni1A34
Ligature2: "'blws' Below Base Substitutions in Tai Tham lookup 50 subtable" uniE32A uni1A34
Ligature2: "'blws' Below Base Substitutions in Tai Tham lookup 50 subtable" uniE325 uni1A34
Ligature2: "+BB8EPgQ0BEEEQgQwBD0EPgQyBDoEMAAA +BDsEOAQzBDAEQgRDBEAESwAA lookup 26 subtable" uni25CC uni1A34
Ligature2: "'blws' Below Base Substitutions in Tai Tham lookup 24 subtable" uni1A34 uniE440
MultipleSubs2: "+BBwEPQQ+BDYENQRBBEIEMgQ1BD0EPQQwBE8A +BD8EPgQ0BEEEQgQwBD0EPgQyBDoEMAAA lookup 23 subtable" uni1A72 uni1A34
MultipleSubs2: "+BBwEPQQ+BDYENQRBBEIEMgQ1BD0EPQQwBE8A +BD8EPgQ0BEEEQgQwBD0EPgQyBDoEMAAA lookup 22 subtable" uni1A71 uni1A34
MultipleSubs2: "+BBwEPQQ+BDYENQRBBEIEMgQ1BD0EPQQwBE8A +BD8EPgQ0BEEEQgQwBD0EPgQyBDoEMAAA lookup 21 subtable" uni1A70 uni1A34
MultipleSubs2: "+BBwEPQQ+BDYENQRBBEIEMgQ1BD0EPQQwBE8A +BD8EPgQ0BEEEQgQwBD0EPgQyBDoEMAAA lookup 20 subtable" uni1A6F uni1A34
MultipleSubs2: "+BBwEPQQ+BDYENQRBBEIEMgQ1BD0EPQQwBE8A +BD8EPgQ0BEEEQgQwBD0EPgQyBDoEMAAA lookup 19 subtable" uni1A6E uni1A34
MultipleSubs2: "+BBwEPQQ+BDYENQRBBEIEMgQ1BD0EPQQwBE8A +BD8EPgQ0BEEEQgQwBD0EPgQyBDoEMAAA lookup 18 subtable" uni1A55 uni1A34
Ligature2: "'blws' Below Base Substitutions in Tai Tham lookup 15 subtable" uni1A34 uniE441
Ligature2: "'blws' Below Base Substitutions in Tai Tham lookup 15 subtable" uni1A34 uniE442
Ligature2: "'blws' Below Base Substitutions in Tai Tham lookup 15 subtable" uni1A34 uniE443
Ligature2: "'blws' Below Base Substitutions in Tai Tham lookup 15 subtable" uni1A34 uniE444
Ligature2: "'blws' Below Base Substitutions in Tai Tham lookup 15 subtable" uni1A34 uniE445
MultipleSubs2: "+BBwEPQQ+BDYENQRBBEIEMgQ1BD0EPQQwBE8A +BD8EPgQ0BEEEQgQwBD0EPgQyBDoEMAAA lookup 4 subtable" uni1A34.sub
EndChar

StartChar: uni1A35
Encoding: 53 6709 52
Width: 410
VWidth: 1000
GlyphClass: 2
Flags: W
HStem: 1 21G<133.305 165.333 244.667 299> 270 40<149.496 260.532>
VStem: 35 40<101.629 198.77> 335 40<100.278 198.541>
AnchorPoint: "+BBEENQQ3BEsEPARPBD0EPQQ+BDUA--23" 204 -45 basechar 0
AnchorPoint: "+BBEENQQ3BEsEPARPBD0EPQQ+BDUA--9" 275 -45 basechar 0
AnchorPoint: "+BBEENQQ3BEsEPARPBD0EPQQ+BDUA--8" 258 -45 basechar 0
AnchorPoint: "+BBEENQQ3BEsEPARPBD0EPQQ+BDUA--7" 204 -45 basechar 0
AnchorPoint: "+BBEENQQ3BEsEPARPBD0EPQQ+BDUA--6" 373 -45 basechar 0
AnchorPoint: "+BBEENQQ3BEsEPARPBD0EPQQ+BDUA--5" 208 352 basechar 0
AnchorPoint: "+BBEENQQ3BEsEPARPBD0EPQQ+BDUA--4" 349 352 basechar 0
AnchorPoint: "+BBEENQQ3BEsEPARPBD0EPQQ+BDUA--3" 275 352 basechar 0
AnchorPoint: "+BBEENQQ3BEsEPARPBD0EPQQ+BDUA--2" 275 352 basechar 0
AnchorPoint: "+BBEENQQ3BEsEPARPBD0EPQQ+BDUA--1" 206 352 basechar 0
AnchorPoint: "+BBEENQQ3BEsEPARPBD0EPQQ+BDUA--0" 218 352 basechar 0
LayerCount: 2
Fore
SplineSet
35 150 m 0
 35 239.958125147 110.988547533 310 205 310 c 0
 298 310 375 239 375 150 c 0
 375 82 330 25 268 1 c 1
 205 55 l 1
 142 1 l 1
 124.609558788 7.62492998559 35 46.7697688379 35 150 c 0
205 270 m 0
 126.369328176 270 75 210.180914851 75 150 c 0
 75 126.55583242 82.7225872261 81.2983829837 136 48 c 1
 159.000688972 67.9993110284 181.953874153 88.0461258466 205 108 c 1
 228.180522105 87.8471887715 251.66963586 68.002969193 275 48 c 1
 311 69 335 107 335 150 c 0
 335 216 278 270 205 270 c 0
EndSplineSet
Ligature2: "'blws' Below Base Substitutions in Tai Tham lookup 50 subtable" uniE32B uni1A35
Ligature2: "'blws' Below Base Substitutions in Tai Tham lookup 50 subtable" uniE32A uni1A35
Ligature2: "'blws' Below Base Substitutions in Tai Tham lookup 50 subtable" uniE325 uni1A35
Ligature2: "+BB8EPgQ0BEEEQgQwBD0EPgQyBDoEMAAA +BDsEOAQzBDAEQgRDBEAESwAA lookup 26 subtable" uni25CC uni1A35
Ligature2: "'blws' Below Base Substitutions in Tai Tham lookup 24 subtable" uni1A35 uniE440
MultipleSubs2: "+BBwEPQQ+BDYENQRBBEIEMgQ1BD0EPQQwBE8A +BD8EPgQ0BEEEQgQwBD0EPgQyBDoEMAAA lookup 23 subtable" uni1A72 uni1A35
MultipleSubs2: "+BBwEPQQ+BDYENQRBBEIEMgQ1BD0EPQQwBE8A +BD8EPgQ0BEEEQgQwBD0EPgQyBDoEMAAA lookup 22 subtable" uni1A71 uni1A35
MultipleSubs2: "+BBwEPQQ+BDYENQRBBEIEMgQ1BD0EPQQwBE8A +BD8EPgQ0BEEEQgQwBD0EPgQyBDoEMAAA lookup 21 subtable" uni1A70 uni1A35
MultipleSubs2: "+BBwEPQQ+BDYENQRBBEIEMgQ1BD0EPQQwBE8A +BD8EPgQ0BEEEQgQwBD0EPgQyBDoEMAAA lookup 20 subtable" uni1A6F uni1A35
MultipleSubs2: "+BBwEPQQ+BDYENQRBBEIEMgQ1BD0EPQQwBE8A +BD8EPgQ0BEEEQgQwBD0EPgQyBDoEMAAA lookup 19 subtable" uni1A6E uni1A35
MultipleSubs2: "+BBwEPQQ+BDYENQRBBEIEMgQ1BD0EPQQwBE8A +BD8EPgQ0BEEEQgQwBD0EPgQyBDoEMAAA lookup 18 subtable" uni1A55 uni1A35
Ligature2: "'blws' Below Base Substitutions in Tai Tham lookup 15 subtable" uni1A35 uniE441
Ligature2: "'blws' Below Base Substitutions in Tai Tham lookup 15 subtable" uni1A35 uniE442
Ligature2: "'blws' Below Base Substitutions in Tai Tham lookup 15 subtable" uni1A35 uniE443
Ligature2: "'blws' Below Base Substitutions in Tai Tham lookup 15 subtable" uni1A35 uniE444
Ligature2: "'blws' Below Base Substitutions in Tai Tham lookup 15 subtable" uni1A35 uniE445
MultipleSubs2: "+BBwEPQQ+BDYENQRBBEIEMgQ1BD0EPQQwBE8A +BD8EPgQ0BEEEQgQwBD0EPgQyBDoEMAAA lookup 4 subtable" uni1A35.sub
EndChar

StartChar: uni1A36
Encoding: 54 6710 53
Width: 448
VWidth: 1000
GlyphClass: 2
Flags: W
HStem: 0 40<74 322.221> 134 26<349.518 379.619> 190 24.122<349.658 365.808> 270 40<158.821 296.463>
VStem: 34.5556 39.1944<40 203.364> 323 26<160.518 189.479> 380 26.3293<160.862 189.141> 500.009 16.4754<-219.566 -140.043>
AnchorPoint: "+BBEENQQ3BEsEPARPBD0EPQQ+BDUA--23" 225 -45 basechar 0
AnchorPoint: "+BBEENQQ3BEsEPARPBD0EPQQ+BDUA--9" 309 -45 basechar 0
AnchorPoint: "+BBEENQQ3BEsEPARPBD0EPQQ+BDUA--8" 288 -45 basechar 0
AnchorPoint: "+BBEENQQ3BEsEPARPBD0EPQQ+BDUA--7" 225 -45 basechar 0
AnchorPoint: "+BBEENQQ3BEsEPARPBD0EPQQ+BDUA--6" 404 -45 basechar 0
AnchorPoint: "+BBEENQQ3BEsEPARPBD0EPQQ+BDUA--5" 274 352 basechar 0
AnchorPoint: "+BBEENQQ3BEsEPARPBD0EPQQ+BDUA--4" 402 352 basechar 0
AnchorPoint: "+BBEENQQ3BEsEPARPBD0EPQQ+BDUA--3" 296 352 basechar 0
AnchorPoint: "+BBEENQQ3BEsEPARPBD0EPQQ+BDUA--2" 296 352 basechar 0
AnchorPoint: "+BBEENQQ3BEsEPARPBD0EPQQ+BDUA--1" 234 352 basechar 0
AnchorPoint: "+BBEENQQ3BEsEPARPBD0EPQQ+BDUA--0" 260 352 basechar 0
LayerCount: 2
Fore
SplineSet
225 39 m 0
 435.256480166 37.7409791607 516.484044598 -70.7321694545 516.484044598 -161.702474915 c 0
 516.484044598 -207.322183775 500 -245 500 -245 c 1
 495 -244 l 1
 495 -244 500.008653326 -223.488372093 500.008653326 -195.277950369 c 0
 500.008653326 -126.140756808 466.09358049 -2.55188192622 224 -1 c 0
 155 0 146 0 54 0 c 2
 35 0 l 1
 35 20 l 2
 34.6666666667 44.3333333333 34.5555555556 63 34.5555555556 79.037037037 c 0
 34.5555555556 111.111111111 35 132.666666667 35 168 c 0
 35 257 132 310 222 310 c 0
 304.317045021 310 406.329316881 263.106602762 406.329316881 181.127252189 c 0
 406.329316881 135.500870623 368.920798887 134 364 134 c 0
 341 134 323 152 323 175 c 0
 323 192.261837189 340.473609381 214.121992636 363.073540415 214.121992636 c 0
 364.039974546 214.121992636 365.015782918 214.08201809 366 214 c 1
 336 254 276 270 221 270 c 0
 156 269 77 232 75 168 c 0
 74 145 73.75 127 73.75 107.75 c 0
 73.75 88.5 74 68 74 40 c 1
 145 40 163 39 225 39 c 0
364 190 m 0
 355 190 349 184 349 175 c 0
 349 166 355 160 364 160 c 0
 373 160 380 166 380 175 c 0
 380 184 373 190 364 190 c 0
EndSplineSet
Ligature2: "'blws' Below Base Substitutions in Tai Tham lookup 50 subtable" uniE32B uni1A36
Ligature2: "'blws' Below Base Substitutions in Tai Tham lookup 50 subtable" uniE32A uni1A36
Ligature2: "'blws' Below Base Substitutions in Tai Tham lookup 50 subtable" uniE325 uni1A36
Ligature2: "+BB8EPgQ0BEEEQgQwBD0EPgQyBDoEMAAA +BDsEOAQzBDAEQgRDBEAESwAA lookup 26 subtable" uni25CC uni1A36
Ligature2: "'blws' Below Base Substitutions in Tai Tham lookup 24 subtable" uni1A36 uniE440
MultipleSubs2: "+BBwEPQQ+BDYENQRBBEIEMgQ1BD0EPQQwBE8A +BD8EPgQ0BEEEQgQwBD0EPgQyBDoEMAAA lookup 23 subtable" uni1A72 uni1A36
MultipleSubs2: "+BBwEPQQ+BDYENQRBBEIEMgQ1BD0EPQQwBE8A +BD8EPgQ0BEEEQgQwBD0EPgQyBDoEMAAA lookup 22 subtable" uni1A71 uni1A36
MultipleSubs2: "+BBwEPQQ+BDYENQRBBEIEMgQ1BD0EPQQwBE8A +BD8EPgQ0BEEEQgQwBD0EPgQyBDoEMAAA lookup 21 subtable" uni1A70 uni1A36
MultipleSubs2: "+BBwEPQQ+BDYENQRBBEIEMgQ1BD0EPQQwBE8A +BD8EPgQ0BEEEQgQwBD0EPgQyBDoEMAAA lookup 20 subtable" uni1A6F uni1A36
MultipleSubs2: "+BBwEPQQ+BDYENQRBBEIEMgQ1BD0EPQQwBE8A +BD8EPgQ0BEEEQgQwBD0EPgQyBDoEMAAA lookup 19 subtable" uni1A6E uni1A36
MultipleSubs2: "+BBwEPQQ+BDYENQRBBEIEMgQ1BD0EPQQwBE8A +BD8EPgQ0BEEEQgQwBD0EPgQyBDoEMAAA lookup 18 subtable" uni1A55 uni1A36
Ligature2: "'blws' Below Base Substitutions in Tai Tham lookup 15 subtable" uni1A36 uniE441
Ligature2: "'blws' Below Base Substitutions in Tai Tham lookup 15 subtable" uni1A36 uniE442
Ligature2: "'blws' Below Base Substitutions in Tai Tham lookup 15 subtable" uni1A36 uniE443
Ligature2: "'blws' Below Base Substitutions in Tai Tham lookup 15 subtable" uni1A36 uniE444
Ligature2: "'blws' Below Base Substitutions in Tai Tham lookup 15 subtable" uni1A36 uniE445
MultipleSubs2: "+BBwEPQQ+BDYENQRBBEIEMgQ1BD0EPQQwBE8A +BD8EPgQ0BEEEQgQwBD0EPgQyBDoEMAAA lookup 4 subtable" uni1A36.sub
EndChar

StartChar: uni1A37
Encoding: 55 6711 54
Width: 467
VWidth: 1000
GlyphClass: 2
Flags: W
HStem: -10 38.9648<164.154 299.374> 244 56<307.417 340.592> 278 26<111.518 141.501>
VStem: 35.3752 40.1209<95.3835 182.878> 85 26<248.26 277.482> 142 26<248.487 277.406> 392 41<105.826 194.601>
AnchorPoint: "+BBEENQQ3BEsEPARPBD0EPQQ+BDUA--23" 233 -45 basechar 0
AnchorPoint: "+BBEENQQ3BEsEPARPBD0EPQQ+BDUA--9" 326 -45 basechar 0
AnchorPoint: "+BBEENQQ3BEsEPARPBD0EPQQ+BDUA--8" 309 -45 basechar 0
AnchorPoint: "+BBEENQQ3BEsEPARPBD0EPQQ+BDUA--7" 233 -45 basechar 0
AnchorPoint: "+BBEENQQ3BEsEPARPBD0EPQQ+BDUA--6" 417 -45 basechar 0
AnchorPoint: "+BBEENQQ3BEsEPARPBD0EPQQ+BDUA--5" 274 352 basechar 0
AnchorPoint: "+BBEENQQ3BEsEPARPBD0EPQQ+BDUA--4" 402 352 basechar 0
AnchorPoint: "+BBEENQQ3BEsEPARPBD0EPQQ+BDUA--3" 296 352 basechar 0
AnchorPoint: "+BBEENQQ3BEsEPARPBD0EPQQ+BDUA--2" 296 352 basechar 0
AnchorPoint: "+BBEENQQ3BEsEPARPBD0EPQQ+BDUA--1" 234 352 basechar 0
AnchorPoint: "+BBEENQQ3BEsEPARPBD0EPQQ+BDUA--0" 260 352 basechar 0
LayerCount: 2
Fore
SplineSet
233 -10 m 0xbe
 199.576191432 -9.19460702246 35.3752470443 1.93084184662 35.3752470443 142.802142926 c 0
 35.3752470443 165.972677784 39.4868329805 188.261684754 54 206 c 0
 68 223 76 231 92 240 c 1
 88 247 85 255 85 263 c 0
 85 286 103 304 126 304 c 0xbe
 149 304 168 286 168 263 c 0
 168 213.178756146 75.4961300811 221.511953219 75.4961300811 140.55509041 c 0
 75.4961300811 36.3283491679 219.92124482 28.9648206676 230.359634532 28.9648206676 c 0
 231.280991323 28.9648206676 232.161903844 28.9767195512 233 29 c 0
 323 29 392 85 392 150 c 0
 392 188 366 227 331 244 c 0xde
 307 257 287 262 287 278 c 0xbe
 287 294 301 300 317 300 c 0xde
 341 300 369 291 369 291 c 1
 369 288 l 1
 363.315496716 288.812071898 357.850813688 289.257776703 353.339824752 289.257776703 c 0
 346.574779008 289.257776703 341.954633238 288.255366987 341.954633238 285.982953416 c 0
 341.954633238 284.172859748 344.88608686 281.55695657 352 278 c 2
 364 271 l 1
 406 242 433 199 433 150 c 0
 433 59 341 -10 233 -10 c 0xbe
126 278 m 0
 117 278 111 272 111 263 c 0
 111 254 117 248 126 248 c 0
 135 248 142 254 142 263 c 0
 142 272 135 278 126 278 c 0
EndSplineSet
Ligature2: "'blws' Below Base Substitutions in Tai Tham lookup 50 subtable" uniE32B uni1A37
Ligature2: "'blws' Below Base Substitutions in Tai Tham lookup 50 subtable" uniE32A uni1A37
Ligature2: "'blws' Below Base Substitutions in Tai Tham lookup 50 subtable" uniE325 uni1A37
Ligature2: "+BB8EPgQ0BEEEQgQwBD0EPgQyBDoEMAAA +BDsEOAQzBDAEQgRDBEAESwAA lookup 26 subtable" uni25CC uni1A37
Ligature2: "'blws' Below Base Substitutions in Tai Tham lookup 24 subtable" uni1A37 uniE440
MultipleSubs2: "+BBwEPQQ+BDYENQRBBEIEMgQ1BD0EPQQwBE8A +BD8EPgQ0BEEEQgQwBD0EPgQyBDoEMAAA lookup 23 subtable" uni1A72 uni1A37
MultipleSubs2: "+BBwEPQQ+BDYENQRBBEIEMgQ1BD0EPQQwBE8A +BD8EPgQ0BEEEQgQwBD0EPgQyBDoEMAAA lookup 22 subtable" uni1A71 uni1A37
MultipleSubs2: "+BBwEPQQ+BDYENQRBBEIEMgQ1BD0EPQQwBE8A +BD8EPgQ0BEEEQgQwBD0EPgQyBDoEMAAA lookup 21 subtable" uni1A70 uni1A37
MultipleSubs2: "+BBwEPQQ+BDYENQRBBEIEMgQ1BD0EPQQwBE8A +BD8EPgQ0BEEEQgQwBD0EPgQyBDoEMAAA lookup 20 subtable" uni1A6F uni1A37
MultipleSubs2: "+BBwEPQQ+BDYENQRBBEIEMgQ1BD0EPQQwBE8A +BD8EPgQ0BEEEQgQwBD0EPgQyBDoEMAAA lookup 19 subtable" uni1A6E uni1A37
MultipleSubs2: "+BBwEPQQ+BDYENQRBBEIEMgQ1BD0EPQQwBE8A +BD8EPgQ0BEEEQgQwBD0EPgQyBDoEMAAA lookup 18 subtable" uni1A55 uni1A37
Ligature2: "'blws' Below Base Substitutions in Tai Tham lookup 15 subtable" uni1A37 uniE441
Ligature2: "'blws' Below Base Substitutions in Tai Tham lookup 15 subtable" uni1A37 uniE442
Ligature2: "'blws' Below Base Substitutions in Tai Tham lookup 15 subtable" uni1A37 uniE443
Ligature2: "'blws' Below Base Substitutions in Tai Tham lookup 15 subtable" uni1A37 uniE444
Ligature2: "'blws' Below Base Substitutions in Tai Tham lookup 15 subtable" uni1A37 uniE445
MultipleSubs2: "+BBwEPQQ+BDYENQRBBEIEMgQ1BD0EPQQwBE8A +BD8EPgQ0BEEEQgQwBD0EPgQyBDoEMAAA lookup 4 subtable" uni1A37.sub
EndChar

StartChar: uni1A38
Encoding: 56 6712 55
Width: 475
VWidth: 1000
GlyphClass: 2
Flags: W
HStem: -10 39<162.976 299.673> 278 26<112.518 141.482> 608.504 21.496<381.972 419.893>
VStem: 35.4626 40.0068<97.0787 185.886> 86 26<248.26 277.482> 142 26<248.258 277.482> 321.925 39.4105<406.815 575.485> 394.062 39.8677<113.137 246.945>
AnchorPoint: "+BBEENQQ3BEsEPARPBD0EPQQ+BDUA--23" 233 -45 basechar 0
AnchorPoint: "+BBEENQQ3BEsEPARPBD0EPQQ+BDUA--9" 324 -45 basechar 0
AnchorPoint: "+BBEENQQ3BEsEPARPBD0EPQQ+BDUA--8" 307 -45 basechar 0
AnchorPoint: "+BBEENQQ3BEsEPARPBD0EPQQ+BDUA--7" 233 -45 basechar 0
AnchorPoint: "+BBEENQQ3BEsEPARPBD0EPQQ+BDUA--6" 426 -46 basechar 0
AnchorPoint: "+BBEENQQ3BEsEPARPBD0EPQQ+BDUA--5" 169 352 basechar 0
AnchorPoint: "+BBEENQQ3BEsEPARPBD0EPQQ+BDUA--4" 432 352 basechar 0
AnchorPoint: "+BBEENQQ3BEsEPARPBD0EPQQ+BDUA--3" 233 352 basechar 0
AnchorPoint: "+BBEENQQ3BEsEPARPBD0EPQQ+BDUA--2" 233 352 basechar 0
AnchorPoint: "+BBEENQQ3BEsEPARPBD0EPQQ+BDUA--1" 228 352 basechar 0
AnchorPoint: "+BBEENQQ3BEsEPARPBD0EPQQ+BDUA--0" 148 352 basechar 0
LayerCount: 2
Fore
SplineSet
321.92467378 496.458890862 m 0
 321.92467378 598.688492396 365.789463435 630 391 630 c 0
 412 630 426 617 434 600 c 1
 433 598 l 1
 422.592102917 605.032362894 412.97547188 608.504028581 404.394943568 608.504028581 c 0
 375.951630409 608.504028581 361.335170632 571.532565593 361.335170632 508.693133814 c 0
 361.335170632 439.719619365 380.825885841 362.072933039 404 308 c 0
 429.785714286 248.285714286 433.929846939 195.017857143 433.929846939 166.006331997 c 0
 433.929846939 152.264030612 433 143.964285714 433 143 c 0
 428 56 339 -10 233 -10 c 0
 184.182135689 -8.79462063429 35.4626164608 10.8391325836 35.4626164608 140.826482909 c 0
 35.4626164608 164.703325561 40.0747670785 187.758048651 55 206 c 0
 69 223 77 231 93 240 c 1
 89 247 86 255 86 263 c 0
 86 286 104 304 127 304 c 0
 150 304 168 286 168 263 c 0
 168 249 160 230 141 224 c 0
 104.785714286 211.928571429 75.4693877551 187.785714286 75.4693877551 141.162900875 c 0
 75.4693877551 31.1250111494 231.066184856 29 233 29 c 0
 331.984154391 30.2690276204 394.062145709 90.6322316032 394.062145709 166.381387906 c 0
 394.062145709 190.963842776 390.020032103 237.58901503 367 292 c 0
 339.299793595 356.633814945 321.92467378 432.477723902 321.92467378 496.458890862 c 0
127 278 m 0
 118 278 112 272 112 263 c 0
 112 254 118 248 127 248 c 0
 136 248 142 254 142 263 c 0
 142 272 136 278 127 278 c 0
EndSplineSet
Ligature2: "'blws' Below Base Substitutions in Tai Tham lookup 50 subtable" uniE32B uni1A38
Ligature2: "'blws' Below Base Substitutions in Tai Tham lookup 50 subtable" uniE32A uni1A38
Ligature2: "'blws' Below Base Substitutions in Tai Tham lookup 50 subtable" uniE325 uni1A38
Ligature2: "+BB8EPgQ0BEEEQgQwBD0EPgQyBDoEMAAA +BDsEOAQzBDAEQgRDBEAESwAA lookup 26 subtable" uni25CC uni1A38
Ligature2: "'blws' Below Base Substitutions in Tai Tham lookup 24 subtable" uni1A38 uniE440
MultipleSubs2: "+BBwEPQQ+BDYENQRBBEIEMgQ1BD0EPQQwBE8A +BD8EPgQ0BEEEQgQwBD0EPgQyBDoEMAAA lookup 23 subtable" uni1A72 uni1A38
MultipleSubs2: "+BBwEPQQ+BDYENQRBBEIEMgQ1BD0EPQQwBE8A +BD8EPgQ0BEEEQgQwBD0EPgQyBDoEMAAA lookup 22 subtable" uni1A71 uni1A38
MultipleSubs2: "+BBwEPQQ+BDYENQRBBEIEMgQ1BD0EPQQwBE8A +BD8EPgQ0BEEEQgQwBD0EPgQyBDoEMAAA lookup 21 subtable" uni1A70 uni1A38
MultipleSubs2: "+BBwEPQQ+BDYENQRBBEIEMgQ1BD0EPQQwBE8A +BD8EPgQ0BEEEQgQwBD0EPgQyBDoEMAAA lookup 20 subtable" uni1A6F uni1A38
MultipleSubs2: "+BBwEPQQ+BDYENQRBBEIEMgQ1BD0EPQQwBE8A +BD8EPgQ0BEEEQgQwBD0EPgQyBDoEMAAA lookup 19 subtable" uni1A6E uni1A38
MultipleSubs2: "+BBwEPQQ+BDYENQRBBEIEMgQ1BD0EPQQwBE8A +BD8EPgQ0BEEEQgQwBD0EPgQyBDoEMAAA lookup 18 subtable" uni1A55 uni1A38
Ligature2: "'blws' Below Base Substitutions in Tai Tham lookup 15 subtable" uni1A38 uniE441
Ligature2: "'blws' Below Base Substitutions in Tai Tham lookup 15 subtable" uni1A38 uniE442
Ligature2: "'blws' Below Base Substitutions in Tai Tham lookup 15 subtable" uni1A38 uniE443
Ligature2: "'blws' Below Base Substitutions in Tai Tham lookup 15 subtable" uni1A38 uniE444
Ligature2: "'blws' Below Base Substitutions in Tai Tham lookup 15 subtable" uni1A38 uniE445
MultipleSubs2: "+BBwEPQQ+BDYENQRBBEIEMgQ1BD0EPQQwBE8A +BD8EPgQ0BEEEQgQwBD0EPgQyBDoEMAAA lookup 4 subtable" uni1A37.sub
EndChar

StartChar: uni1A39
Encoding: 57 6713 56
Width: 530
VWidth: 1000
GlyphClass: 2
Flags: W
HStem: -9.09133 40.0913<91.559 171.46 249.52 330.876> 22 50.0148<195.276 225.449> 162 26<192.518 221.35> 184.123 33.5477<324.788 375.633> 269.955 40.0445<95.7516 181.592 324.408 364.768>
VStem: 35 40<45.987 99.0555 195.831 251.298> 166 26<188.518 218.398> 222 26.0716<188.466 218.635> 279.905 40.0776<223.386 265.644> 378 40<94.0652 187.892>
AnchorPoint: "+BBEENQQ3BEsEPARPBD0EPQQ+BDUA--23" 212 -45 basechar 0
AnchorPoint: "+BBEENQQ3BEsEPARPBD0EPQQ+BDUA--9" 298 -45 basechar 0
AnchorPoint: "+BBEENQQ3BEsEPARPBD0EPQQ+BDUA--8" 277 -45 basechar 0
AnchorPoint: "+BBEENQQ3BEsEPARPBD0EPQQ+BDUA--7" 212 -45 basechar 0
AnchorPoint: "+BBEENQQ3BEsEPARPBD0EPQQ+BDUA--6" 415 -45 basechar 0
AnchorPoint: "+BBEENQQ3BEsEPARPBD0EPQQ+BDUA--5" 254 352 basechar 0
AnchorPoint: "+BBEENQQ3BEsEPARPBD0EPQQ+BDUA--4" 402 352 basechar 0
AnchorPoint: "+BBEENQQ3BEsEPARPBD0EPQQ+BDUA--3" 276 352 basechar 0
AnchorPoint: "+BBEENQQ3BEsEPARPBD0EPQQ+BDUA--2" 276 352 basechar 0
AnchorPoint: "+BBEENQQ3BEsEPARPBD0EPQQ+BDUA--1" 214 352 basechar 0
AnchorPoint: "+BBEENQQ3BEsEPARPBD0EPQQ+BDUA--0" 240 352 basechar 0
LayerCount: 2
Fore
SplineSet
210 22 m 0x5fc0
 207.139137107 22 186.812386907 -9.09133086034 125.128980917 -9.09133086034 c 0x8fc0
 83.8748954813 -9.09133086034 35 21.4952180442 35 69 c 0
 35 108 60 136 78 143 c 0
 81 144 87 146 87 148 c 0
 87 151 83 151 79 153 c 0
 60 160 35 189 35 222 c 0
 36 273 82 310 137 310 c 2
 142 310 l 2
 208.374476087 309.023904763 248.07161867 257.551428251 248.07161867 206.731820417 c 0
 248.07161867 180.454030579 227.051678893 162 207 162 c 0
 184 162 166 180 166 203 c 0
 166 223 181 240 200 244 c 1
 182.9973646 261.812284705 159.275526234 269.955472458 137.061125795 269.955472458 c 0
 104.401396636 269.955472458 75 252.353942729 75 222 c 0
 75 179.846177083 139.169795918 181.591761095 139.169795918 144.864979592 c 0
 139.169795918 110.687346939 75 121.428571429 75 68 c 0
 75 46 106 31 129 31 c 0
 186.546961664 32.0095958187 186.384919741 72.0148073269 213.73740733 72.0148073269 c 0
 236.949503321 72.0148073269 243.813401627 27.6484180202 284.555203349 27.6484180202 c 0
 343.726467655 27.6484180202 378 86.6072267516 378 170 c 2
 378 188 l 1x6fc0
 368.238135279 185.453426595 358.296130667 184.12279746 348.670953908 184.12279746 c 0
 334.674184826 184.12279746 279.905313746 187.998916244 279.905313746 248.663691825 c 0
 279.905313746 286.527988231 310.74126438 308.553124604 342.720479221 308.553124604 c 0
 373.90166727 308.553124604 406.169772192 287.613527096 412 240 c 1
 434 249 465 277 494 311 c 1
 496 309 l 1
 490 278 454 229 417 207 c 1
 418 196 418 184 418 170 c 0
 416 135 413 98 397 66 c 0
 376 23 339 -10 287 -10 c 0
 232 -10 219 22 210 22 c 0x5fc0
376 222 m 1
 374 244 368 269 343 269 c 0
 328.635611499 269 319.982936687 256.684117359 319.982936687 244.117833611 c 0
 319.982936687 231.029960838 329.368812151 217.67046875 351.463146484 217.67046875 c 0x1fc0
 358.36734375 217.67046875 366.5125 218.975 376 222 c 1
207 219 m 0
 198 219 192 212 192 203 c 0
 192 194 198 188 207 188 c 0x2fc0
 216 188 222 194 222 203 c 0
 222 211 216 219 207 219 c 0
EndSplineSet
Ligature2: "'blws' Below Base Substitutions in Tai Tham lookup 50 subtable" uniE32B uni1A39
Ligature2: "'blws' Below Base Substitutions in Tai Tham lookup 50 subtable" uniE32A uni1A39
Ligature2: "'blws' Below Base Substitutions in Tai Tham lookup 50 subtable" uniE325 uni1A39
Ligature2: "+BB8EPgQ0BEEEQgQwBD0EPgQyBDoEMAAA +BDsEOAQzBDAEQgRDBEAESwAA lookup 26 subtable" uni25CC uni1A39
Ligature2: "'blws' Below Base Substitutions in Tai Tham lookup 24 subtable" uni1A39 uniE440
MultipleSubs2: "+BBwEPQQ+BDYENQRBBEIEMgQ1BD0EPQQwBE8A +BD8EPgQ0BEEEQgQwBD0EPgQyBDoEMAAA lookup 23 subtable" uni1A72 uni1A39
MultipleSubs2: "+BBwEPQQ+BDYENQRBBEIEMgQ1BD0EPQQwBE8A +BD8EPgQ0BEEEQgQwBD0EPgQyBDoEMAAA lookup 22 subtable" uni1A71 uni1A39
MultipleSubs2: "+BBwEPQQ+BDYENQRBBEIEMgQ1BD0EPQQwBE8A +BD8EPgQ0BEEEQgQwBD0EPgQyBDoEMAAA lookup 21 subtable" uni1A70 uni1A39
MultipleSubs2: "+BBwEPQQ+BDYENQRBBEIEMgQ1BD0EPQQwBE8A +BD8EPgQ0BEEEQgQwBD0EPgQyBDoEMAAA lookup 20 subtable" uni1A6F uni1A39
MultipleSubs2: "+BBwEPQQ+BDYENQRBBEIEMgQ1BD0EPQQwBE8A +BD8EPgQ0BEEEQgQwBD0EPgQyBDoEMAAA lookup 19 subtable" uni1A6E uni1A39
MultipleSubs2: "+BBwEPQQ+BDYENQRBBEIEMgQ1BD0EPQQwBE8A +BD8EPgQ0BEEEQgQwBD0EPgQyBDoEMAAA lookup 18 subtable" uni1A55 uni1A39
Ligature2: "'blws' Below Base Substitutions in Tai Tham lookup 15 subtable" uni1A39 uniE441
Ligature2: "'blws' Below Base Substitutions in Tai Tham lookup 15 subtable" uni1A39 uniE442
Ligature2: "'blws' Below Base Substitutions in Tai Tham lookup 15 subtable" uni1A39 uniE443
Ligature2: "'blws' Below Base Substitutions in Tai Tham lookup 15 subtable" uni1A39 uniE444
Ligature2: "'blws' Below Base Substitutions in Tai Tham lookup 15 subtable" uni1A39 uniE445
MultipleSubs2: "+BBwEPQQ+BDYENQRBBEIEMgQ1BD0EPQQwBE8A +BD8EPgQ0BEEEQgQwBD0EPgQyBDoEMAAA lookup 4 subtable" uni1A39.sub
EndChar

StartChar: uni1A3A
Encoding: 58 6714 57
Width: 516
VWidth: 1000
GlyphClass: 2
Flags: W
HStem: -9.09133 40.0913<91.559 171.46 247.788 327.647> 22 50.0148<195.276 225.73> 162 26<192.518 221.42> 269.955 40.0445<95.7516 182.343> 310.281 40.643<178.485 354.628> 315 39<290.686 355> 420.215 38.1219<394.396 437.327> 598.047 31.9528<190.799 343.986>
VStem: 35 40<45.987 99.0555 195.831 251.298> 43.4449 39.8608<416.228 517.035> 166 26<188.518 218.398> 222 26.0684<188.522 218.559> 350.562 39.4961<361.289 415.86> 378.901 39.8437<102.966 302.894> 441.126 40.2805<374.439 416.107>
AnchorPoint: "+BBEENQQ3BEsEPARPBD0EPQQ+BDUA--23" 212 -45 basechar 0
AnchorPoint: "+BBEENQQ3BEsEPARPBD0EPQQ+BDUA--9" 298 -45 basechar 0
AnchorPoint: "+BBEENQQ3BEsEPARPBD0EPQQ+BDUA--8" 277 -45 basechar 0
AnchorPoint: "+BBEENQQ3BEsEPARPBD0EPQQ+BDUA--7" 212 -45 basechar 0
AnchorPoint: "+BBEENQQ3BEsEPARPBD0EPQQ+BDUA--6" 415 -45 basechar 0
AnchorPoint: "+BBEENQQ3BEsEPARPBD0EPQQ+BDUA--5" 234 382 basechar 0
AnchorPoint: "+BBEENQQ3BEsEPARPBD0EPQQ+BDUA--4" 422 482 basechar 0
AnchorPoint: "+BBEENQQ3BEsEPARPBD0EPQQ+BDUA--3" 276 382 basechar 0
AnchorPoint: "+BBEENQQ3BEsEPARPBD0EPQQ+BDUA--2" 276 382 basechar 0
AnchorPoint: "+BBEENQQ3BEsEPARPBD0EPQQ+BDUA--1" 214 382 basechar 0
AnchorPoint: "+BBEENQQ3BEsEPARPBD0EPQQ+BDUA--0" 232 382 basechar 0
LayerCount: 2
Fore
SplineSet
210 22 m 0x7736
 207.139137107 22 186.812386907 -9.09133086034 125.128980917 -9.09133086034 c 0xb336
 83.8748954813 -9.09133086034 35 21.4952180442 35 69 c 0
 35 108 60 136 78 143 c 0
 81 144 87 146 87 148 c 0
 87 151 83 151 79 153 c 0
 60 160 35 189 35 222 c 0
 36 273 82 310 137 310 c 2
 140 310 l 2
 206.447293423 309.02283392 248.068394613 257.438429828 248.068394613 206.564565094 c 0
 248.068394613 180.885433404 227.392120525 162 207 162 c 0
 184 162 166 180 166 203 c 0
 166 223 181 240 200 244 c 1
 182.9973646 261.812284705 159.275526234 269.955472458 137.061125795 269.955472458 c 0
 104.401396636 269.955472458 75 252.353942729 75 222 c 0
 75 179.846177083 139.169795918 181.591761095 139.169795918 144.864979592 c 0
 139.169795918 110.687346939 75 121.428571429 75 68 c 0
 75 46 106 31 129 31 c 0
 186.546838309 32.0095936546 186.385621887 72.0148073269 213.736530021 72.0148073269 c 0
 236.893165879 72.0148073269 241.08974619 27.6484180202 281.574982167 27.6484180202 c 0
 307.850923122 27.6484180202 378.900980692 41.6108520976 378.900980692 192.626876406 c 0
 378.900980692 238.099432741 372.053519944 283.518058399 364 315 c 1x77b6
 345.597342369 312.546312316 317.88159502 310.280767858 286.392494571 310.280767858 c 0
 145.914785226 310.280767858 43.4449440924 350.015886454 43.4449440924 465.952716397 c 0
 43.4449440924 560.355930027 117.347117277 630 265 630 c 0
 334 630 423 598 470 545 c 1
 468 542 l 1
 438.138992092 563.517490992 380.355671701 598.047247803 261.000778737 598.047247803 c 0
 258.794464905 598.047247803 83.305775153 593.342446124 83.305775153 467.269983104 c 0
 83.305775153 416.624461497 103.390009876 350.92380954 289.229251845 350.92380954 c 0x3b76
 320.40533111 350.92380954 345.489727519 352.981042234 355 354 c 1
 352.781199215 366.758104513 350.56239843 378.900824411 350.56239843 390.598836677 c 0x377a
 350.56239843 428.52185796 379.213828606 458.336977717 415.755602466 458.336977717 c 0
 449.598307325 458.336977717 481.406471398 433.11218942 481.406471398 393.3686573 c 0
 481.406471398 350.838128563 441.756459043 332.398074377 403 322 c 1
 414.281313424 277.277650357 418.744696531 233.853954107 418.744696531 195.195327973 c 0
 418.744696531 137.903997652 408.941918983 91.0780298647 397 66 c 0
 376 23 339 -10 287 -10 c 0
 232 -10 219 22 210 22 c 0x7736
416.319448049 420.215058806 m 0
 410.645268831 420.215058806 390.058459818 418.265876803 390.058459818 389.978527842 c 0x333a
 390.058459818 381.015034572 392.054887671 370.939754109 395 361 c 1
 428.828610084 365.974795601 441.125945765 381.591485447 441.125945765 395.538151242 c 0
 441.125945765 408.610167486 430.322671595 420.215058806 416.319448049 420.215058806 c 0
207 219 m 0
 198 219 192 212 192 203 c 0
 192 194 198 188 207 188 c 0
 216 188 222 194 222 203 c 0
 222 211 216 219 207 219 c 0
EndSplineSet
Ligature2: "'blws' Below Base Substitutions in Tai Tham lookup 50 subtable" uniE32B uni1A3A
Ligature2: "'blws' Below Base Substitutions in Tai Tham lookup 50 subtable" uniE32A uni1A3A
Ligature2: "'blws' Below Base Substitutions in Tai Tham lookup 50 subtable" uniE325 uni1A3A
Ligature2: "+BB8EPgQ0BEEEQgQwBD0EPgQyBDoEMAAA +BDsEOAQzBDAEQgRDBEAESwAA lookup 26 subtable" uni25CC uni1A3A
Ligature2: "'blws' Below Base Substitutions in Tai Tham lookup 24 subtable" uni1A3A uniE440
MultipleSubs2: "+BBwEPQQ+BDYENQRBBEIEMgQ1BD0EPQQwBE8A +BD8EPgQ0BEEEQgQwBD0EPgQyBDoEMAAA lookup 23 subtable" uni1A72 uni1A3A
MultipleSubs2: "+BBwEPQQ+BDYENQRBBEIEMgQ1BD0EPQQwBE8A +BD8EPgQ0BEEEQgQwBD0EPgQyBDoEMAAA lookup 22 subtable" uni1A71 uni1A3A
MultipleSubs2: "+BBwEPQQ+BDYENQRBBEIEMgQ1BD0EPQQwBE8A +BD8EPgQ0BEEEQgQwBD0EPgQyBDoEMAAA lookup 21 subtable" uni1A70 uni1A3A
MultipleSubs2: "+BBwEPQQ+BDYENQRBBEIEMgQ1BD0EPQQwBE8A +BD8EPgQ0BEEEQgQwBD0EPgQyBDoEMAAA lookup 20 subtable" uni1A6F uni1A3A
MultipleSubs2: "+BBwEPQQ+BDYENQRBBEIEMgQ1BD0EPQQwBE8A +BD8EPgQ0BEEEQgQwBD0EPgQyBDoEMAAA lookup 19 subtable" uni1A6E uni1A3A
MultipleSubs2: "+BBwEPQQ+BDYENQRBBEIEMgQ1BD0EPQQwBE8A +BD8EPgQ0BEEEQgQwBD0EPgQyBDoEMAAA lookup 18 subtable" uni1A55 uni1A3A
Ligature2: "'blws' Below Base Substitutions in Tai Tham lookup 15 subtable" uni1A3A uniE441
Ligature2: "'blws' Below Base Substitutions in Tai Tham lookup 15 subtable" uni1A3A uniE442
Ligature2: "'blws' Below Base Substitutions in Tai Tham lookup 15 subtable" uni1A3A uniE443
Ligature2: "'blws' Below Base Substitutions in Tai Tham lookup 15 subtable" uni1A3A uniE444
Ligature2: "'blws' Below Base Substitutions in Tai Tham lookup 15 subtable" uni1A3A uniE445
MultipleSubs2: "+BBwEPQQ+BDYENQRBBEIEMgQ1BD0EPQQwBE8A +BD8EPgQ0BEEEQgQwBD0EPgQyBDoEMAAA lookup 4 subtable" uni1A3A.sub
EndChar

StartChar: uni1A3B
Encoding: 59 6715 58
Width: 497
VWidth: 1000
GlyphClass: 2
Flags: W
HStem: -1.00485 26.0048<150.777 179.24> 56 26<149.562 179.482> 269.014 40.2768<122.117 205.403 293.134 372.137>
VStem: 35.16 40.5977<99.9095 212.617> 180 26<25.4994 55.4823> 422.282 40.2054<116.445 211.037>
AnchorPoint: "+BBEENQQ3BEsEPARPBD0EPQQ+BDUA--23" 252 -45 basechar 0
AnchorPoint: "+BBEENQQ3BEsEPARPBD0EPQQ+BDUA--9" 339 -45 basechar 0
AnchorPoint: "+BBEENQQ3BEsEPARPBD0EPQQ+BDUA--8" 320 -45 basechar 0
AnchorPoint: "+BBEENQQ3BEsEPARPBD0EPQQ+BDUA--7" 252 -45 basechar 0
AnchorPoint: "+BBEENQQ3BEsEPARPBD0EPQQ+BDUA--6" 447 -45 basechar 0
AnchorPoint: "+BBEENQQ3BEsEPARPBD0EPQQ+BDUA--5" 303 352 basechar 0
AnchorPoint: "+BBEENQQ3BEsEPARPBD0EPQQ+BDUA--4" 433 352 basechar 0
AnchorPoint: "+BBEENQQ3BEsEPARPBD0EPQQ+BDUA--3" 334 352 basechar 0
AnchorPoint: "+BBEENQQ3BEsEPARPBD0EPQQ+BDUA--2" 334 352 basechar 0
AnchorPoint: "+BBEENQQ3BEsEPARPBD0EPQQ+BDUA--1" 250 352 basechar 0
AnchorPoint: "+BBEENQQ3BEsEPARPBD0EPQQ+BDUA--0" 301 352 basechar 0
LayerCount: 2
Fore
SplineSet
35.1600173552 159.413334636 m 0
 35.1600173552 235.436696897 86.2290680089 308.935364804 161.773545276 308.935364804 c 0
 197.931224726 308.935364804 231.875963709 291.855821199 250 267 c 1
 269.760130723 295.228758176 300.145098621 309.291066784 331.886358425 309.291066784 c 0
 407.823016921 309.291066784 462.487484187 234.418368782 462.487484187 160.046707873 c 0
 462.487484187 56.0309570177 359.009268295 21.7610178217 359.009268295 13.6525914254 c 0
 359.009268295 11.51296659 362.295079537 10.1715397675 368.927060779 10.1715397675 c 0
 373.214271083 10.1715397675 378.899815649 10.7321099373 386 12 c 1
 386 10 l 1
 386 10 357.2 -0.8 333.728 -0.8 c 0
 320.426222424 -0.8 303.96567059 2.87822431623 303.96567059 21.0852531464 c 0
 303.96567059 36.2344177495 324.528241887 41.32153854 347 55 c 0
 366.160536314 67.2414537561 422.282058634 103.096870794 422.282058634 158.97354229 c 0
 422.282058634 212.722346737 384.494957911 269 334 269 c 0
 333.390531997 269.009522938 332.788318902 269.014239499 332.193246718 269.014239499 c 0
 269.711961275 269.014239499 285.927239237 216.986279844 248.969319044 216.986279844 c 0
 212.751976739 216.986279844 233.875295988 269.013720156 158.148862774 269.013720156 c 0
 107.889978171 269.013720156 75.7577099893 210.861499953 75.7577099893 156.478628144 c 0
 75.7577099893 119.12216808 90.208841158 79.5666094782 126 50 c 1
 127 69 147 82 165 82 c 0
 188 82 206 64 206 41 c 0
 206 18 188 -1 165 -1 c 0
 164.673498978 -1.00323268338 164.347290563 -1.00484557928 164.021378809 -1.00484557928 c 0
 92.4342033483 -1.00484557928 35.1600173552 76.8125591904 35.1600173552 159.413334636 c 0
165 56 m 0
 156 56 149 50 149 41 c 0
 149 32 156 25 165 25 c 0
 174 25 180 32 180 41 c 0
 180 50 174 56 165 56 c 0
EndSplineSet
LCarets2: 1 0
Ligature2: "'blws' Below Base Substitutions in Tai Tham lookup 50 subtable" uniE32B uni1A3B
Ligature2: "'blws' Below Base Substitutions in Tai Tham lookup 50 subtable" uniE32A uni1A3B
Ligature2: "'blws' Below Base Substitutions in Tai Tham lookup 50 subtable" uniE325 uni1A3B
Ligature2: "+BB8EPgQ0BEEEQgQwBD0EPgQyBDoEMAAA +BDsEOAQzBDAEQgRDBEAESwAA lookup 26 subtable" uni25CC uni1A3B
Ligature2: "'blws' Below Base Substitutions in Tai Tham lookup 24 subtable" uni1A3B uniE440
MultipleSubs2: "+BBwEPQQ+BDYENQRBBEIEMgQ1BD0EPQQwBE8A +BD8EPgQ0BEEEQgQwBD0EPgQyBDoEMAAA lookup 23 subtable" uni1A72 uni1A3B
MultipleSubs2: "+BBwEPQQ+BDYENQRBBEIEMgQ1BD0EPQQwBE8A +BD8EPgQ0BEEEQgQwBD0EPgQyBDoEMAAA lookup 22 subtable" uni1A71 uni1A3B
MultipleSubs2: "+BBwEPQQ+BDYENQRBBEIEMgQ1BD0EPQQwBE8A +BD8EPgQ0BEEEQgQwBD0EPgQyBDoEMAAA lookup 21 subtable" uni1A70 uni1A3B
MultipleSubs2: "+BBwEPQQ+BDYENQRBBEIEMgQ1BD0EPQQwBE8A +BD8EPgQ0BEEEQgQwBD0EPgQyBDoEMAAA lookup 20 subtable" uni1A6F uni1A3B
MultipleSubs2: "+BBwEPQQ+BDYENQRBBEIEMgQ1BD0EPQQwBE8A +BD8EPgQ0BEEEQgQwBD0EPgQyBDoEMAAA lookup 19 subtable" uni1A6E uni1A3B
MultipleSubs2: "+BBwEPQQ+BDYENQRBBEIEMgQ1BD0EPQQwBE8A +BD8EPgQ0BEEEQgQwBD0EPgQyBDoEMAAA lookup 18 subtable" uni1A55 uni1A3B
Ligature2: "'blws' Below Base Substitutions in Tai Tham lookup 15 subtable" uni1A3B uniE441
Ligature2: "'blws' Below Base Substitutions in Tai Tham lookup 15 subtable" uni1A3B uniE442
Ligature2: "'blws' Below Base Substitutions in Tai Tham lookup 15 subtable" uni1A3B uniE443
Ligature2: "'blws' Below Base Substitutions in Tai Tham lookup 15 subtable" uni1A3B uniE444
Ligature2: "'blws' Below Base Substitutions in Tai Tham lookup 15 subtable" uni1A3B uniE445
MultipleSubs2: "+BBwEPQQ+BDYENQRBBEIEMgQ1BD0EPQQwBE8A +BD8EPgQ0BEEEQgQwBD0EPgQyBDoEMAAA lookup 4 subtable" uni1A3B.sub
EndChar

StartChar: uni1A3C
Encoding: 60 6716 59
Width: 497
VWidth: 1000
GlyphClass: 2
Flags: W
HStem: -1 26<150.506 179.413> 56 26<149.451 179.501> 269.014 40.2768<121.44 205.054 293.495 371.463> 593.432 35.6086<178.005 330.449>
VStem: 34.8471 40.2451<102.311 210.631> 38 40<272 528.958> 180 26<25.587 55.4059> 422.282 39.599<116.101 210.572>
AnchorPoint: "+BBEENQQ3BEsEPARPBD0EPQQ+BDUA--23" 252 -45 basechar 0
AnchorPoint: "+BBEENQQ3BEsEPARPBD0EPQQ+BDUA--9" 339 -45 basechar 0
AnchorPoint: "+BBEENQQ3BEsEPARPBD0EPQQ+BDUA--8" 320 -45 basechar 0
AnchorPoint: "+BBEENQQ3BEsEPARPBD0EPQQ+BDUA--7" 252 -45 basechar 0
AnchorPoint: "+BBEENQQ3BEsEPARPBD0EPQQ+BDUA--6" 447 -45 basechar 0
AnchorPoint: "+BBEENQQ3BEsEPARPBD0EPQQ+BDUA--5" 303 352 basechar 0
AnchorPoint: "+BBEENQQ3BEsEPARPBD0EPQQ+BDUA--4" 433 352 basechar 0
AnchorPoint: "+BBEENQQ3BEsEPARPBD0EPQQ+BDUA--3" 334 352 basechar 0
AnchorPoint: "+BBEENQQ3BEsEPARPBD0EPQQ+BDUA--2" 334 352 basechar 0
AnchorPoint: "+BBEENQQ3BEsEPARPBD0EPQQ+BDUA--1" 250 352 basechar 0
AnchorPoint: "+BBEENQQ3BEsEPARPBD0EPQQ+BDUA--0" 301 352 basechar 0
LayerCount: 2
Fore
SplineSet
275.167439693 593.431621389 m 0xf7
 147.914680521 593.431621389 79 546.075803967 79 498 c 0
 79 447 78 350 78 272 c 1xf7
 102.507090529 297.843840922 132.771975141 308.598290454 161.628729542 308.598290454 c 0
 197.533701556 308.598290454 231.258670853 291.948744112 249 267 c 1
 268.760130723 295.228758176 299.145098621 309.291066784 330.886358425 309.291066784 c 0
 407.603498898 309.291066784 461.881070294 233.0851282 461.881070294 159.20123108 c 0
 461.881070294 55.5062864192 358.714381371 21.6778573611 358.714381371 13.4768706975 c 0
 358.714381371 11.4397775971 361.783219015 10.1715397675 368.087355155 10.1715397675 c 0
 372.278572892 10.1715397675 377.899815649 10.7321099373 385 12 c 1
 385 10 386 10 386 10 c 1
 386 10 356.84 -0.8 333.08 -0.8 c 0
 319.749230243 -0.8 302.967161683 2.81833946326 302.967161683 21.0388425651 c 0
 302.967161683 36.2240438926 324.505309479 41.3075796828 347 55 c 0
 366.160536314 67.2414537561 422.282058634 103.096870794 422.282058634 158.97354229 c 0
 422.282058634 212.722346737 384.494957911 269 334 269 c 0
 333.390531997 269.009522938 332.788228216 269.014239499 332.192976387 269.014239499 c 0
 269.692791951 269.014239499 284.90799721 216.986279844 247.969570047 216.986279844 c 0
 211.77007592 216.986279844 233.857196807 269.013720156 158.148611772 269.013720156 c 0
 107.749207588 269.013720156 75.0922251253 210.497431167 75.0922251253 155.764030575 c 0
 75.0922251253 118.618317915 89.4369747899 79.3781512605 125 50 c 1
 126 69 146 82 164 82 c 0
 187 82 206 64 206 41 c 0
 206 18 187 -1 164 -1 c 0
 97.4554744617 -1 34.8471034826 69.0635511541 34.8471034826 156.804745945 c 0xfb
 34.8471034826 167.953573377 35.8579464697 179.387815073 38 191 c 1
 38 224 39 424 39 498 c 0
 39 574.885305855 133.168848689 629.040199957 242.620259339 629.040199957 c 0
 315.385468725 629.040199957 394.905299414 605.104697365 458 548 c 1
 456 547 l 1
 456 547 381.377751338 593.431621389 275.167439693 593.431621389 c 0xf7
164 56 m 0
 155 56 149 50 149 41 c 0
 149 32 155 25 164 25 c 0
 173 25 180 32 180 41 c 0
 180 50 173 56 164 56 c 0
EndSplineSet
Ligature2: "'blws' Below Base Substitutions in Tai Tham lookup 50 subtable" uniE32B uni1A3C
Ligature2: "'blws' Below Base Substitutions in Tai Tham lookup 50 subtable" uniE32A uni1A3C
Ligature2: "'blws' Below Base Substitutions in Tai Tham lookup 50 subtable" uniE325 uni1A3C
Ligature2: "+BB8EPgQ0BEEEQgQwBD0EPgQyBDoEMAAA +BDsEOAQzBDAEQgRDBEAESwAA lookup 26 subtable" uni25CC uni1A3C
Ligature2: "'blws' Below Base Substitutions in Tai Tham lookup 24 subtable" uni1A3C uniE440
MultipleSubs2: "+BBwEPQQ+BDYENQRBBEIEMgQ1BD0EPQQwBE8A +BD8EPgQ0BEEEQgQwBD0EPgQyBDoEMAAA lookup 23 subtable" uni1A72 uni1A3C
MultipleSubs2: "+BBwEPQQ+BDYENQRBBEIEMgQ1BD0EPQQwBE8A +BD8EPgQ0BEEEQgQwBD0EPgQyBDoEMAAA lookup 22 subtable" uni1A71 uni1A3C
MultipleSubs2: "+BBwEPQQ+BDYENQRBBEIEMgQ1BD0EPQQwBE8A +BD8EPgQ0BEEEQgQwBD0EPgQyBDoEMAAA lookup 21 subtable" uni1A70 uni1A3C
MultipleSubs2: "+BBwEPQQ+BDYENQRBBEIEMgQ1BD0EPQQwBE8A +BD8EPgQ0BEEEQgQwBD0EPgQyBDoEMAAA lookup 20 subtable" uni1A6F uni1A3C
MultipleSubs2: "+BBwEPQQ+BDYENQRBBEIEMgQ1BD0EPQQwBE8A +BD8EPgQ0BEEEQgQwBD0EPgQyBDoEMAAA lookup 19 subtable" uni1A6E uni1A3C
MultipleSubs2: "+BBwEPQQ+BDYENQRBBEIEMgQ1BD0EPQQwBE8A +BD8EPgQ0BEEEQgQwBD0EPgQyBDoEMAAA lookup 18 subtable" uni1A55 uni1A3C
Ligature2: "'blws' Below Base Substitutions in Tai Tham lookup 15 subtable" uni1A3C uniE441
Ligature2: "'blws' Below Base Substitutions in Tai Tham lookup 15 subtable" uni1A3C uniE442
Ligature2: "'blws' Below Base Substitutions in Tai Tham lookup 15 subtable" uni1A3C uniE443
Ligature2: "'blws' Below Base Substitutions in Tai Tham lookup 15 subtable" uni1A3C uniE444
Ligature2: "'blws' Below Base Substitutions in Tai Tham lookup 15 subtable" uni1A3C uniE445
MultipleSubs2: "+BBwEPQQ+BDYENQRBBEIEMgQ1BD0EPQQwBE8A +BD8EPgQ0BEEEQgQwBD0EPgQyBDoEMAAA lookup 4 subtable" uni1A3C.sub
EndChar

StartChar: uni1A3D
Encoding: 61 6717 60
Width: 607
VWidth: 1000
GlyphClass: 2
Flags: W
HStem: -11 3<452.599 463> -10.0154 39.9955<101.771 200.059> 200 26<64.5177 94.5006> 273.987 37.0132<109.584 202.962 382.477 459.372>
VStem: 38 26<226.518 255.002> 95 26<226.594 255.381> 270 40<103.124 201.845> 532.488 40.1337<105.081 205.259>
AnchorPoint: "+BBEENQQ3BEsEPARPBD0EPQQ+BDUA--23" 376 -45 basechar 0
AnchorPoint: "+BBEENQQ3BEsEPARPBD0EPQQ+BDUA--9" 424 -45 basechar 0
AnchorPoint: "+BBEENQQ3BEsEPARPBD0EPQQ+BDUA--8" 405 -45 basechar 0
AnchorPoint: "+BBEENQQ3BEsEPARPBD0EPQQ+BDUA--7" 376 -45 basechar 0
AnchorPoint: "+BBEENQQ3BEsEPARPBD0EPQQ+BDUA--6" 558 -45 basechar 0
AnchorPoint: "+BBEENQQ3BEsEPARPBD0EPQQ+BDUA--5" 420 352 basechar 0
AnchorPoint: "+BBEENQQ3BEsEPARPBD0EPQQ+BDUA--4" 546 352 basechar 0
AnchorPoint: "+BBEENQQ3BEsEPARPBD0EPQQ+BDUA--3" 421 352 basechar 0
AnchorPoint: "+BBEENQQ3BEsEPARPBD0EPQQ+BDUA--2" 421 352 basechar 0
AnchorPoint: "+BBEENQQ3BEsEPARPBD0EPQQ+BDUA--1" 292 352 basechar 0
AnchorPoint: "+BBEENQQ3BEsEPARPBD0EPQQ+BDUA--0" 418 352 basechar 0
LayerCount: 2
Fore
SplineSet
422.15059744 310.644938218 m 0x7f
 501.677525411 310.644938218 572.621767716 240.646067681 572.621767716 156.185348505 c 0
 572.621767716 98.6875766934 533.508244507 20.8348600939 448 5 c 0
 441.659844463 3.81122083678 438.30310249 1.99435460739 438.30310249 0.0471725231273 c 0
 438.30310249 -2.91954902883 446.09527219 -6.18877916322 463 -8 c 0
 463 -11 463 -11 449 -11 c 0xbf
 426.666811974 -11 385.283331721 -6.67038813015 385.283331721 17.298724638 c 0
 385.283331721 19.0876319861 385.513846508 20.9859355315 386 23 c 0
 390 38 412 39 438 44 c 0
 498.860322176 56.4084152009 532.488073177 105.126925302 532.488073177 155.291485449 c 0
 532.488073177 218.796644848 478.094545166 270.162500172 421.327839936 270.162500172 c 0
 364.66072757 270.162500172 311.46805729 221.93480723 310 150 c 0
 308.012222938 63.5316978044 238.336537678 -10.0153911116 154.815052361 -10.0153911116 c 0
 84.976244975 -10.0153911116 35.9897105723 37.1852096984 35 55 c 0
 35 66 44 75 55 75 c 0
 62 75 67 71 71 66 c 1
 71 66 95.3377777778 29.9800888889 154.579173926 29.9800888889 c 0
 214.161633579 29.9800888889 269.019025337 87.2366469061 270 151 c 0
 269.168492287 226.667201883 215.098793662 273.986795618 149.759235877 273.986795618 c 0
 136.519176465 273.986795618 122.816367534 272.043814888 109 268 c 1
 118 261 121 251 121 241 c 0
 121 218 102 200 79 200 c 0
 56 200 38 218 38 241 c 0
 38 291 115 311 161 311 c 0
 214 311 263 279 290 231 c 1
 316.332323454 279.056490304 367.800080028 310.644938218 422.15059744 310.644938218 c 0x7f
79 226 m 0
 88 226 95 232 95 241 c 0
 95 250 88 256 79 256 c 0
 70 256 64 250 64 241 c 0
 64 232 70 226 79 226 c 0
EndSplineSet
Ligature2: "'blws' Below Base Substitutions in Tai Tham lookup 50 subtable" uniE32B uni1A3D
Ligature2: "'blws' Below Base Substitutions in Tai Tham lookup 50 subtable" uniE32A uni1A3D
Ligature2: "'blws' Below Base Substitutions in Tai Tham lookup 50 subtable" uniE325 uni1A3D
Ligature2: "+BB8EPgQ0BEEEQgQwBD0EPgQyBDoEMAAA +BDsEOAQzBDAEQgRDBEAESwAA lookup 26 subtable" uni25CC uni1A3D
Ligature2: "'blws' Below Base Substitutions in Tai Tham lookup 24 subtable" uni1A3D uniE440
MultipleSubs2: "+BBwEPQQ+BDYENQRBBEIEMgQ1BD0EPQQwBE8A +BD8EPgQ0BEEEQgQwBD0EPgQyBDoEMAAA lookup 23 subtable" uni1A72 uni1A3D
MultipleSubs2: "+BBwEPQQ+BDYENQRBBEIEMgQ1BD0EPQQwBE8A +BD8EPgQ0BEEEQgQwBD0EPgQyBDoEMAAA lookup 22 subtable" uni1A71 uni1A3D
MultipleSubs2: "+BBwEPQQ+BDYENQRBBEIEMgQ1BD0EPQQwBE8A +BD8EPgQ0BEEEQgQwBD0EPgQyBDoEMAAA lookup 21 subtable" uni1A70 uni1A3D
MultipleSubs2: "+BBwEPQQ+BDYENQRBBEIEMgQ1BD0EPQQwBE8A +BD8EPgQ0BEEEQgQwBD0EPgQyBDoEMAAA lookup 20 subtable" uni1A6F uni1A3D
MultipleSubs2: "+BBwEPQQ+BDYENQRBBEIEMgQ1BD0EPQQwBE8A +BD8EPgQ0BEEEQgQwBD0EPgQyBDoEMAAA lookup 19 subtable" uni1A6E uni1A3D
MultipleSubs2: "+BBwEPQQ+BDYENQRBBEIEMgQ1BD0EPQQwBE8A +BD8EPgQ0BEEEQgQwBD0EPgQyBDoEMAAA lookup 18 subtable" uni1A55 uni1A3D
Ligature2: "'blws' Below Base Substitutions in Tai Tham lookup 15 subtable" uni1A3D uniE441
Ligature2: "'blws' Below Base Substitutions in Tai Tham lookup 15 subtable" uni1A3D uniE442
Ligature2: "'blws' Below Base Substitutions in Tai Tham lookup 15 subtable" uni1A3D uniE443
Ligature2: "'blws' Below Base Substitutions in Tai Tham lookup 15 subtable" uni1A3D uniE444
Ligature2: "'blws' Below Base Substitutions in Tai Tham lookup 15 subtable" uni1A3D uniE445
MultipleSubs2: "+BBwEPQQ+BDYENQRBBEIEMgQ1BD0EPQQwBE8A +BD8EPgQ0BEEEQgQwBD0EPgQyBDoEMAAA lookup 4 subtable" uni1A3D.sub
EndChar

StartChar: uni1A3E
Encoding: 62 6718 61
Width: 467
VWidth: 1000
GlyphClass: 2
Flags: W
HStem: -10 38.9663<162.941 299.934> 106.82 47.2554<266.036 325.131> 278 26<111.518 141.497> 289.258 10.5496<309.903 354.572>
VStem: 35.3752 40.2558<95.6528 185.261> 85 26<248.26 277.482> 142 24.7115<248.539 277.36> 392 41<104.943 194.801> 414.52 17.124<-90.1649 -6.95822>
AnchorPoint: "+BBEENQQ3BEsEPARPBD0EPQQ+BDUA--23" 234 -45 basechar 0
AnchorPoint: "+BBEENQQ3BEsEPARPBD0EPQQ+BDUA--9" 305 -45 basechar 0
AnchorPoint: "+BBEENQQ3BEsEPARPBD0EPQQ+BDUA--8" 288 -45 basechar 0
AnchorPoint: "+BBEENQQ3BEsEPARPBD0EPQQ+BDUA--7" 234 -45 basechar 0
AnchorPoint: "+BBEENQQ3BEsEPARPBD0EPQQ+BDUA--6" 424 -45 basechar 0
AnchorPoint: "+BBEENQQ3BEsEPARPBD0EPQQ+BDUA--5" 245 352 basechar 0
AnchorPoint: "+BBEENQQ3BEsEPARPBD0EPQQ+BDUA--4" 404 352 basechar 0
AnchorPoint: "+BBEENQQ3BEsEPARPBD0EPQQ+BDUA--3" 312 352 basechar 0
AnchorPoint: "+BBEENQQ3BEsEPARPBD0EPQQ+BDUA--2" 312 352 basechar 0
AnchorPoint: "+BBEENQQ3BEsEPARPBD0EPQQ+BDUA--1" 234 352 basechar 0
AnchorPoint: "+BBEENQQ3BEsEPARPBD0EPQQ+BDUA--0" 239 352 basechar 0
LayerCount: 2
Fore
SplineSet
233 -10 m 0xee80
 206.254783985 -9.33136959961 35.3752470443 0.508526941315 35.3752470443 142.802142926 c 0
 35.3752470443 165.972677784 39.4868329805 188.261684754 54 206 c 0
 68 223 76 231 92 240 c 1
 88 247 85 255 85 263 c 0
 85 286 103 304 126 304 c 0
 151.764652761 304 166.711541594 282.692283174 166.711541594 261.660911537 c 0
 166.711541594 245.959332318 158.380442918 230.411782413 140 224 c 0
 103.415784109 210.867204552 75.6310741502 187.175001984 75.6310741502 139.716293845 c 0
 75.6310741502 40.3687430872 211.072383947 28.9663425432 230.348190827 28.9663425432 c 0
 231.268071717 28.9663425432 232.152680682 28.9777021232 233 29 c 0
 283 29 326 47 355 73 c 1
 334.699813433 91.7386337537 310.741956086 106.819596727 287.41016253 106.819596727 c 0
 280.859145381 106.819596727 274.357484214 105.630683123 268 103 c 1
 262.556128294 91.122461732 251.479016914 85.1230866019 240.465629503 85.1230866019 c 0
 222.632718085 85.1230866019 211.108845602 100.115268786 211.108845602 113.674547943 c 0
 211.108845602 135.006047962 238.381107092 154.075011391 275.609917572 154.075011391 c 0
 306.810939169 154.075011391 345.005357126 140.681131688 380 104 c 1
 388 118 392 134 392 150 c 0
 392 188 368 223 331 244 c 0
 307 257 287 262 287 278 c 0xef
 287.434452302 294.943639765 301.64756718 299.807356175 318.159015405 299.807356175 c 0
 339.652770884 299.807356175 365.041166112 291.565547698 369 291 c 1
 369 288 l 1
 363.315496716 288.812071898 357.997360525 289.257776703 353.660458695 289.257776703 c 0xdf
 347.1440066 289.257776703 342.842872008 288.251515921 342.842872008 285.969856668 c 0
 342.842872008 284.16024974 345.548387097 281.548387097 352 278 c 2
 364 271 l 1
 406 242 433 199 433 150 c 0xef
 433 121 423 93 406 70 c 1
 424.475623588 39.5152210802 431.644072583 7.32369882551 431.644072583 -25.0964504789 c 0
 431.644072583 -62.8664068569 421.914625847 -100.94666951 409 -137 c 1
 406 -136 l 1
 411.744328688 -106.264651496 414.520041065 -82.4665356156 414.520041065 -61.9435780568 c 0
 414.520041065 -21.7300601394 403.862949374 5.90878943976 384 41 c 1
 382 43 l 1
 345 10 292 -10 233 -10 c 0xee80
126 278 m 0
 117 278 111 272 111 263 c 0
 111 254 117 248 126 248 c 0
 135 248 142 254 142 263 c 0
 142 272 135 278 126 278 c 0
EndSplineSet
LCarets2: 1 0
Ligature2: "'blws' Below Base Substitutions in Tai Tham lookup 50 subtable" uniE32B uni1A3E
Ligature2: "'blws' Below Base Substitutions in Tai Tham lookup 50 subtable" uniE32A uni1A3E
Ligature2: "'blws' Below Base Substitutions in Tai Tham lookup 50 subtable" uniE325 uni1A3E
Ligature2: "+BB8EPgQ0BEEEQgQwBD0EPgQyBDoEMAAA +BDsEOAQzBDAEQgRDBEAESwAA lookup 26 subtable" uni25CC uni1A3E
Ligature2: "'blws' Below Base Substitutions in Tai Tham lookup 24 subtable" uni1A3E uniE440
MultipleSubs2: "+BBwEPQQ+BDYENQRBBEIEMgQ1BD0EPQQwBE8A +BD8EPgQ0BEEEQgQwBD0EPgQyBDoEMAAA lookup 23 subtable" uni1A72 uni1A3E
MultipleSubs2: "+BBwEPQQ+BDYENQRBBEIEMgQ1BD0EPQQwBE8A +BD8EPgQ0BEEEQgQwBD0EPgQyBDoEMAAA lookup 22 subtable" uni1A71 uni1A3E
MultipleSubs2: "+BBwEPQQ+BDYENQRBBEIEMgQ1BD0EPQQwBE8A +BD8EPgQ0BEEEQgQwBD0EPgQyBDoEMAAA lookup 21 subtable" uni1A70 uni1A3E
MultipleSubs2: "+BBwEPQQ+BDYENQRBBEIEMgQ1BD0EPQQwBE8A +BD8EPgQ0BEEEQgQwBD0EPgQyBDoEMAAA lookup 20 subtable" uni1A6F uni1A3E
MultipleSubs2: "+BBwEPQQ+BDYENQRBBEIEMgQ1BD0EPQQwBE8A +BD8EPgQ0BEEEQgQwBD0EPgQyBDoEMAAA lookup 19 subtable" uni1A6E uni1A3E
MultipleSubs2: "+BBwEPQQ+BDYENQRBBEIEMgQ1BD0EPQQwBE8A +BD8EPgQ0BEEEQgQwBD0EPgQyBDoEMAAA lookup 18 subtable" uni1A55 uni1A3E
Ligature2: "'blws' Below Base Substitutions in Tai Tham lookup 15 subtable" uni1A3E uniE441
Ligature2: "'blws' Below Base Substitutions in Tai Tham lookup 15 subtable" uni1A3E uniE442
Ligature2: "'blws' Below Base Substitutions in Tai Tham lookup 15 subtable" uni1A3E uniE443
Ligature2: "'blws' Below Base Substitutions in Tai Tham lookup 15 subtable" uni1A3E uniE444
Ligature2: "'blws' Below Base Substitutions in Tai Tham lookup 15 subtable" uni1A3E uniE445
MultipleSubs2: "+BBwEPQQ+BDYENQRBBEIEMgQ1BD0EPQQwBE8A +BD8EPgQ0BEEEQgQwBD0EPgQyBDoEMAAA lookup 4 subtable" uni1A3E.sub
EndChar

StartChar: uni1A3F
Encoding: 63 6719 62
Width: 636
VWidth: 1000
GlyphClass: 2
Flags: W
HStem: -10.6003 36.6003<131.058 242.975> -9.04792 38.9422<416.758 509.091> 275 26<90.5177 119.482>
VStem: 34.8101 40.1099<78.9652 173.095> 64 26<244.312 274.482> 120 26<244.473 274.482> 308.507 40.4927<98.6111 210.736> 416.269 52.0338<250.527 289.799> 560.482 41.2806<83.6142 185.891>
AnchorPoint: "+BBEENQQ3BEsEPARPBD0EPQQ+BDUA--23" 437 -45 basechar 0
AnchorPoint: "+BBEENQQ3BEsEPARPBD0EPQQ+BDUA--9" 467 -45 basechar 0
AnchorPoint: "+BBEENQQ3BEsEPARPBD0EPQQ+BDUA--8" 448 -45 basechar 0
AnchorPoint: "+BBEENQQ3BEsEPARPBD0EPQQ+BDUA--7" 437 -45 basechar 0
AnchorPoint: "+BBEENQQ3BEsEPARPBD0EPQQ+BDUA--6" 589 -45 basechar 0
AnchorPoint: "+BBEENQQ3BEsEPARPBD0EPQQ+BDUA--5" 430 352 basechar 0
AnchorPoint: "+BBEENQQ3BEsEPARPBD0EPQQ+BDUA--4" 558 352 basechar 0
AnchorPoint: "+BBEENQQ3BEsEPARPBD0EPQQ+BDUA--3" 451 352 basechar 0
AnchorPoint: "+BBEENQQ3BEsEPARPBD0EPQQ+BDUA--2" 451 352 basechar 0
AnchorPoint: "+BBEENQQ3BEsEPARPBD0EPQQ+BDUA--1" 315 352 basechar 0
AnchorPoint: "+BBEENQQ3BEsEPARPBD0EPQQ+BDUA--0" 423 352 basechar 0
LayerCount: 2
Fore
SplineSet
601.763066904 134.213419286 m 0xb780
 601.763066904 58.6065098385 548.791800986 -9.04792154552 466.111842729 -9.04792154552 c 0x7780
 410.423508567 -9.04792154552 353.733139714 22.0111718847 328 70 c 1
 297.545542806 0.525769526474 222.710007306 -10.0756019692 192.278450832 -10.0756019692 c 0
 190.734070222 -10.0756019692 189.304051743 -10.0482982127 188 -10 c 0
 183.021239408 -10.4036832912 178.153382285 -10.6002713288 173.397989487 -10.6002713288 c 0
 84.4148784468 -10.6002713288 34.8100848526 58.2331674892 34.8100848526 127.058400806 c 0xb780
 34.8100848526 163.891997304 49.0175472299 200.72324364 79 227 c 1
 70 235 64 247 64 260 c 0xaf80
 64 283 82 301 105 301 c 0
 128 301 146 283 146 260 c 0
 146 246 139 234 129 226 c 0
 92.2 196 74.92 158.32 74.92 123.776 c 0
 74.92 71.96 113.8 27.2 184 26 c 0
 273.106568369 26 308.50732328 87.8716096558 308.50732328 149.659246195 c 0
 308.50732328 198.124247475 286.72692515 246.537584097 252 265 c 0
 247 269 245 274 245 280 c 0
 245 291 254 300 265 300 c 0
 270 300 275 298 279 294 c 0
 331 259 348 206 349 151 c 0
 349 64.7476721637 422.317852728 29.894272696 463.903765007 29.894272696 c 0
 514.782961232 29.894272696 560.482436652 70.3422683649 560.482436652 134.587459069 c 0
 560.482436652 153.682938069 556.102988211 172.203238919 548 187 c 0
 500.673117296 272.188388868 416.269264393 229.261177963 416.269264393 271.793334274 c 0
 416.269264393 295.546565531 456.699897678 299 479 299 c 0
 487 299 490 302 493 299 c 0
 494 298 495 297 493 297 c 0
 476.09527219 293.981298605 468.30310249 290.598094886 468.30310249 287.730647783 c 0
 468.30310249 285.848623626 471.659844463 284.188779163 478 283 c 0
 560.954792294 267.445976445 601.763066904 200.453289574 601.763066904 134.213419286 c 0xb780
105 275 m 0
 96 275 90 269 90 260 c 0x2f80
 90 251 96 244 105 244 c 0
 114 244 120 251 120 260 c 0
 120 269 114 275 105 275 c 0
EndSplineSet
Ligature2: "'blws' Below Base Substitutions in Tai Tham lookup 50 subtable" uniE32B uni1A3F
Ligature2: "'blws' Below Base Substitutions in Tai Tham lookup 50 subtable" uniE32A uni1A3F
Ligature2: "'blws' Below Base Substitutions in Tai Tham lookup 50 subtable" uniE325 uni1A3F
MultipleSubs2: "+BBwEPQQ+BDYENQRBBEIEMgQ1BD0EPQQwBE8A +BD8EPgQ0BEEEQgQwBD0EPgQyBDoEMAAA lookup 36 subtable" uni1A3F uni1A7B
Ligature2: "+BB8EPgQ0BEEEQgQwBD0EPgQyBDoEMAAA +BDsEOAQzBDAEQgRDBEAESwAA lookup 26 subtable" uni25CC uni1A3F
Ligature2: "'blws' Below Base Substitutions in Tai Tham lookup 24 subtable" uni1A3F uniE440
MultipleSubs2: "+BBwEPQQ+BDYENQRBBEIEMgQ1BD0EPQQwBE8A +BD8EPgQ0BEEEQgQwBD0EPgQyBDoEMAAA lookup 23 subtable" uni1A72 uni1A3F
MultipleSubs2: "+BBwEPQQ+BDYENQRBBEIEMgQ1BD0EPQQwBE8A +BD8EPgQ0BEEEQgQwBD0EPgQyBDoEMAAA lookup 22 subtable" uni1A71 uni1A3F
MultipleSubs2: "+BBwEPQQ+BDYENQRBBEIEMgQ1BD0EPQQwBE8A +BD8EPgQ0BEEEQgQwBD0EPgQyBDoEMAAA lookup 21 subtable" uni1A70 uni1A3F
MultipleSubs2: "+BBwEPQQ+BDYENQRBBEIEMgQ1BD0EPQQwBE8A +BD8EPgQ0BEEEQgQwBD0EPgQyBDoEMAAA lookup 20 subtable" uni1A6F uni1A3F
MultipleSubs2: "+BBwEPQQ+BDYENQRBBEIEMgQ1BD0EPQQwBE8A +BD8EPgQ0BEEEQgQwBD0EPgQyBDoEMAAA lookup 19 subtable" uni1A6E uni1A3F
MultipleSubs2: "+BBwEPQQ+BDYENQRBBEIEMgQ1BD0EPQQwBE8A +BD8EPgQ0BEEEQgQwBD0EPgQyBDoEMAAA lookup 18 subtable" uni1A55 uni1A3F
Ligature2: "'blws' Below Base Substitutions in Tai Tham lookup 15 subtable" uni1A3F uniE441
Ligature2: "'blws' Below Base Substitutions in Tai Tham lookup 15 subtable" uni1A3F uniE442
Ligature2: "'blws' Below Base Substitutions in Tai Tham lookup 15 subtable" uni1A3F uniE443
Ligature2: "'blws' Below Base Substitutions in Tai Tham lookup 15 subtable" uni1A3F uniE444
Ligature2: "'blws' Below Base Substitutions in Tai Tham lookup 15 subtable" uni1A3F uniE445
MultipleSubs2: "+BBwEPQQ+BDYENQRBBEIEMgQ1BD0EPQQwBE8A +BD8EPgQ0BEEEQgQwBD0EPgQyBDoEMAAA lookup 4 subtable" uni1A3F.sub
EndChar

StartChar: uni1A40
Encoding: 64 6720 63
Width: 457
VWidth: 1000
GlyphClass: 2
Flags: W
HStem: -9.08621 40.0862<91.82 171.057 247.516 326.798> 22 50.0148<196.213 225.803> 162 26<193.518 222.75> 269.821 40.1791<96.7516 182.301> 608.396 21.6042<365.854 403.409>
VStem: 35 40<46.316 99.1898 196.789 249.844> 167 26<188.518 218.398> 223 26.1444<188.696 218.166> 305.985 39.2937<406.263 576.247> 376.623 41.0273<95.5795 248.57>
AnchorPoint: "+BBEENQQ3BEsEPARPBD0EPQQ+BDUA--23" 212 -45 basechar 0
AnchorPoint: "+BBEENQQ3BEsEPARPBD0EPQQ+BDUA--9" 298 -45 basechar 0
AnchorPoint: "+BBEENQQ3BEsEPARPBD0EPQQ+BDUA--8" 277 -45 basechar 0
AnchorPoint: "+BBEENQQ3BEsEPARPBD0EPQQ+BDUA--7" 212 -45 basechar 0
AnchorPoint: "+BBEENQQ3BEsEPARPBD0EPQQ+BDUA--6" 415 -45 basechar 0
AnchorPoint: "+BBEENQQ3BEsEPARPBD0EPQQ+BDUA--5" 161 352 basechar 0
AnchorPoint: "+BBEENQQ3BEsEPARPBD0EPQQ+BDUA--4" 402 352 basechar 0
AnchorPoint: "+BBEENQQ3BEsEPARPBD0EPQQ+BDUA--3" 224 352 basechar 0
AnchorPoint: "+BBEENQQ3BEsEPARPBD0EPQQ+BDUA--2" 224 352 basechar 0
AnchorPoint: "+BBEENQQ3BEsEPARPBD0EPQQ+BDUA--1" 214 352 basechar 0
AnchorPoint: "+BBEENQQ3BEsEPARPBD0EPQQ+BDUA--0" 129 352 basechar 0
LayerCount: 2
Fore
SplineSet
249.144373585 208.112994726 m 0xbfc0
 249.144373585 177.579038136 225.705136182 162 208 162 c 0
 185 162 167 180 167 203 c 0
 167 223 181 240 200 244 c 1
 183.625410214 261.60268402 159.877322685 269.820916367 137.536682928 269.820916367 c 0
 105.303400408 269.820916367 76 252.713033278 76 222 c 0
 76 180.510525428 139.259181378 183.297830334 139.259181378 143.90996465 c 0
 139.259181378 108.167049733 75 123.006993007 75 68 c 0
 75 46 106 31 129 31 c 0
 186.546838309 32.0095936546 186.385621887 72.0148073269 213.736530021 72.0148073269 c 0
 236.893165879 72.0148073269 241.08974619 27.6484180202 281.574982167 27.6484180202 c 0
 289.965498067 27.6484180202 376.622915611 30.9473485773 376.622915611 167.238404846 c 0
 376.622915611 208.115927049 367.699203799 252.43014752 351 292 c 0
 321.925718246 359.663782992 305.985238607 434.313630938 305.985238607 496.598240907 c 0
 305.985238607 509.222827449 307.742859533 630 375 630 c 0
 396 630 409 617 417 600 c 1
 414 599 l 1
 404.26599974 605.403947539 395.450635668 608.395817811 387.637949183 608.395817811 c 0
 370.274317339 608.395817811 345.278898367 593.61504923 345.278898367 508.492820318 c 0
 345.278898367 355.123552182 417.650265097 280.466803032 417.650265097 168.509091219 c 0
 417.650265097 72.0846714603 371.638497864 -12 288 -12 c 0
 233 -12 220 22 211 22 c 0x7fc0
 208.191148907 22 187.704217068 -9.08621048917 126.261173749 -9.08621048917 c 0
 84.0458484902 -9.08621048917 35 23.3545689971 35 69 c 0
 35 108 61 136 79 143 c 0
 82 144 87 146 87 148 c 0
 87 151 83 151 79 153 c 0
 60 160 36 189 36 222 c 0
 37 273 83 310 138 310 c 2
 140 310 l 2
 205.812570161 309.032168086 249.144373585 259.356008244 249.144373585 208.112994726 c 0xbfc0
208 219 m 0
 199 219 193 212 193 203 c 0
 193 194 199 188 208 188 c 0
 217 188 223 194 223 203 c 0
 223 211 217 219 208 219 c 0
EndSplineSet
Ligature2: "'blws' Below Base Substitutions in Tai Tham lookup 50 subtable" uniE32B uni1A40
Ligature2: "'blws' Below Base Substitutions in Tai Tham lookup 50 subtable" uniE32A uni1A40
Ligature2: "'blws' Below Base Substitutions in Tai Tham lookup 50 subtable" uniE325 uni1A40
Ligature2: "+BB8EPgQ0BEEEQgQwBD0EPgQyBDoEMAAA +BDsEOAQzBDAEQgRDBEAESwAA lookup 26 subtable" uni25CC uni1A40
Ligature2: "'blws' Below Base Substitutions in Tai Tham lookup 24 subtable" uni1A40 uniE440
MultipleSubs2: "+BBwEPQQ+BDYENQRBBEIEMgQ1BD0EPQQwBE8A +BD8EPgQ0BEEEQgQwBD0EPgQyBDoEMAAA lookup 23 subtable" uni1A72 uni1A40
MultipleSubs2: "+BBwEPQQ+BDYENQRBBEIEMgQ1BD0EPQQwBE8A +BD8EPgQ0BEEEQgQwBD0EPgQyBDoEMAAA lookup 22 subtable" uni1A71 uni1A40
MultipleSubs2: "+BBwEPQQ+BDYENQRBBEIEMgQ1BD0EPQQwBE8A +BD8EPgQ0BEEEQgQwBD0EPgQyBDoEMAAA lookup 21 subtable" uni1A70 uni1A40
MultipleSubs2: "+BBwEPQQ+BDYENQRBBEIEMgQ1BD0EPQQwBE8A +BD8EPgQ0BEEEQgQwBD0EPgQyBDoEMAAA lookup 20 subtable" uni1A6F uni1A40
MultipleSubs2: "+BBwEPQQ+BDYENQRBBEIEMgQ1BD0EPQQwBE8A +BD8EPgQ0BEEEQgQwBD0EPgQyBDoEMAAA lookup 19 subtable" uni1A6E uni1A40
MultipleSubs2: "+BBwEPQQ+BDYENQRBBEIEMgQ1BD0EPQQwBE8A +BD8EPgQ0BEEEQgQwBD0EPgQyBDoEMAAA lookup 18 subtable" uni1A55 uni1A40
Ligature2: "'blws' Below Base Substitutions in Tai Tham lookup 15 subtable" uni1A40 uniE441
Ligature2: "'blws' Below Base Substitutions in Tai Tham lookup 15 subtable" uni1A40 uniE442
Ligature2: "'blws' Below Base Substitutions in Tai Tham lookup 15 subtable" uni1A40 uniE443
Ligature2: "'blws' Below Base Substitutions in Tai Tham lookup 15 subtable" uni1A40 uniE444
Ligature2: "'blws' Below Base Substitutions in Tai Tham lookup 15 subtable" uni1A40 uniE445
MultipleSubs2: "+BBwEPQQ+BDYENQRBBEIEMgQ1BD0EPQQwBE8A +BD8EPgQ0BEEEQgQwBD0EPgQyBDoEMAAA lookup 4 subtable" uni1A40.sub
EndChar

